<svg width="146" height="233" viewBox="0 0 146 233" fill="none" xmlns="http://www.w3.org/2000/svg">
<path d="M2.60613 185.166C8.38513 176.862 22.8241 179.64 36.0941 179.641C59.6981 179.641 77.5231 160.854 101.128 159.891C112.69 158.926 125.215 164.226 128.587 175.787C132.44 188.312 124.251 200.837 115.098 208.545C97.2801 224.437 64.9951 235.509 40.9121 231.668C22.8891 228.795 2.97212 220.797 0.376117 200.77C-0.586883 193.333 0.350128 188.407 2.60613 185.166Z" fill="#C7EAE7"/>
<path d="M71.5011 190.95C72.3601 196.612 77.6581 199.709 77.1211 204.6C76.7421 208.055 72.8881 208.499 69.4621 210.163C64.7071 212.424 57.2621 216.225 51.9891 214.057C46.7991 211.923 55.9751 207.395 58.1811 206.157C61.1581 204.45 62.0141 203.229 61.5581 199.966C61.0281 197.012 60.7841 195.312 63.6221 193.635" fill="#191926"/>
<path d="M94.0431 174.997C93.5891 180.545 97.9102 184.661 96.3102 189.171C95.1772 192.355 91.4332 191.913 87.8182 192.721C82.8142 193.798 72.3681 197.348 68.5231 193.008C64.9081 188.925 75.6751 187.088 78.0411 186.409C81.2401 185.459 82.3221 184.494 82.6211 181.304C82.7801 178.392 82.9301 176.727 85.9891 175.776" fill="#191926"/>
<path d="M117.629 104.67C117.201 101.673 114.9 97.0161 114.042 94.0181C111.473 83.9541 106.864 68.7971 104.114 65.5571C102.339 63.4641 101.196 54.9181 100.645 53.3491C97.0452 43.0951 94.4452 47.3041 89.9882 37.2771L83.9932 48.5541C88.1392 58.2281 96.2782 67.0881 96.3842 69.9471C96.4892 72.8061 104.27 86.0171 107.832 94.2311C108.688 95.9451 111.045 102.261 112.115 103.332" fill="#FF9178"/>
<path d="M53.2991 49.6561C54.1541 51.5841 55.0111 57.6871 51.3711 56.0801C47.6231 54.3671 45.4121 54.1941 46.6961 50.2321C47.8741 46.3781 50.8351 43.3391 52.1211 44.9461" fill="#DDD5CE"/>
<path d="M65.9451 67.2251C67.6591 83.4991 64.8331 100.095 68.3011 116.048C70.4431 125.898 79.6501 175.935 82.0051 183.001C82.8611 185.999 95.1411 186.602 95.5331 180.859C96.2411 170.539 89.9891 139.769 89.7131 136.604C87.7861 116.69 91.6311 119.687 90.1321 99.5581C89.9181 96.5601 92.0601 86.7091 91.8451 83.7111" fill="#317BA8"/>
<path d="M69.8431 94.5181C68.1291 106.581 53.8951 128.95 53.7611 137.379C53.6461 144.629 60.7021 196.326 61.5581 199.965C62.4151 203.607 75.4371 200.745 74.7391 196.949C73.1301 188.213 72.2931 145.875 72.4541 140.129C72.5601 136.319 89.3521 123.655 96.6331 114.446C105.104 103.733 103.799 93.6611 97.3761 83.3821C97.3761 83.3821 82.6921 94.9461 69.8431 94.5181Z" fill="#317BA8"/>
<path d="M76.8181 95.1601C75.5341 104.797 66.1111 82.7401 63.1131 70.9631C60.0631 57.2391 51.8821 53.3151 48.6951 39.8471C43.9851 19.9321 75.8421 27.1001 84.5281 31.9951C98.3881 39.8081 85.3901 36.9071 89.8861 51.6831C92.1631 59.1611 93.7351 70.3211 98.8731 85.9541C98.8731 85.9541 94.5901 98.8021 77.0311 95.3761" fill="#C42C2C"/>
<path d="M38.3641 73.3951C38.8201 65.7971 46.8851 62.7821 54.6192 66.4051C59.2212 68.6021 63.3992 73.1041 68.1712 72.6171C72.6842 72.4131 75.2071 70.7061 79.6481 74.2631C86.9961 80.4241 94.4091 104.522 82.7251 109.972C78.9521 111.733 76.4952 104.533 72.6542 103.473C68.5082 102.489 66.1292 106.142 62.2832 106.408C48.9592 107.329 37.6061 86.0671 38.3641 73.3951Z" fill="#C17948"/>
<path d="M37.8031 76.7601C38.2581 69.1621 43.3851 66.8531 51.1201 70.4751C55.7231 72.6731 59.8991 77.1741 64.6721 76.6891C69.1851 76.4841 71.7081 74.7771 76.1491 78.3341C83.4961 84.4971 90.8071 105.424 81.9571 110.635C78.4071 112.81 72.9961 108.605 69.1551 107.545C65.0091 106.56 62.6301 110.214 58.7841 110.48C45.4601 111.4 37.0431 89.4331 37.8031 76.7601Z" fill="#F7B261"/>
<path d="M37.9092 76.7341C38.2472 74.2761 38.8691 71.5921 41.0141 70.0801C43.0751 68.6281 45.9521 69.0601 48.1991 69.7361C54.0811 71.5051 58.4211 77.3581 64.8941 77.0011C67.6911 76.8471 70.3902 75.9361 73.1282 76.9601C75.4652 77.8351 77.2591 79.7961 78.7201 81.7451C81.6741 85.6861 83.6662 90.4571 84.8402 95.2181C85.8642 99.3751 86.5052 104.737 83.9392 108.488C80.2442 113.887 73.8281 108.522 69.3841 107.225C66.9021 106.499 64.5581 107.892 62.4461 108.995C60.0611 110.238 57.6301 110.45 55.0481 109.75C50.6291 108.553 47.2971 104.866 44.8851 101.162C40.1371 93.8681 38.3202 85.2641 37.9462 76.6931C37.9382 76.5191 37.6812 76.6941 37.6672 76.7961C37.0092 81.3281 38.0322 86.1321 39.2962 90.4801C40.6842 95.2541 42.8002 99.9091 45.8312 103.87C48.3892 107.213 51.8591 110.03 56.1091 110.714C58.5061 111.1 60.6161 110.536 62.7381 109.431C63.9281 108.81 65.0832 108.157 66.4002 107.84C68.0012 107.456 69.5071 107.997 70.9611 108.615C73.4931 109.692 75.9201 111.149 78.6861 111.538C80.7091 111.821 82.4751 110.88 83.8161 109.429C86.5141 106.505 86.6042 102.002 86.1462 98.2901C85.5472 93.4461 83.7882 88.6931 81.4092 84.4521C79.2592 80.6181 76.0761 76.2761 71.3501 75.7981C69.6781 75.6291 67.9601 76.0451 66.3081 76.2391C64.0721 76.5031 62.1282 76.3031 60.0672 75.3601C56.0732 73.5361 52.9031 70.4601 48.6551 69.1031C46.0781 68.2801 43.1971 68.1161 40.8541 69.6471C38.5071 71.1821 37.6891 74.1671 37.6951 76.8151C37.6931 76.9461 37.8982 76.8131 37.9092 76.7341Z" fill="white"/>
<path d="M59.1152 90.0921C57.6162 86.2381 57.5461 87.0231 56.2611 83.1681C54.0041 76.6051 51.3011 67.6671 49.7291 63.8961C48.4631 60.8591 54.1562 57.0841 57.1542 50.2321L49.4451 33.6371C47.3601 42.5411 44.5751 40.8891 42.6641 52.1181C42.0211 55.7591 40.5221 59.9341 40.8431 63.1461C41.1651 66.3581 45.3401 76.8151 47.6951 81.0981C50.4791 86.6641 52.4062 89.5921 55.0472 94.5171" fill="#FF9178"/>
<path d="M50.1241 30.2821C46.0631 36.2371 43.9661 48.3101 41.9851 55.4021C40.7991 58.5741 51.1631 64.8771 53.4891 60.5781C54.6661 56.9371 56.2831 50.1761 59.6011 48.1421" fill="#C42C2C"/>
<path d="M90.4881 36.1731C93.5051 41.1481 97.6341 45.2861 101.302 53.0931C102.861 56.4101 92.1341 64.8291 90.0111 61.5471C86.4501 56.0441 82.3421 50.8461 78.3181 45.4811" fill="#C42C2C"/>
<path d="M87.0921 92.4051L131.233 96.6881L132.441 103.437L62.4601 97.0651" fill="#C17948"/>
<path d="M131.233 96.6881L133.706 95.2951L142.399 95.9581L144.325 96.8721L145.515 107.323L133.906 104.607L132.039 103.019" fill="#C17948"/>
<path d="M67.2731 27.6091C63.3131 31.3641 58.6342 22.1711 58.1242 19.0651C57.1992 13.8321 55.5121 6.90012 61.6791 3.51412C67.3561 0.398117 73.8471 2.87512 76.6871 9.49312C77.9911 12.5311 75.6312 16.0951 74.6982 21.4751C74.2182 24.2381 75.9571 27.7071 77.4381 29.1491C77.4381 29.1491 69.7041 34.0711 67.2731 27.6091Z" fill="#FF9178"/>
<path d="M75.8681 29.9641C71.5281 31.7961 68.3052 36.2331 67.9092 40.9541C65.8562 35.7061 64.7451 31.0251 65.0421 25.4101C67.4471 25.0391 70.0371 26.9821 72.4431 27.0751" fill="#FF9178"/>
<path d="M70.3951 14.2721C70.4981 13.9991 70.7081 13.4511 71.2291 13.3991C74.5611 12.5351 72.0171 19.8951 70.2951 17.1761C71.2991 20.5921 69.1621 23.3391 69.6171 25.5591C70.1291 28.0611 68.4861 30.2401 67.1611 31.8631C64.7241 34.8461 60.4701 33.1391 60.2941 30.2881C60.1831 28.5171 58.9931 26.7031 58.4281 25.4961C57.2321 22.9531 58.5571 19.9611 57.8371 17.4791C58.3211 21.7141 59.8681 20.1101 61.7761 20.0581C63.7801 20.0031 67.9481 21.0161 69.0191 17.5701C70.2381 13.6481 69.1971 6.93312 62.5721 9.39212C60.0681 10.3211 58.8231 8.2601 57.2101 10.5261C57.4971 8.9531 57.0891 6.34311 57.6401 4.96911C58.3451 3.21511 59.5661 1.9701 61.2791 1.1681C67.9201 -1.9359 78.3181 1.14112 78.1671 10.4611C78.1241 13.0821 75.3801 17.8851 74.8651 20.6001C74.3601 17.6411 72.0191 21.2111 70.8951 17.9061" fill="#191926"/>
<path d="M71.2462 12.7551C71.4292 11.1581 73.4432 11.5881 74.0302 12.5151C74.9262 14.0521 73.9422 17.9571 71.7242 16.9981C71.4102 16.8321 71.1412 16.6121 70.8782 16.4411C71.7972 16.2511 71.3642 13.4341 71.2462 12.7551C71.2862 12.6531 71.2662 12.4571 71.3582 12.3991Z" fill="#FF9178"/>
<path d="M92.3422 100.834L86.7752 95.8021L84.2062 97.8371L92.3422 100.834Z" fill="#C17948"/>
<path d="M63.2451 90.6981L131.171 97.8051L132.379 104.553L62.3981 98.1811" fill="#F7B261"/>
<path d="M131.171 97.8051L133.643 96.4121L144.325 96.8721L145.515 107.323L133.843 105.723L131.975 104.135" fill="#F7B261"/>
<path d="M119.485 103.379C119.235 103.156 118.719 103.257 118.66 102.561C118.553 101.33 117.642 100.313 117.161 100.848C116.841 101.277 116.841 103.365 116.893 103.792C116.733 102.989 116.572 100.634 115.715 100.099C114.591 99.4031 115.18 102.454 114.752 102.882C114.269 101.919 114.625 100.327 113.734 99.5641C112.984 98.9211 112.61 101.009 112.664 101.652C112.557 100.955 111.713 99.3291 111.057 100.421C110.736 100.955 110.736 101.652 110.896 102.348C111.271 104.597 114.234 105.514 116.197 105.828C117.628 106.057 119.644 105.495 120.304 103.454" fill="#FF9178"/>
<path d="M59.0751 91.7581C59.9791 95.5171 62.7802 98.7591 65.3312 98.9981C67.8832 99.2381 69.2182 96.3851 68.3142 92.6261C67.4112 88.8671 64.6111 85.6261 62.0581 85.3861C59.5091 85.1481 58.1721 87.9991 59.0751 91.7581Z" fill="#191926"/>
<path d="M58.6641 89.0051C59.5351 90.6221 61.2761 91.5561 62.5211 92.4271C64.6351 93.9191 65.5061 95.1631 63.8891 95.6611C63.0171 95.9091 61.6191 93.5201 61.3371 94.3541C61.2741 94.5421 61.2741 96.7521 63.0591 98.4811C64.3861 99.7661 63.7851 100.973 62.9131 100.699C63.4531 101.425 62.1041 102.481 61.5031 101.798C61.7101 102.566 60.7761 103.105 60.0931 102.566C60.1691 102.994 58.9741 102.878 58.3731 102.005C57.0871 100.058 55.3251 95.2041 54.4751 93.5261" fill="#FF9178"/>
<path d="M75.3111 199.24C76.6681 200.653 78.4031 205.501 77.9091 207.528C77.4371 209.716 72.7951 210.686 70.6231 211.349C70.1321 210.289 68.5631 210.128 67.4611 210.869" fill="#191926"/>
<path d="M95.9052 183.204C96.9532 184.795 97.7542 189.735 96.9232 191.585C96.0852 193.595 91.4772 193.702 89.2812 193.952C89.0002 192.85 87.5292 192.421 86.3422 192.935" fill="#191926"/>
<path d="M59.7761 15.0421C59.8101 15.5011 59.5931 15.8911 59.2891 15.9141C58.9861 15.9361 58.7151 15.5831 58.6801 15.1241C58.6461 14.6651 58.8651 14.2741 59.1661 14.2511C59.4691 14.2291 59.7431 14.5821 59.7761 15.0421Z" fill="#191926"/>
<path d="M65.2101 14.5001C65.2441 14.9591 65.0271 15.3491 64.7231 15.3721C64.4201 15.3951 64.1491 15.0411 64.1141 14.5821C64.0801 14.1221 64.2991 13.7321 64.6001 13.7091C64.9031 13.6871 65.1771 14.0411 65.2101 14.5001Z" fill="#191926"/>
<path d="M63.7801 12.4321C63.7801 12.4321 65.1961 12.1401 66.2381 12.6401" stroke="#191926" stroke-width="0.25" stroke-miterlimit="10" stroke-linecap="round"/>
<path d="M59.7801 12.8491C59.7801 12.8491 58.6551 12.5571 57.7801 13.4741" stroke="#191926" stroke-width="0.25" stroke-miterlimit="10" stroke-linecap="round"/>
<path d="M61.5691 15.1161C61.5691 15.1161 61.1111 18.5191 61.3191 18.9781C61.4431 19.2511 61.9212 19.1991 62.2882 19.1121" stroke="#191926" stroke-width="0.25" stroke-miterlimit="10" stroke-linecap="round"/>
<path d="M60.6891 21.3801C60.8331 20.8111 64.2291 20.9941 64.6051 21.2551C64.9811 21.5161 63.7801 23.5991 62.9901 23.5861C62.2611 23.5751 60.4811 22.2021 60.6891 21.3801Z" fill="white"/>
<path d="M92.0141 62.2641C92.0141 62.2641 91.0902 63.0041 88.8232 59.7511C86.5552 56.4981 81.1531 49.2331 81.1531 49.2331" stroke="#191926" stroke-width="0.25" stroke-miterlimit="10" stroke-linecap="round"/>
<path d="M55.9111 55.2401C56.1571 54.4741 53.6031 51.0421 54.0471 43.1751" stroke="#191926" stroke-width="0.25" stroke-miterlimit="10" stroke-linecap="round"/>
<path d="M72.4541 140.129C73.0581 138.579 77.3271 132.562 89.3251 122.268" stroke="#191926" stroke-width="0.25" stroke-miterlimit="10" stroke-linecap="round"/>
<path d="M36.7281 32.2351L29.7672 117.138" stroke="#191926" stroke-miterlimit="10"/>
<path d="M47.0701 22.2051L32.4781 32.6962L33.8191 34.9091L49.5541 27.5011" fill="#191926"/>
<path d="M46.2452 26.1301C47.2292 27.8421 49.1782 28.5671 50.5942 27.7531C52.0092 26.9381 52.3601 24.8901 51.3751 23.1781C50.3901 21.4671 48.4431 20.7401 47.0271 21.5561C45.6101 22.3711 45.2612 24.4181 46.2452 26.1301Z" fill="#A9A9B5"/>
<path d="M15.6982 202.653C15.8412 207.066 24.2611 210.375 34.5061 210.042C44.7511 209.706 52.9401 205.858 52.7951 201.446C52.6511 197.032 44.2311 193.725 33.9851 194.059C23.7401 194.393 15.5542 198.241 15.6982 202.653Z" fill="#191926"/>
<path d="M33.0361 79.3241L34.5491 198.184" stroke="#191926" stroke-width="3" stroke-miterlimit="10" stroke-linecap="round"/>
<path d="M29.6361 93.3611C29.7061 95.4881 31.4871 97.1581 33.6141 97.0881C35.7411 97.0201 37.4111 95.2381 37.3411 93.1101C37.2721 90.9821 35.4911 89.3141 33.3631 89.3831C31.2351 89.4531 29.5671 91.2341 29.6361 93.3611Z" fill="#191926"/>
</svg>
