<svg width="1034" height="657" viewBox="0 0 1034 657" fill="none" xmlns="http://www.w3.org/2000/svg">
<path d="M893.47 409.717C841.009 402.336 716.946 415.874 682.71 431.773C648.475 447.672 660.353 474.728 718.829 483.134C777.306 491.54 849.071 496.11 883.999 507.076C918.927 518.043 1010.91 515.014 1028.43 485.734C1062.38 429.001 931.814 415.112 893.47 409.717Z" fill="#FFC0DD"/>
<path d="M813.279 233.601C813.279 233.601 791.366 307.593 791.061 313.99C790.757 320.387 787.536 326.567 787.536 326.567C787.536 326.567 726.583 332.572 729.13 343.233C731.677 353.894 742.336 364.555 753.908 365.774C765.481 366.992 814.206 359.072 824.865 344.756C835.523 330.439 827.274 222.053 813.279 233.601Z" fill="#FFE2BD"/>
<path d="M712.454 386.155C725.301 367.301 807.539 347.07 807.539 347.07C807.539 347.07 816.146 368.863 848.251 371.355C857.527 372.074 884.441 361.924 901.552 365.173C916.148 367.945 940.293 358.524 952.278 367.306C977.201 385.567 1012.58 424.948 1011.76 445.368C975.084 453.483 889.016 422.911 889.016 422.911C889.016 422.911 750.773 384.89 705.617 414.897C700.236 400.848 707.817 392.96 712.454 386.155Z" fill="#C96B59"/>
<path d="M814.849 330.728C814.028 330.728 812.878 330.366 811.376 329.638C801.375 324.791 787.728 326.892 787.591 326.913C787.4 326.945 787.22 326.814 787.189 326.623C787.159 326.432 787.289 326.252 787.48 326.221C787.618 326.199 801.478 324.063 811.681 329.007C814.558 330.401 815.308 330.005 815.47 329.85C815.696 329.632 815.655 329.112 815.355 328.423C814.165 325.689 808.867 320.626 804.131 320.895C796.212 321.338 791.337 323.189 791.289 323.207C791.11 323.277 790.906 323.187 790.836 323.006C790.767 322.826 790.856 322.623 791.037 322.553C791.086 322.534 796.054 320.645 804.092 320.195C809.194 319.91 814.708 325.178 815.998 328.143C816.548 329.409 816.279 330.045 815.955 330.356C815.697 330.604 815.329 330.728 814.849 330.728Z" fill="#2E2E47"/>
<path d="M833.943 395.825L912.572 421.577L919.727 449.898C919.727 449.898 761.195 457.992 724.302 439.997C700.724 428.497 700.251 410.966 707.299 395.711C757.782 375.946 833.943 395.825 833.943 395.825Z" fill="#C96B59"/>
<path d="M788.552 473.81C788.552 473.81 778.544 486.873 774.082 485.653C765.643 483.347 764.73 483.446 764.124 476.845C763.518 470.244 765.953 448.874 771.081 444.582C774.988 441.313 790.863 440.519 793.783 439.802C796.704 439.085 801.381 437.393 807.068 439.496C812.755 441.599 811.476 448.249 808.544 453.559C805.613 458.869 788.552 473.81 788.552 473.81Z" fill="#9C6F43"/>
<path d="M799.384 468.195C799.384 468.195 783.077 479.407 781.976 480.223C780.876 481.038 777.21 485.848 773.275 480.995C773.275 480.995 771.249 478.99 771.592 476.298C771.935 473.606 775.432 462.143 775.432 462.143C775.432 462.143 771.533 461.966 772.314 456.937C773.094 451.907 775.019 449.808 777.774 448.615C780.53 447.421 793.446 448.361 795.991 445.641C798.537 442.922 802.508 439.507 817.895 449.065C828.002 455.343 827.437 469.011 815.493 467.91C810.441 467.445 801.965 467.213 799.384 468.195Z" fill="#CC8B70"/>
<path d="M784.035 479.098C784.035 479.098 789.664 468.827 790.021 461.154C790.378 453.48 786.266 445.229 786.266 445.229L798.249 442.244C798.249 442.244 804.092 455.971 798.012 469.913C797.741 470.535 796.667 471.884 796.217 472.392C794.887 473.892 791.378 477.039 784.035 479.098Z" fill="#2E2E47"/>
<path d="M807.902 434.845C807.902 434.845 864.806 421.913 919.727 420.603C955.273 419.755 989.988 427.699 1007.91 433.93C1008.6 435.127 1009.19 436.356 1009.67 437.621C1020.86 467.092 994.226 493.012 934.96 500.293C899.821 504.611 801.636 470.436 801.636 470.436L807.902 434.845Z" fill="#C96B59"/>
<path d="M912.57 393.546C912.57 393.546 950.86 391.509 953.723 367.645C954.934 357.552 941.907 329.714 932.365 298.328C919.344 255.504 904.366 207.41 863.063 201.075C791.489 190.098 806.041 314.688 803.895 332.327C801.748 349.965 801.98 362.438 819.158 368.643C836.336 374.847 874.174 395.336 912.57 393.546Z" fill="#FFE2BD"/>
<path d="M845.265 206.577C845.265 206.577 832.895 240.54 832.23 255.486C831.565 270.431 817.939 359.445 817.075 365.896C816.21 372.347 813.666 391.489 800.778 405.904C787.89 420.32 765.964 439.967 760.94 457.785C755.915 475.604 722.832 466.466 707.399 467.837C691.966 469.208 681.461 460.984 682.831 458.242C684.201 455.501 703.33 429.001 703.33 429.001C703.33 429.001 691.053 415.011 693.794 406.472C696.534 397.933 728.357 367.055 749.65 362.295C770.944 357.536 790.863 350.786 794.284 347.07C797.706 343.353 797.473 271.122 802.959 255.486C808.444 239.849 807.562 212.596 821.707 206.577C835.851 200.557 845.265 206.577 845.265 206.577Z" fill="#9E4F60"/>
<path d="M840.955 209.983C841.696 204.68 841.624 203.846 841.354 197.74C841.303 196.598 841.156 195.414 840.894 194.187C837.828 179.831 854.023 175.832 854.023 175.832C854.023 175.832 854.814 185.845 857.944 190.76C860.79 195.23 861.8 199.25 867.729 202.377C867.761 204.172 847.567 214.486 847.567 214.486C847.567 214.486 841.212 210.988 840.955 209.983Z" fill="#CC8B70"/>
<path d="M815.211 153.299C815.211 153.299 816.925 165.169 816.945 169.048C816.965 172.927 818.092 176.712 818.86 182.434C819.629 188.156 823.671 197.884 834.38 197.643C845.09 197.403 853.243 188.623 854.873 182.519C856.504 176.414 854.65 168.524 854.65 168.524C854.65 168.524 857.445 170.4 858.714 165.96C859.984 161.52 860.754 154.746 856.875 154.581C852.996 154.417 853.12 157.66 852.196 157.48C851.272 157.301 849.604 151.399 847.359 146.851C845.173 142.42 822.74 136.565 815.211 153.299Z" fill="#CC8B70"/>
<path d="M829.305 160.774C829.271 160.774 829.236 160.769 829.202 160.759C829.018 160.702 828.914 160.507 828.97 160.323C828.996 160.237 829.635 158.217 832.257 157.299C834.763 156.421 838.768 156.3 838.937 156.295C839.128 156.282 839.292 156.442 839.298 156.636C839.303 156.829 839.15 156.991 838.957 156.996C838.917 156.997 834.891 157.119 832.488 157.961C830.216 158.756 829.662 160.456 829.64 160.528C829.593 160.677 829.455 160.774 829.305 160.774Z" fill="#2E2E47"/>
<path d="M842.219 168.003C842.539 169.555 840.412 171.305 837.468 171.911C834.524 172.518 831.879 171.751 831.559 170.2C831.24 168.648 833.367 166.898 836.311 166.292C839.254 165.685 841.9 166.451 842.219 168.003Z" fill="#C96B59"/>
<path d="M849.684 239.582C849.684 239.582 845.649 243.093 846.563 246.824C847.477 250.556 850.75 253.046 851.74 256.218C852.73 259.389 855.851 261.827 858.744 260.151C861.637 258.476 865.064 251.336 862.703 247.9C860.343 244.464 851.663 238.051 849.684 239.582Z" fill="#FA634B"/>
<path d="M864.705 200.392C864.705 200.392 866.921 270.311 872.655 282.359C878.39 294.407 903.869 354.808 912.396 371.866C920.922 388.925 936.956 419.764 947.292 427.163C957.628 434.562 993.086 427.489 1011.75 445.368C1011.75 445.368 1013.98 428.118 1010.32 419.335C1006.67 410.551 975.304 376.74 971.04 372.475C966.777 368.211 957.641 360.39 957.336 358.513C957.032 356.636 939.284 315.381 938.565 311.183C937.846 306.985 906.441 250.937 900.522 237.534C894.602 224.132 889.949 206.822 884.51 203.902C879.071 200.981 864.705 200.392 864.705 200.392Z" fill="#9E4F60"/>
<path d="M807.902 435.196C807.739 435.196 807.593 435.082 807.559 434.916C807.52 434.727 807.641 434.542 807.831 434.502C808.243 434.417 849.323 425.963 873.346 423.669C889.4 422.136 918.765 422.337 938.194 422.469C948.232 422.537 956.161 422.591 958.524 422.386C959.286 422.32 959.592 422.209 959.707 422.149C958.62 420.801 943.649 417.247 923.23 417.298C898.939 417.363 865.238 420.854 864.9 420.889C864.724 420.907 864.559 420.79 864.521 420.614C864.483 420.439 864.583 420.264 864.753 420.208C865.164 420.071 906.253 406.578 943.054 409.897C943.247 409.915 943.39 410.085 943.372 410.278C943.355 410.471 943.184 410.61 942.992 410.595C912.404 407.836 878.82 416.745 868.306 419.848C877.575 418.959 903.498 416.65 923.228 416.597C935.538 416.559 944.988 417.854 949.52 418.626C952.065 419.06 960.376 420.596 960.446 422.158C960.476 422.833 959.467 423.007 958.585 423.084C956.189 423.293 948.245 423.239 938.19 423.17C918.772 423.038 889.43 422.838 873.412 424.367C849.427 426.658 808.384 435.103 807.972 435.189C807.949 435.193 807.925 435.196 807.902 435.196Z" fill="#2E2E47"/>
<path d="M895.024 333.369C895.024 333.369 906.741 374.861 912.396 382.248C918.052 389.635 924.955 397.554 927.188 402.834C929.422 408.114 926.424 408.114 928.837 410.957C931.249 413.8 934.685 415.715 935.593 418.268C936.501 420.821 943.227 426.188 946.272 429.234C949.318 432.28 970.37 431.736 970.37 431.736C970.37 431.736 932.515 381.309 928.837 377.654C925.158 373.998 901.404 326.073 898.968 327.089C896.532 328.104 895.024 333.369 895.024 333.369Z" fill="#2E2E47"/>
<path d="M1012.27 439.335C1007.65 436.023 999.719 430.95 989.921 427.112C974.086 420.908 964.95 423.04 957.945 414.207C950.941 405.373 927.385 364.86 918.052 349.63C908.718 334.4 889.34 288.633 884.51 269.633C880.48 253.776 873.662 219.224 873.641 201.187C868.916 200.565 864.705 200.392 864.705 200.392C864.705 200.392 864.96 208.451 865.522 219.567C871.747 246.587 881.554 287.269 891.147 324.472C899.4 343.445 908.074 363.222 912.396 371.866C920.923 388.924 936.956 419.764 947.292 427.163C957.628 434.562 993.087 427.489 1011.76 445.368C1011.76 445.368 1012.07 442.89 1012.27 439.335Z" fill="#FFC97D"/>
<path d="M848.461 229.233C848.461 229.233 845.602 226.855 842.656 228.151C839.711 229.448 838.132 232.511 835.66 233.789C833.187 235.067 831.631 237.997 833.433 240.142C835.235 242.286 841.623 244.076 844.114 241.629C846.606 239.181 850.011 230.645 848.461 229.233Z" fill="#FA634B"/>
<path d="M821.087 173.461C821.42 175.078 820.208 176.694 818.38 177.071C816.552 177.447 814.8 176.442 814.467 174.825C814.134 173.208 815.346 171.592 817.174 171.215C819.002 170.839 820.754 171.844 821.087 173.461Z" fill="#C96B59"/>
<path d="M854.633 157.651C854.633 157.651 855.913 164.071 852.581 164.513C850.827 164.746 848.348 155.952 847.516 153.864C846.126 150.381 846.046 145.373 846.046 145.373C846.046 145.373 854.875 144.553 854.633 157.651Z" fill="#2E2E47"/>
<path d="M831.662 165.091C830.843 165.091 830.444 164.885 830.415 164.87C830.245 164.778 830.181 164.566 830.272 164.395C830.363 164.226 830.573 164.161 830.742 164.25C830.77 164.263 831.816 164.742 834.17 163.855C837.108 162.747 837.767 162.063 837.773 162.056C837.903 161.917 838.123 161.904 838.265 162.032C838.407 162.159 838.424 162.374 838.3 162.518C838.232 162.599 837.54 163.334 834.417 164.511C833.22 164.962 832.31 165.091 831.662 165.091Z" fill="#2E2E47"/>
<path d="M896.266 341.557C896.266 341.557 901.172 372.612 898.714 391.056C897.496 400.195 890.948 403.612 881.356 406.472C871.763 409.333 846.395 412.831 837.503 406.472C828.611 400.114 896.266 341.557 896.266 341.557Z" fill="#2E2E47"/>
<path d="M817.264 168.656C816.778 168.656 816.523 168.577 816.475 168.562C816.292 168.5 816.194 168.301 816.256 168.117C816.318 167.936 816.514 167.837 816.697 167.897C816.718 167.903 817.427 168.105 818.901 167.704C820.441 167.286 821.565 166.836 821.576 166.831C821.754 166.759 821.959 166.846 822.032 167.026C822.104 167.205 822.017 167.409 821.837 167.482C821.79 167.5 820.666 167.951 819.085 168.38C818.292 168.596 817.69 168.656 817.264 168.656Z" fill="#2E2E47"/>
<path d="M832.753 203.936C831.292 207.405 830.017 211.056 829.305 214.486C826.796 226.568 816.143 265.106 815.939 274.118C815.737 283.13 807.079 363.133 802.958 368.532C798.837 373.932 766.606 405.7 752.125 429.915C744.695 442.339 737.849 457.287 732.942 468.9C745.764 469.377 758.036 468.082 760.939 457.785C765.964 439.967 787.889 420.32 800.777 405.904C813.665 391.489 816.209 372.347 817.074 365.896C817.939 359.445 831.564 270.431 832.229 255.486C832.895 240.54 845.265 206.577 845.265 206.577C845.265 206.577 840.539 203.556 832.753 203.936Z" fill="#FFC97D"/>
<path d="M832.23 164.71C832.23 164.71 833.107 166.226 834.915 166.112C836.723 165.998 836.499 163.245 836.499 163.245C836.499 163.245 834.607 164.563 832.23 164.71Z" fill="#2E2E47"/>
<path d="M817.777 168.304C817.777 168.304 818.227 169.983 819.511 170.077C820.794 170.171 821.02 167.411 821.02 167.411C821.02 167.411 819.436 168.04 817.777 168.304Z" fill="#2E2E47"/>
<path d="M824.484 153.996C824.484 153.996 816.566 164.677 816.262 164.743C815.957 164.809 809.867 156.661 809.41 153.996C808.953 151.33 800.668 142.215 813.459 129.878C826.249 117.542 850.573 127.753 858.034 136.891C865.495 146.029 861.13 160.014 859.747 160.424C858.363 160.835 830.955 156.356 824.484 153.996Z" fill="#515032"/>
<path d="M986.675 297.024C983.513 287.005 973.44 275.14 959.773 264.802C939.237 249.269 890.948 216.745 890.948 216.745C879.985 216.059 883.335 242.713 898.626 259.771C913.918 276.829 925.679 291.081 936.517 295.079C954.748 301.805 972.401 297.024 986.675 297.024Z" fill="#FFE2BD"/>
<path d="M817.777 180.649C817.777 180.649 815.301 185.903 815.211 189.101C815.12 192.3 817.129 208.084 815.211 210.472C813.293 212.86 814.172 214.612 815.94 214.231C817.709 213.851 826.678 209.967 829.883 205.778C829.883 205.778 834.383 211.834 835.067 210.71C835.752 209.586 835.676 208.824 835.676 208.824C835.676 208.824 841.69 216.668 848.01 216.744C848.01 216.744 847.629 206.692 849.836 202.123C852.044 197.554 857.195 185.979 856.98 182.247C856.765 178.516 855.508 173.089 854.119 169.101C852.73 165.113 854.202 161.074 852.286 160.847C850.369 160.62 849.507 165.326 849.443 168.304C849.38 171.282 847.24 175.879 845.265 177.121C843.289 178.363 840.015 177.121 840.015 177.121C840.015 177.121 826.007 178.897 823.494 179.354C820.982 179.811 817.777 180.649 817.777 180.649Z" fill="#2E2E47"/>
<path d="M854.153 281.105H844.706C843.425 281.105 842.378 282.153 842.378 283.434C842.378 284.715 843.425 285.763 844.706 285.763H854.153C855.434 285.763 856.481 284.715 856.481 283.434C856.481 282.153 855.434 281.105 854.153 281.105Z" fill="#82664B"/>
<path d="M855.883 271.789H846.436C845.155 271.789 844.108 272.837 844.108 274.118C844.108 275.399 845.155 276.447 846.436 276.447H855.883C857.164 276.447 858.211 275.399 858.211 274.118C858.211 272.837 857.164 271.789 855.883 271.789Z" fill="#82664B"/>
<path d="M857.612 262.473H848.165C846.885 262.473 845.837 263.521 845.837 264.802C845.837 266.083 846.885 267.131 848.165 267.131H857.612C858.893 267.131 859.941 266.083 859.941 264.802C859.941 263.521 858.893 262.473 857.612 262.473Z" fill="#82664B"/>
<path d="M853.488 290.421H844.041C842.76 290.421 841.712 291.469 841.712 292.75C841.712 294.031 842.76 295.079 844.041 295.079H853.488C854.768 295.079 855.816 294.031 855.816 292.75C855.816 291.469 854.768 290.421 853.488 290.421Z" fill="#82664B"/>
<path d="M852.29 298.328H842.843C841.563 298.328 840.515 299.376 840.515 300.657C840.515 301.938 841.563 302.986 842.843 302.986H852.29C853.571 302.986 854.619 301.938 854.619 300.657C854.619 299.376 853.571 298.328 852.29 298.328Z" fill="#82664B"/>
<path d="M850.56 306.525H841.114C839.833 306.525 838.785 307.572 838.785 308.853C838.785 310.134 839.833 311.182 841.114 311.182H850.56C851.841 311.182 852.889 310.134 852.889 308.853C852.889 307.572 851.841 306.525 850.56 306.525Z" fill="#82664B"/>
<path d="M859.342 253.157H849.895C848.615 253.157 847.567 254.205 847.567 255.486C847.567 256.767 848.615 257.815 849.895 257.815H859.342C860.623 257.815 861.671 256.767 861.671 255.486C861.671 254.205 860.623 253.157 859.342 253.157Z" fill="#82664B"/>
<path d="M910.9 202.584C910.9 202.584 873.778 192.203 866.195 202.584C858.611 212.965 854.619 238.917 854.619 241.312C854.619 243.708 854.619 243.708 854.619 243.708L833.863 361.888C833.863 361.888 823.085 363.485 819.892 375.463C816.698 387.44 829.472 404.609 838.652 407.403C847.833 410.198 886.951 402.612 890.144 396.624C893.337 390.635 897.329 358.295 897.329 350.709C897.329 343.123 900.522 252.89 900.522 252.89L906.11 251.293C906.11 251.293 916.089 206.976 910.9 202.584Z" fill="#9C6F43"/>
<path d="M857.812 242.111C857.812 242.111 862.336 243.042 864.199 241.312C866.062 239.583 866.061 239.583 866.061 239.583C866.061 239.583 872.182 243.176 873.912 243.043C875.641 242.91 875.774 235.324 876.306 229.202C876.839 223.08 877.371 218.555 875.641 215.228C873.911 211.901 871.384 206.577 871.384 206.577C871.384 206.577 865.928 213.764 863.134 216.958C860.34 220.152 857.812 242.111 857.812 242.111Z" fill="#2E2E47"/>
<path d="M898.777 208.098C898.19 208.136 897.61 208.295 897.109 208.604C896.329 209.084 895.48 210.029 895.482 211.867C895.486 214.798 895.333 216.159 898.26 216.026C901.187 215.893 909.703 215.494 909.703 215.494C909.703 215.494 911.565 219.885 917.819 217.357C924.073 214.828 924.339 207.908 920.48 204.846C916.622 201.785 910.526 203.516 909.782 207.375L898.777 208.098Z" fill="#FFC97D"/>
<path d="M888.151 230.988C887.564 231.027 886.984 231.185 886.483 231.495C885.703 231.975 884.855 232.92 884.857 234.758C884.86 237.689 884.707 239.05 887.634 238.917C890.561 238.784 899.077 238.385 899.077 238.385C899.077 238.385 900.94 242.776 907.193 240.248C913.447 237.719 913.713 230.799 909.854 227.737C905.996 224.676 899.9 226.407 899.156 230.266L888.151 230.988Z" fill="#FFC97D"/>
<path d="M898.194 248.233H888.747C887.466 248.233 886.419 249.281 886.419 250.562C886.419 251.843 887.466 252.89 888.747 252.89H898.194C899.475 252.89 900.522 251.843 900.522 250.562C900.522 249.281 899.474 248.233 898.194 248.233Z" fill="#FFC97D"/>
<path d="M872.211 256.568H855.654C854.817 256.568 854.135 255.887 854.135 255.05V254.724C854.135 253.887 854.817 253.206 855.654 253.206H872.211C873.049 253.206 873.73 253.887 873.73 254.724V255.05C873.73 255.887 873.048 256.568 872.211 256.568ZM855.654 253.907C855.202 253.907 854.836 254.274 854.836 254.724V255.05C854.836 255.501 855.202 255.867 855.654 255.867H872.211C872.662 255.867 873.029 255.5 873.029 255.05V254.724C873.029 254.273 872.662 253.907 872.211 253.907H855.654Z" fill="#2E2E47"/>
<path d="M841.58 322.628L864.864 323.826C864.864 323.826 861.138 332.609 853.222 333.275C844.078 334.043 842.511 330.081 841.58 322.628Z" fill="#2E2E47"/>
<path d="M832.067 382.599C832.045 382.599 832.022 382.596 831.999 382.592C831.809 382.554 831.685 382.37 831.723 382.18L859.606 240.964C859.644 240.775 859.827 240.651 860.018 240.689C860.208 240.726 860.331 240.91 860.294 241.1L832.411 382.316C832.377 382.483 832.231 382.599 832.067 382.599Z" fill="white"/>
<path d="M844.107 406.823C843.945 406.823 843.8 406.71 843.765 406.545C843.725 406.356 843.846 406.17 844.034 406.129C854.04 403.994 864.933 392.234 866.795 386.926C868.695 381.51 864.572 368.381 864.53 368.249L864.507 368.177L864.516 368.101C864.57 367.648 869.964 322.705 869.703 318.658C869.56 316.428 871.105 297.244 872.6 278.691C873.878 262.816 875.086 247.821 875.025 245.982C874.991 244.951 875.203 244.217 875.675 243.738C876.339 243.062 877.357 243.08 878.18 243.095C878.743 243.105 879.326 243.115 879.46 242.875C879.588 242.61 879.85 240.679 880.154 238.443C881.317 229.875 883.739 212.046 888.818 206.343C895.398 198.956 909.889 201.981 910.503 202.113C910.692 202.154 910.812 202.34 910.772 202.529C910.731 202.719 910.544 202.838 910.355 202.798C910.319 202.791 906.619 202.006 902.194 202.122C898.142 202.227 892.623 203.125 889.342 206.809C884.405 212.352 882.003 230.038 880.849 238.537C880.429 241.628 880.251 242.895 880.072 243.216C879.734 243.824 878.938 243.809 878.167 243.796C877.412 243.782 876.629 243.768 876.174 244.229C875.85 244.559 875.699 245.141 875.726 245.958C875.788 247.837 874.578 262.851 873.298 278.747C871.875 296.412 870.262 316.433 870.403 318.612C870.666 322.679 865.548 365.388 865.221 368.11C865.591 369.29 869.379 381.677 867.456 387.158C865.549 392.593 854.408 404.632 844.181 406.815C844.156 406.82 844.132 406.823 844.107 406.823Z" fill="#2E2E47"/>
<path d="M880.982 200.006C880.982 200.006 879.717 210.869 878.768 211.168C877.819 211.468 867.391 210.158 867.991 207.575C868.989 203.279 874.278 200.788 875.475 199.19C876.673 197.593 884.656 179.527 893.338 176.133C902.02 172.74 905.113 174.337 905.712 176.133C906.311 177.93 902.383 200.561 902.383 200.561L893.875 199.034L895.483 184.318C895.483 184.318 889.945 187.814 886.153 192.155C882.361 196.496 880.982 200.006 880.982 200.006Z" fill="#9C6F43"/>
<path d="M840.713 384.377C840.693 384.377 840.673 384.375 840.652 384.372C840.462 384.339 840.335 384.157 840.368 383.966L865.716 239.522C865.75 239.331 865.931 239.204 866.122 239.237C866.312 239.27 866.44 239.452 866.407 239.643L841.058 384.087C841.028 384.257 840.881 384.377 840.713 384.377Z" fill="white"/>
<path d="M845.265 384.378C845.245 384.378 845.225 384.376 845.205 384.373C845.014 384.34 844.887 384.158 844.92 383.967L869.754 241.677C869.787 241.487 869.966 241.357 870.159 241.392C870.35 241.426 870.477 241.607 870.444 241.798L845.61 384.088C845.58 384.258 845.433 384.378 845.265 384.378Z" fill="white"/>
<path d="M831.177 374.844C831.177 374.844 829.98 378.238 835.368 379.835C840.757 381.432 848.788 380.434 851.159 378.837C853.53 377.239 852.514 376.042 854.619 376.64C856.723 377.239 858.102 378.038 857.812 379.635C857.521 381.232 845.995 386.422 838.785 385.424C831.576 384.426 828.981 382.556 828.782 380.197C828.583 377.838 827.784 375.243 831.177 374.844Z" fill="#FFC97D"/>
<path d="M828.403 124.189C828.052 124.195 827.702 124.207 827.353 124.225C824.907 125.085 819.655 138.275 816.588 143.106C814.716 146.053 811.287 149.865 808.818 152.466C809.119 153.101 809.344 153.615 809.41 153.996C809.866 156.661 815.957 164.809 816.262 164.743C816.566 164.677 824.484 153.996 824.484 153.996C824.484 153.996 829.735 135.338 829.85 130.389C829.95 126.142 829.908 124.434 828.403 124.189Z" fill="#7C873E"/>
<path d="M725.375 347.07C725.375 347.07 727.262 352.219 732.21 355.036C737.159 357.854 745.077 359.606 747.437 357.93C749.797 356.255 750.167 354.232 749.031 351.664C747.894 349.097 727.829 343.139 725.375 347.07Z" fill="#CC8B70"/>
<path d="M839.233 130.452C839.233 130.452 836.764 129.852 836.531 130.452C836.297 131.053 838.833 132.155 839.233 131.787C839.634 131.42 840.034 130.82 839.233 130.452Z" fill="white"/>
<path d="M849.127 135.211C849.127 135.211 846.902 133.982 846.519 134.5C846.136 135.018 848.293 136.748 848.776 136.499C849.258 136.251 849.803 135.776 849.127 135.211Z" fill="white"/>
<path d="M851.969 146.202C851.969 146.202 849.745 144.973 849.361 145.491C848.978 146.009 851.135 147.739 851.618 147.49C852.101 147.241 852.645 146.767 851.969 146.202Z" fill="white"/>
<path d="M858.669 154.703C858.669 154.703 856.444 153.474 856.061 153.992C855.678 154.511 857.835 156.24 858.318 155.991C858.8 155.743 859.345 155.268 858.669 154.703Z" fill="white"/>
<path d="M840.397 143.588C840.397 143.588 838.172 142.359 837.789 142.877C837.406 143.395 839.563 145.125 840.046 144.876C840.528 144.627 841.073 144.153 840.397 143.588Z" fill="white"/>
<path d="M845.472 151.457C845.472 151.457 843.248 150.228 842.865 150.746C842.481 151.264 844.639 152.994 845.121 152.745C845.604 152.496 846.148 152.022 845.472 151.457Z" fill="white"/>
<path d="M831.749 148.353C831.749 148.353 829.525 147.124 829.142 147.642C828.758 148.16 830.915 149.89 831.398 149.641C831.882 149.392 832.426 148.918 831.749 148.353Z" fill="white"/>
<path d="M834.763 135.973C834.763 135.973 832.538 134.744 832.155 135.262C831.772 135.78 833.929 137.51 834.412 137.261C834.894 137.012 835.439 136.538 834.763 135.973Z" fill="white"/>
<path d="M809.905 139.072C809.905 139.072 812 137.634 811.709 137.059C811.418 136.484 808.905 137.638 808.911 138.181C808.917 138.725 809.097 139.424 809.905 139.072Z" fill="white"/>
<path d="M816.656 132.061C816.656 132.061 818.751 130.622 818.46 130.047C818.168 129.472 815.656 130.626 815.662 131.17C815.668 131.713 815.848 132.412 816.656 132.061Z" fill="white"/>
<path d="M817.519 137.94C817.519 137.94 819.614 136.501 819.322 135.926C819.031 135.352 816.519 136.506 816.525 137.049C816.531 137.592 816.711 138.291 817.519 137.94Z" fill="white"/>
<path d="M809.905 146.401C809.905 146.401 812 144.963 811.709 144.388C811.418 143.813 808.905 144.967 808.911 145.51C808.917 146.053 809.097 146.753 809.905 146.401Z" fill="white"/>
<path d="M859.633 143.588C859.633 143.588 857.409 142.359 857.025 142.877C856.642 143.395 858.799 145.125 859.282 144.876C859.765 144.627 860.309 144.153 859.633 143.588Z" fill="white"/>
<path d="M953.477 348.725C951.068 342.868 947.905 335.27 945.11 328.414L900.523 331.556C900.523 331.556 926.024 348.613 953.477 348.725Z" fill="#2E2E47"/>
<path d="M879.766 356.498C879.766 356.498 881.363 353.704 883.558 354.502C885.753 355.3 886.419 356.498 886.419 356.498C886.419 356.498 888.547 356.897 888.547 360.291C888.547 363.685 884.157 364.683 884.157 364.683C884.157 364.683 882.56 369.075 879.766 368.476C876.972 367.877 877.268 364.284 877.268 364.284L723.095 349.112C723.095 349.112 716.11 352.506 711.719 350.11C707.329 347.715 704.734 342.125 711.719 341.326C718.705 340.528 720.121 339.802 722.833 340.447C724.223 340.779 727.885 343.123 727.885 343.123L879.766 356.498Z" fill="#82664B"/>
<path d="M826.303 177.471C826.104 177.471 825.905 177.458 825.708 177.431C823.914 177.184 822.201 175.792 822.441 173.891C823.2 167.854 823.194 162.487 822.428 161.671C821.081 160.236 817.441 162.447 816.151 163.419C815.996 163.537 815.777 163.505 815.661 163.351C815.544 163.196 815.575 162.977 815.729 162.86C815.939 162.702 820.89 159.009 822.939 161.191C824.196 162.529 823.654 169.859 823.136 173.979C822.952 175.45 824.347 176.536 825.804 176.737C827.274 176.938 829.125 176.275 829.505 173.738C829.533 173.547 829.713 173.414 829.903 173.443C830.095 173.472 830.226 173.65 830.198 173.842C829.815 176.399 828.054 177.471 826.303 177.471Z" fill="#2E2E47"/>
<path d="M819.758 180.033C819.758 180.033 828.877 179.743 836.684 177.541C836.684 177.541 836.878 181.924 833.24 184.532C829.065 187.525 824.665 186.326 822.479 183.771C821.782 182.955 820.015 180.5 819.758 180.033Z" fill="white"/>
<path d="M823.711 176.179C823.711 176.179 819.498 175.949 817.899 177.447C816.3 178.944 812.367 176.99 812.012 177.751C811.656 178.513 814.575 181.044 816.986 181.746C819.397 182.447 825.792 180.163 825.792 180.163C825.792 180.163 829.142 180.34 832.872 180.036C836.603 179.731 839.981 180.125 843.291 175.708C846.602 171.291 844.851 168.626 844.394 169.102C843.937 169.577 840.739 173.53 838.379 174.143C836.019 174.756 829.544 175.306 828.951 175.941C828.358 176.577 826.236 177.878 823.711 176.179Z" fill="#2E2E47"/>
<path d="M725.375 341.624C725.375 341.624 726.094 338.334 730.155 337.217C734.216 336.1 737.844 338.849 741.499 339.501C745.153 340.153 748.173 342.576 745.839 344.302C743.504 346.028 738.073 344.222 734.944 343.744C733.065 343.458 726.788 344.381 725.375 341.624Z" fill="#CC8B70"/>
<path d="M748.03 357.786C751.124 355.51 753.076 350.49 751.649 349.668C750.223 348.846 748.41 351.785 748.41 351.785C748.41 351.785 750.372 347.483 748.373 346.945C746.374 346.407 745.748 349.199 745.748 349.199C745.748 349.199 746.786 345.966 744.328 346.245C741.87 346.524 739.995 350.867 739.995 350.867C739.995 350.867 740.319 345.671 738.075 346.701C735.831 347.732 731.682 352.076 733.461 354.367C735.241 356.658 745.019 360.001 748.03 357.786Z" fill="#CC8B70"/>
<path d="M891.473 302.187C891.473 302.187 886.642 296.827 883.778 295.576C880.914 294.324 876.282 294.549 872.179 293.115C867.843 291.599 864.576 287.631 862.959 289.91C861.343 292.189 865.445 296.497 868.072 297.752C870.699 299.008 873.422 299.023 872.027 300.436C870.631 301.851 854.564 297.047 853.068 299.442C851.572 301.837 855.659 305.316 855.659 305.316C855.659 305.316 855.013 308.88 855.393 310.294C855.774 311.708 857.811 313.093 857.811 313.093C857.811 313.093 857.617 315.464 858.468 316.752C859.32 318.039 860.761 319.197 864.202 319.609C867.642 320.021 889.459 321.761 893.671 319.081C897.884 316.4 896.837 304.222 891.473 302.187Z" fill="#CC8B70"/>
<path d="M932.517 290.421C932.517 290.421 895.212 293.582 890.949 298.328C886.685 303.074 885.163 322.824 890.949 329.83C896.735 336.836 972.107 344.335 982.156 333.369C987.951 327.046 990.422 308.724 986.115 295.079C974.124 287.224 932.517 290.421 932.517 290.421Z" fill="#FFE2BD"/>
<path d="M837.479 244.845C837.479 244.845 832.63 254.798 831.26 256.218C829.889 257.638 825.017 261.52 825.169 262.473C825.321 263.425 829.703 263.882 829.72 265.405C829.737 266.928 831.655 265.962 832.066 267.131C832.478 268.299 836.084 268.451 837.479 268.908C838.873 269.365 841.771 270.279 842.378 268.908C842.985 267.538 842.228 261.19 842.378 257.815C842.528 254.44 846.449 249.109 844.108 246.215C841.766 243.321 837.834 244.12 837.479 244.845Z" fill="#FA634B"/>
<path d="M980.532 302.992C979.325 302.992 977.817 302.268 976.29 300.919C970.651 295.941 929.214 291.16 928.796 291.113C928.604 291.091 928.466 290.917 928.488 290.725C928.51 290.532 928.683 290.393 928.876 290.416C930.591 290.612 970.952 295.271 976.754 300.394C978.859 302.253 980.465 302.515 981.27 302.142C981.722 301.932 981.963 301.515 981.951 300.97C981.927 299.966 980.975 298.415 978.369 297.348C971.937 294.715 940.699 290.384 940.384 290.341C940.202 290.316 940.071 290.156 940.082 289.973C940.093 289.79 940.243 289.646 940.426 289.643C941.561 289.626 968.312 289.218 975.607 291.161C978.748 291.998 979.673 291.344 979.882 291.123C980.073 290.922 980.116 290.653 980.009 290.323C979.644 289.199 977.732 287.773 974.783 287.225C968.348 286.027 934.847 287.218 934.509 287.23C934.325 287.24 934.179 287.11 934.151 286.936C934.123 286.761 934.229 286.593 934.399 286.544C935.003 286.369 949.247 282.264 955.552 281.961C955.736 281.956 955.909 282.101 955.919 282.294C955.928 282.487 955.779 282.652 955.586 282.661C951.041 282.88 942.013 285.187 937.42 286.432C945.827 286.165 969.467 285.523 974.911 286.536C978.278 287.162 980.259 288.826 980.675 290.107C980.862 290.683 980.761 291.215 980.391 291.606C979.632 292.407 977.869 292.49 975.426 291.839C970.045 290.405 953.326 290.278 945.095 290.306C954.127 291.626 973.574 294.628 978.634 296.7C981.55 297.894 982.621 299.68 982.651 300.954C982.67 301.77 982.264 302.452 981.565 302.778C981.256 302.921 980.909 302.992 980.532 302.992Z" fill="#2E2E47"/>
<path d="M772.891 379.278C772.891 379.278 759.086 377.045 725.375 397.724C720.287 400.846 705.721 413.579 698.03 421.751C700.619 425.912 703.33 429.002 703.33 429.002C703.33 429.002 735.941 400.318 745.686 393.657C755.431 386.995 772.891 379.278 772.891 379.278Z" fill="#2E2E47"/>
<path d="M932.697 383.792C932.596 383.792 932.496 383.748 932.426 383.663C932.304 383.514 932.325 383.293 932.475 383.17C940.763 376.375 952.709 366.485 956.112 363.441C954.98 363.874 953.203 364.607 951.359 365.367C943.491 368.61 930.321 374.037 925.514 374.045C925.216 374.046 924.436 374.046 924.334 373.504C924.233 372.972 924.045 371.983 940.729 364.907C948.852 361.462 957.126 358.219 957.209 358.187C957.388 358.116 957.592 358.205 957.663 358.385C957.734 358.566 957.645 358.769 957.464 358.839C945.491 363.528 926.461 371.47 925.088 373.314C925.17 373.329 925.31 373.347 925.512 373.344C930.182 373.336 943.271 367.942 951.092 364.719C957.287 362.166 957.316 362.192 957.581 362.454C957.681 362.553 957.715 362.728 957.662 362.859C957.357 363.622 940.258 377.697 932.92 383.713C932.854 383.766 932.775 383.792 932.697 383.792Z" fill="#2E2E47"/>
<path d="M48.5078 481.09C48.5078 481.09 -0.909222 485.19 0.992347 498.73C2.89392 512.271 286.785 521.068 311.941 512.865C337.097 504.662 337.216 486.048 295.084 481.09C252.952 476.132 105.056 475.587 48.5078 481.09Z" fill="#C96B59"/>
<path d="M215.963 333.65C215.963 333.65 230.397 381.241 234.05 391.551C237.702 401.862 263.833 441.415 263.833 441.415L229.195 459.84C229.195 459.84 198.58 396.623 197.749 367.211C196.919 337.8 196.309 321.555 215.963 333.65Z" fill="#FFC97D"/>
<path d="M223.121 318.555C209.298 296.49 194.314 272.772 194.314 272.772C194.314 272.772 181.94 291.856 182.615 307.876C183.024 317.56 190.227 332.079 199.253 345.223C205.026 340.696 216.29 330.886 223.121 318.555Z" fill="#FA634B"/>
<path d="M223.121 318.555C216.29 330.886 205.026 340.696 199.253 345.223C200.717 347.354 202.226 349.451 203.765 351.483C214.732 343.165 224.254 327.441 226.388 323.774C225.311 322.053 224.219 320.309 223.121 318.555Z" fill="#FFC97D"/>
<path d="M226.388 323.774C224.254 327.44 214.732 343.164 203.765 351.483C208.433 357.649 213.347 363.238 217.917 367.51C231.752 380.441 245.458 372.234 248.162 365.173C249.391 361.964 238.564 343.243 226.388 323.774Z" fill="#82664B"/>
<path d="M246.939 441.819C229.594 434.662 213.447 408.781 197.375 388.752C194.182 375.707 190.098 363.026 189.474 358.237C188.641 351.846 204.175 279.673 193.022 271.354C181.87 263.036 163.366 257.424 146.814 258.257C136.348 258.784 114.21 266.574 107.489 272.999C80.3158 298.973 69.3577 379.658 68.3437 398.144C68.1846 401.048 68.3125 403.994 68.7593 406.916C51.9041 426.519 51.183 485.471 55.784 488.638C60.5398 491.91 94.1731 502.436 125.096 498.041C156.019 493.646 270.598 503.45 270.598 494.323C270.598 485.195 273.978 452.975 246.939 441.819Z" fill="#FA634B"/>
<path d="M145.74 258.176C145.74 258.176 138.534 259.809 137.117 262.911C135.701 266.013 161.523 288.137 164.119 285.28C166.716 282.422 170.694 265.196 170.011 263.482C169.328 261.768 168.92 257.114 145.74 258.176Z" fill="#FFC97D"/>
<path d="M52.5723 312.179C50.5803 313.816 48.623 315.46 46.7204 317.1C48.4783 324.894 54.5996 339.929 75.8978 348.054C77.7916 346.384 79.8712 344.526 82.0482 342.545C66.8584 336.294 56.2535 318.962 52.5723 312.179Z" fill="#FFC97D"/>
<path d="M110.357 270.756C110.357 270.756 78.4416 290.921 52.5723 312.18C56.2535 318.962 66.8584 336.294 82.0482 342.546C92.7487 332.811 105.869 320.026 111.579 311.076C123.971 291.653 110.357 270.756 110.357 270.756Z" fill="#FA634B"/>
<path d="M179.02 263.781C179.02 263.781 115.635 352.584 109.382 361.757C103.129 370.93 90.6243 399.078 90.6243 399.078L142.809 395.563C142.809 395.563 181.507 291.26 196.986 277.005C196.986 277.005 195.721 268.361 179.02 263.781Z" fill="#FFC97D"/>
<path d="M142.809 489.264C142.769 489.264 142.729 489.257 142.69 489.243C136.574 487.037 131.362 481.156 128.067 476.611C124.264 471.364 120.949 464.977 119.418 459.942C116.641 450.812 107.251 423.045 107.157 422.765C107.095 422.582 107.194 422.383 107.377 422.321C107.561 422.259 107.759 422.357 107.821 422.541C107.916 422.82 117.309 450.598 120.089 459.738C121.599 464.703 124.873 471.011 128.635 476.199C131.872 480.665 136.98 486.438 142.928 488.584C143.11 488.649 143.204 488.85 143.139 489.032C143.086 489.175 142.952 489.264 142.809 489.264Z" fill="#2E2E47"/>
<path d="M113.965 402.17C113.965 402.17 112.625 427.833 144.287 476.743C152.332 489.172 203.505 491.797 224.464 495.056C245.423 498.314 257.079 496.14 262.655 491.09C268.232 486.04 252.685 468.967 243.559 460.516C234.434 452.065 189.327 435.162 180.702 429.414C172.077 423.667 121.59 388.617 113.965 402.17Z" fill="#2E2E47"/>
<path d="M312.492 181.958L319.121 187.219L313.045 192.463L306.556 187.211C306.556 187.211 300.696 189.114 298.336 186.449C295.977 183.785 299.707 178.913 302.674 176.934C305.642 174.955 308.002 173.052 311.122 175.487C314.242 177.924 312.492 181.958 312.492 181.958Z" fill="#2E2E47"/>
<path d="M294.624 197.698L301.253 202.96L295.178 208.203L288.688 202.951C288.688 202.951 283.437 204.549 281.078 201.885C278.719 199.221 281.382 194.121 284.35 192.141C287.318 190.162 290.134 188.792 293.254 191.228C296.375 193.664 294.624 197.698 294.624 197.698Z" fill="#2E2E47"/>
<path d="M278.947 211.361L285.576 216.622L279.5 221.866L273.011 216.613C273.011 216.613 267.759 218.212 265.4 215.548C263.041 212.883 265.705 207.783 268.673 205.804C271.641 203.825 274.457 202.455 277.577 204.891C280.698 207.326 278.947 211.361 278.947 211.361Z" fill="#2E2E47"/>
<path d="M256.607 229.803L263.235 235.064L257.16 240.308L250.67 235.055C250.67 235.055 245.419 236.654 243.06 233.99C240.701 231.325 243.364 226.225 246.332 224.246C249.301 222.267 252.116 220.897 255.237 223.333C258.357 225.768 256.607 229.803 256.607 229.803Z" fill="#2E2E47"/>
<path d="M237.961 245.977L244.59 251.238L238.515 256.481L232.025 251.229C232.025 251.229 226.774 252.828 224.415 250.163C222.055 247.499 224.719 242.399 227.687 240.42C230.655 238.441 233.471 237.071 236.591 239.506C239.712 241.942 237.961 245.977 237.961 245.977Z" fill="#2E2E47"/>
<path d="M219.634 265.366L224.308 269.075L220.025 272.772L215.449 269.069C215.449 269.069 211.747 270.196 210.084 268.317C208.42 266.439 210.298 262.843 212.391 261.448C214.483 260.052 216.468 259.086 218.668 260.804C220.868 262.522 219.634 265.366 219.634 265.366Z" fill="#2E2E47"/>
<path d="M208.538 275.265L213.211 278.974L208.928 282.671L204.353 278.968C204.353 278.968 200.65 280.095 198.987 278.216C197.324 276.338 199.202 272.742 201.294 271.347C203.387 269.951 205.372 268.985 207.572 270.703C209.772 272.42 208.538 275.265 208.538 275.265Z" fill="#2E2E47"/>
<path d="M190.773 289.896L195.592 293.946L192.443 296.664L187.695 292.619C187.695 292.619 184.973 293.447 183.75 292.066C182.527 290.685 183.908 288.041 185.447 287.015C186.985 285.989 188.445 285.279 190.062 286.542C191.68 287.805 190.773 289.896 190.773 289.896Z" fill="#2E2E47"/>
<path d="M178.049 300.81L182.869 304.86L179.719 307.578L174.972 303.533C174.972 303.533 172.25 304.361 171.027 302.981C169.804 301.6 171.185 298.956 172.724 297.929C174.262 296.904 175.722 296.193 177.339 297.456C178.957 298.719 178.049 300.81 178.049 300.81Z" fill="#2E2E47"/>
<path d="M164.015 313.797L168.454 317.527L165.553 320.03L161.181 316.305C161.181 316.305 159.269 316.33 158.142 315.058C157.016 313.786 157.692 312.089 159.109 311.144C160.526 310.199 161.871 309.545 163.361 310.708C164.851 311.871 164.015 313.797 164.015 313.797Z" fill="#2E2E47"/>
<path d="M157.4 319.145L161.839 322.875L158.938 325.378L154.566 321.653C154.566 321.653 152.654 321.678 151.527 320.406C150.401 319.134 151.078 317.437 152.495 316.492C153.912 315.547 155.257 314.893 156.746 316.056C158.236 317.219 157.4 319.145 157.4 319.145Z" fill="#2E2E47"/>
<path d="M151.289 325.032L155.728 328.762L152.827 331.265L148.454 327.539C148.454 327.539 146.542 327.564 145.416 326.292C144.289 325.02 144.966 323.323 146.383 322.378C147.8 321.433 149.145 320.779 150.635 321.942C152.124 323.106 151.289 325.032 151.289 325.032Z" fill="#2E2E47"/>
<path d="M143.808 331.07L148.247 334.8L145.346 337.303L140.974 333.578C140.974 333.578 139.062 333.603 137.935 332.331C136.809 331.059 137.485 329.362 138.903 328.417C140.32 327.472 141.665 326.817 143.154 327.981C144.644 329.144 143.808 331.07 143.808 331.07Z" fill="#2E2E47"/>
<path d="M136.35 337.362L140.789 341.091L137.888 343.595L133.516 339.869C133.516 339.869 131.603 339.894 130.477 338.622C129.35 337.35 130.027 335.653 131.444 334.708C132.861 333.763 134.206 333.109 135.696 334.272C137.186 335.435 136.35 337.362 136.35 337.362Z" fill="#2E2E47"/>
<path d="M126.191 345.977L130.63 349.707L127.73 352.21L123.357 348.485C123.357 348.485 121.445 348.509 120.319 347.238C119.192 345.965 119.869 344.268 121.286 343.324C122.703 342.379 124.047 341.724 125.537 342.887C127.027 344.05 126.191 345.977 126.191 345.977Z" fill="#2E2E47"/>
<path d="M112.314 365.489C112.314 365.489 93.4404 385.28 81.8726 388.021C70.3048 390.761 45.9516 373.71 16.119 392.892C-13.7136 412.075 7.29097 443.133 8.81306 445.264C10.3352 447.396 31.0352 477.236 43.2119 485.152C55.3883 493.069 77.6108 496.114 93.1359 474.495C108.661 452.877 102.268 428.822 103.182 420.601C104.095 412.38 112.314 402.636 112.314 402.636L293.745 245.825L343.79 199.842C345.001 198.729 344.923 196.794 343.625 195.782L327.126 182.92C326.125 182.139 324.712 182.175 323.752 183.004L112.314 365.489Z" fill="#FFD3B5"/>
<path d="M81.416 389.848C81.416 389.848 62.2378 388.934 56.7584 388.173C51.279 387.412 22.9685 390.469 17.4891 395.563C12.0097 400.657 5.16022 406.747 3.79054 414.664C2.42052 422.58 8.9655 442.677 11.7055 445.265C14.4453 447.853 26.9261 446.178 28.6006 451.202C30.2752 456.226 29.0572 465.361 31.3404 468.254C33.6235 471.146 43.7414 484.696 54.512 487.437C65.2827 490.177 81.1123 481.042 82.7864 478.606C84.4606 476.17 80.0467 467.34 84.613 465.513C89.1793 463.686 94.2021 464.752 96.4853 461.25C98.7684 457.749 98.9205 440.849 99.3771 433.542C99.8336 426.234 101.812 417.252 102.878 412.837C103.943 408.422 93.125 390.486 81.416 389.848Z" fill="#774237"/>
<path d="M321.143 188.124L279.75 224.662L295.572 238.203L339.103 201.064L321.143 188.124Z" fill="#774237"/>
<path d="M37.7325 422.428L47.068 413.902L65.9418 433.999L56.4035 442.524L37.7325 422.428Z" fill="#FFD3B5"/>
<path d="M54.5117 416.429L60.701 410.723L71.3746 422.128L65.0641 427.833L54.5117 416.429Z" fill="#FFD3B5"/>
<path d="M305.472 217.318C306.23 214.107 304.242 210.888 301.031 210.13C297.82 209.371 294.602 211.36 293.844 214.572C293.086 217.784 295.074 221.002 298.285 221.761C301.496 222.519 304.714 220.53 305.472 217.318Z" fill="#2E2E47"/>
<path d="M332.049 196.518C332.807 193.306 330.819 190.088 327.608 189.329C324.397 188.571 321.179 190.56 320.421 193.771C319.663 196.983 321.651 200.202 324.862 200.96C328.073 201.718 331.291 199.73 332.049 196.518Z" fill="#2E2E47"/>
<path d="M102.877 377.668L263.235 239.278C263.235 239.278 266.115 238.517 267.373 239.278C267.373 239.278 275.07 239.43 277.33 243.085C279.59 246.738 278.525 250.266 278.525 250.266C278.525 250.266 278.722 252.371 278.776 253.437C278.829 254.503 269.24 262.724 269.24 262.724L119.753 393.654L102.877 377.668Z" fill="#774237"/>
<path d="M31.4413 444.047C31.4413 444.047 29.6301 442.607 27.3823 445.468C25.1349 448.329 28.7016 449.223 29.4118 448.716C30.1224 448.208 32.7605 445.569 31.4413 444.047Z" fill="#FFD3B5"/>
<path d="M36.8194 451.659C36.8194 451.659 35.0685 448.265 33.3695 448.85C31.8835 449.362 30.8929 451.904 29.2272 454.024C25.657 458.569 31.9367 457.642 33.065 456.836C34.1932 456.029 38.7473 455.617 36.8194 451.659Z" fill="#FFD3B5"/>
<path d="M133.458 385.275C133.169 385.275 132.885 385.138 132.707 384.882C125.907 375.066 113.113 365.256 112.984 365.159C112.583 364.853 112.506 364.279 112.811 363.879C113.118 363.477 113.691 363.399 114.091 363.705C114.625 364.113 127.241 373.786 134.208 383.842C134.495 384.256 134.392 384.825 133.977 385.113C133.819 385.223 133.638 385.275 133.458 385.275Z" fill="white"/>
<path d="M139.639 379.934C139.31 379.934 138.993 379.756 138.829 379.445C132.942 368.236 120.329 359.051 120.202 358.96C119.794 358.664 119.701 358.093 119.996 357.684C120.293 357.275 120.864 357.184 121.271 357.477C121.802 357.861 134.356 367 140.446 378.595C140.68 379.042 140.509 379.594 140.062 379.829C139.927 379.901 139.782 379.934 139.639 379.934Z" fill="white"/>
<path d="M148.091 372.629C147.769 372.629 147.458 372.459 147.291 372.157C141.983 362.544 127.798 352.649 127.655 352.55C127.241 352.263 127.137 351.694 127.425 351.279C127.712 350.865 128.281 350.76 128.696 351.048C129.292 351.462 143.377 361.289 148.89 371.273C149.134 371.715 148.973 372.271 148.532 372.515C148.392 372.592 148.24 372.629 148.091 372.629Z" fill="white"/>
<path d="M152.127 368.481C151.805 368.481 151.494 368.311 151.327 368.009C146.023 358.402 131.835 348.502 131.692 348.403C131.277 348.115 131.174 347.547 131.461 347.131C131.75 346.716 132.319 346.613 132.732 346.901C133.329 347.314 147.413 357.142 152.926 367.126C153.17 367.568 153.01 368.123 152.568 368.367C152.428 368.445 152.276 368.481 152.127 368.481Z" fill="white"/>
<path d="M171.983 351.931C171.662 351.931 171.35 351.761 171.183 351.459C165.876 341.847 151.69 331.952 151.548 331.853C151.133 331.566 151.03 330.997 151.317 330.582C151.603 330.167 152.174 330.066 152.587 330.351C153.184 330.764 167.269 340.592 172.782 350.576C173.026 351.017 172.866 351.573 172.424 351.817C172.284 351.895 172.132 351.931 171.983 351.931Z" fill="white"/>
<path d="M178.107 346.564C177.785 346.564 177.473 346.394 177.306 346.092C171.999 336.479 157.814 326.585 157.671 326.486C157.257 326.199 157.153 325.63 157.44 325.215C157.727 324.8 158.298 324.698 158.711 324.984C159.308 325.397 173.393 335.225 178.906 345.208C179.149 345.65 178.989 346.206 178.548 346.45C178.408 346.528 178.256 346.564 178.107 346.564Z" fill="white"/>
<path d="M184.195 341.235C183.873 341.235 183.562 341.065 183.395 340.764C178.088 331.151 163.902 321.255 163.76 321.157C163.345 320.87 163.242 320.301 163.529 319.885C163.816 319.471 164.385 319.367 164.8 319.655C165.397 320.069 179.482 329.896 184.994 339.88C185.238 340.322 185.078 340.878 184.637 341.122C184.496 341.199 184.344 341.235 184.195 341.235Z" fill="white"/>
<path d="M192.317 333.867C191.995 333.867 191.684 333.697 191.517 333.395C186.213 323.788 172.025 313.888 171.882 313.789C171.467 313.501 171.364 312.933 171.651 312.517C171.94 312.103 172.508 311.999 172.923 312.287C173.519 312.7 187.603 322.528 193.116 332.511C193.36 332.953 193.199 333.509 192.758 333.753C192.618 333.83 192.466 333.867 192.317 333.867Z" fill="white"/>
<path d="M196.836 330.118C196.515 330.118 196.203 329.948 196.036 329.646C190.729 320.033 176.544 310.139 176.401 310.04C175.986 309.752 175.883 309.184 176.17 308.769C176.457 308.354 177.027 308.252 177.44 308.538C178.038 308.951 192.123 318.779 197.635 328.762C197.879 329.204 197.719 329.76 197.277 330.004C197.137 330.081 196.986 330.118 196.836 330.118Z" fill="white"/>
<path d="M204.11 324.517C203.788 324.517 203.477 324.347 203.31 324.045C198.003 314.432 183.817 304.538 183.675 304.439C183.26 304.151 183.156 303.583 183.443 303.168C183.731 302.753 184.301 302.651 184.714 302.937C185.311 303.35 199.396 313.178 204.909 323.162C205.153 323.604 204.992 324.159 204.551 324.403C204.41 324.48 204.259 324.517 204.11 324.517Z" fill="white"/>
<path d="M219.37 311.076C219.049 311.076 218.737 310.906 218.57 310.604C213.263 300.991 199.078 291.096 198.935 290.998C198.521 290.71 198.417 290.141 198.705 289.726C198.991 289.312 199.561 289.208 199.976 289.496C200.572 289.909 214.657 299.737 220.17 309.721C220.413 310.163 220.253 310.719 219.812 310.963C219.671 311.04 219.52 311.076 219.37 311.076Z" fill="white"/>
<path d="M227.418 304.094C227.096 304.094 226.785 303.924 226.618 303.623C221.31 294.009 207.125 284.114 206.983 284.016C206.568 283.729 206.464 283.16 206.751 282.745C207.039 282.329 207.609 282.228 208.022 282.514C208.619 282.927 222.704 292.755 228.217 302.739C228.461 303.181 228.3 303.737 227.859 303.981C227.718 304.058 227.567 304.094 227.418 304.094Z" fill="white"/>
<path d="M236.791 295.851C236.47 295.851 236.158 295.681 235.991 295.38C230.687 285.773 216.499 275.872 216.356 275.773C215.942 275.486 215.838 274.917 216.126 274.502C216.414 274.087 216.983 273.984 217.397 274.271C217.993 274.684 232.078 284.512 237.591 294.496C237.835 294.938 237.674 295.494 237.233 295.738C237.092 295.815 236.941 295.851 236.791 295.851Z" fill="white"/>
<path d="M246.352 287.876C246.03 287.876 245.718 287.706 245.551 287.405C240.244 277.792 226.059 267.896 225.916 267.798C225.501 267.511 225.398 266.942 225.685 266.526C225.972 266.113 226.542 266.008 226.956 266.296C227.553 266.71 241.638 276.537 247.151 286.521C247.395 286.963 247.234 287.519 246.793 287.763C246.652 287.84 246.501 287.876 246.352 287.876Z" fill="white"/>
<path d="M255.675 279.918C255.354 279.918 255.042 279.748 254.875 279.446C249.568 269.833 235.382 259.938 235.24 259.84C234.825 259.552 234.722 258.983 235.009 258.569C235.296 258.154 235.866 258.052 236.279 258.338C236.877 258.751 250.962 268.578 256.474 278.563C256.718 279.005 256.557 279.561 256.116 279.805C255.976 279.882 255.825 279.918 255.675 279.918Z" fill="white"/>
<path d="M266.266 270.756C265.944 270.756 265.632 270.586 265.465 270.285C260.158 260.672 245.973 250.776 245.83 250.678C245.416 250.391 245.313 249.821 245.6 249.406C245.887 248.992 246.456 248.888 246.871 249.176C247.467 249.59 261.552 259.417 267.065 269.401C267.309 269.843 267.148 270.399 266.707 270.643C266.567 270.72 266.416 270.756 266.266 270.756Z" fill="white"/>
<path d="M277.331 261.137C277.009 261.137 276.698 260.967 276.531 260.665C271.224 251.052 257.038 241.157 256.895 241.058C256.481 240.771 256.378 240.202 256.665 239.787C256.952 239.373 257.522 239.268 257.936 239.556C258.533 239.97 272.617 249.798 278.13 259.782C278.374 260.223 278.214 260.779 277.773 261.023C277.632 261.101 277.48 261.137 277.331 261.137Z" fill="white"/>
<path d="M156.772 364.943C156.45 364.943 156.139 364.773 155.972 364.472C150.665 354.859 136.479 344.964 136.337 344.865C135.922 344.578 135.818 344.009 136.106 343.594C136.393 343.179 136.963 343.077 137.376 343.363C137.973 343.776 152.058 353.604 157.571 363.588C157.815 364.03 157.654 364.585 157.213 364.829C157.073 364.907 156.921 364.943 156.772 364.943Z" fill="white"/>
<path d="M162.026 360.187C161.705 360.187 161.393 360.017 161.226 359.716C155.919 350.102 141.733 340.207 141.591 340.109C141.176 339.822 141.073 339.253 141.36 338.838C141.647 338.423 142.217 338.321 142.63 338.607C143.227 339.02 157.312 348.848 162.825 358.832C163.069 359.274 162.909 359.83 162.467 360.074C162.327 360.151 162.176 360.187 162.026 360.187Z" fill="white"/>
<path d="M123.729 392.771C121.933 387.201 121.447 380.409 121.447 380.409C121.447 380.409 115.663 379.8 109.879 378.277C107.479 377.646 105.291 375.808 103.549 373.874C97.0894 379.628 88.3405 386.489 81.873 388.021C81.3765 388.138 80.8544 388.217 80.3113 388.266C79.0534 390.367 78.1956 392.137 78.5246 392.74C79.4378 394.415 90.3969 396.546 90.3969 396.546C90.3969 396.546 88.2658 403.245 87.9617 404.463C87.6572 405.681 96.7898 403.245 96.7898 403.245L99.5295 417.252L104.673 415.094C107.304 408.577 112.315 402.636 112.315 402.636L123.729 392.771Z" fill="#FFD3B5"/>
<path d="M109.916 487.205C108.946 487.277 107.979 487.34 107.016 487.392C100.637 487.737 79.7913 483.523 74.0631 485.204C71.9114 485.835 65.6317 497.211 70.6832 502.774C72.9793 505.302 78.3711 505.131 86.2304 504.839C89.8857 504.703 98.3017 504.523 109.299 504.297C105.773 496.422 108.187 490.194 109.916 487.205Z" fill="#CC8B70"/>
<path d="M216.097 465.683C212.05 465.466 207.492 465.535 203.45 465.699C196.797 465.968 190.232 467.281 183.976 469.56C169.505 474.83 138.301 485.109 109.917 487.206C108.187 490.193 105.773 496.422 109.3 504.297C145.932 503.544 211.233 502.276 224.869 500.405C242.6 497.971 248.909 495.206 253.469 484.956C258.029 474.706 226.4 466.237 216.097 465.683Z" fill="#FFD3B5"/>
<path d="M258.036 477.788C234.701 460.155 179.626 407.559 162.444 393.229C153.575 385.832 139.397 384.103 131.888 386.055C104.193 393.256 113.857 420.218 121.773 427.231C148.243 450.683 215.469 480.069 244.286 493.904C249.616 488.615 254.928 481.899 258.036 477.788Z" fill="#FFD3B5"/>
<path d="M299.138 496.787C295.707 491.316 278.369 486.379 267.218 483.504C265.497 483.06 262.294 481.006 258.036 477.788C254.928 481.899 249.616 488.615 244.286 493.904C250.53 496.901 254.972 499.169 256.805 500.488C267.093 507.893 278.604 512.493 283.11 512.319C287.615 512.144 302.57 502.258 299.138 496.787Z" fill="#CC8B70"/>
<path d="M115.167 356.636C115.167 356.636 119.88 352.533 123.81 351.355C127.74 350.177 136.512 338.697 137.735 341.499C138.957 344.301 130.586 350.028 130.977 351.87C131.368 353.712 158.201 350.165 157.978 351.403C157.755 352.64 144.183 355.06 144.534 356.436C144.885 357.813 160.883 354.156 161.363 355.943C161.843 357.731 145.504 361.229 145.543 361.694C145.583 362.16 160.298 361.612 160.362 362.919C160.427 364.226 142.91 365.996 142.667 367.002C142.424 368.007 153.937 367.825 153.219 369.855C152.501 371.884 136 370.709 133.267 371.645C130.535 372.58 118.369 371.693 115.291 367.454C112.212 363.216 111.935 357.755 115.167 356.636Z" fill="#82664B"/>
<path d="M220.283 356.393C220.283 356.393 232.068 290.561 249.869 289.333C267.669 288.105 258.036 363.518 245.437 370.764C227.872 380.866 218.424 367.958 220.283 356.393Z" fill="#82664B"/>
<path d="M46.7204 317.101C28.5435 332.778 12.8948 350.316 11.7063 364.943C9.89789 387.196 45.2684 373.973 54.5117 366.084C58.6295 362.571 66.8983 355.989 75.8978 348.054C54.5993 339.929 48.478 324.895 46.7204 317.101Z" fill="#82664B"/>
<path d="M255.073 298.487C255.073 298.487 261.116 289.985 263.049 282.603C263.613 280.448 261.241 266.688 260.108 266.562C258.975 266.436 258.615 271.751 258.615 271.751C258.615 271.751 257.276 264.782 256.646 264.697C256.016 264.61 255.387 266.814 255.387 266.814C255.387 266.814 254.632 264.737 253.876 265.146C253.121 265.555 252.491 277.765 252.176 278.302C251.862 278.84 251.862 275.465 251.736 274.602C251.61 273.74 251.861 271.096 250.728 270.907C249.595 270.718 249.462 280.89 248.958 283.031C248.455 285.172 245.376 286.118 244.118 292.493C243.272 296.782 245.252 304.014 249.47 305.153C253.688 306.292 255.073 298.487 255.073 298.487Z" fill="#82664B"/>
<path d="M32.7153 346.738C54.9924 346.782 121.437 345.35 125.531 363.35C128.377 375.859 35.6579 393.565 18.4656 379.934C0.215899 365.464 20.0427 346.714 32.7153 346.738Z" fill="#82664B"/>
<path d="M221.366 366.373C221.233 366.373 221.105 366.296 221.047 366.167C220.694 365.387 219.667 360.445 221.088 350.514C222.441 341.059 227.265 325.841 227.314 325.688C227.373 325.504 227.569 325.403 227.754 325.46C227.939 325.519 228.04 325.716 227.982 325.901C227.933 326.053 223.127 341.216 221.782 350.613C220.399 360.28 221.371 365.183 221.685 365.878C221.765 366.055 221.687 366.262 221.511 366.342C221.463 366.363 221.414 366.373 221.366 366.373Z" fill="#2E2E47"/>
<path d="M81.7538 348.296C81.7339 348.296 81.7139 348.295 81.6932 348.291C69.7193 346.203 54.9234 345.987 44.6188 346.173C33.4462 346.374 25.0008 347.08 24.9167 347.087C24.7268 347.105 24.5547 346.96 24.5382 346.768C24.5217 346.575 24.6647 346.405 24.8578 346.389C24.9419 346.382 33.4063 345.675 44.6009 345.472C54.9381 345.284 69.7838 345.502 81.8137 347.6C82.0044 347.634 82.1319 347.815 82.0986 348.006C82.0692 348.177 81.9213 348.296 81.7538 348.296Z" fill="#2E2E47"/>
<path d="M78.4738 346.119C78.3743 346.119 78.2755 346.076 78.2061 345.994C78.081 345.847 78.0989 345.626 78.2468 345.501C97.1083 329.51 111.76 310.07 111.906 309.875C112.022 309.721 112.242 309.689 112.397 309.805C112.551 309.921 112.583 310.141 112.467 310.296C112.321 310.491 97.6234 329.992 78.6998 346.035C78.6343 346.091 78.5537 346.119 78.4738 346.119Z" fill="#2E2E47"/>
<path d="M174.33 215.478L181.156 226.235C181.156 226.235 189.676 231.192 191.019 237.199C192.362 243.207 186.399 252.759 178.755 253.026C171.11 253.292 162.837 241.179 164.962 231.863C167.086 222.548 165.342 207.353 174.33 215.478Z" fill="#2E2E47"/>
<path d="M174.199 230.289C174.199 230.289 184.597 235.202 183.39 243.7C182.468 250.191 179.987 253.17 176.328 254.033C172.67 254.897 167.06 253.288 167.06 253.288C167.06 253.288 165.082 256.834 156.01 257.087C150.05 257.254 137.629 251.926 135.37 249.165C133.11 246.404 150.92 221.116 174.199 230.289Z" fill="#2E2E47"/>
<path d="M165.033 263.967C163.003 261.598 158.975 255.782 159.189 249.224C159.543 238.437 146.467 236.579 146.467 236.579C146.467 236.579 149.069 249.241 147.138 254.528C146.622 255.941 142.02 261.87 142.02 261.87L161.333 274.969C161.333 274.969 165.223 265.888 165.033 263.967Z" fill="#82664B"/>
<path d="M159.456 252.708C159.253 251.582 159.15 250.416 159.189 249.224C159.225 248.137 159.119 247.144 158.908 246.231L150.371 243.958C150.371 243.958 153.113 251.957 159.456 252.708Z" fill="#2E2E47"/>
<path d="M141.455 233.582C141.455 233.582 140.298 234.505 138.527 232.772C137.121 231.397 136.5 224.926 137.931 223.624C139.362 222.322 140.922 223.88 141.328 223.783C141.734 223.686 140.697 216.157 143.172 211.725C145.648 207.293 150.264 203.19 157.549 203.872C164.834 204.554 168.396 208.642 170.715 211.806C173.034 214.97 173.07 221.353 173.242 224.393C173.414 227.434 174.108 228.357 174.626 230.003C175.822 233.802 176.26 236.479 175.001 240.721C173.743 244.963 169.144 249.07 162.057 248.796C154.97 248.521 143.67 244.849 141.455 233.582Z" fill="#82664B"/>
<path d="M165.623 233.581C164.939 233.581 164.178 233.42 163.548 233.175C162.963 232.947 161.952 232.435 161.758 231.578C161.716 231.39 161.834 231.203 162.022 231.16C162.209 231.119 162.397 231.236 162.44 231.424C162.528 231.814 163.037 232.225 163.802 232.524C164.862 232.938 166.118 233.003 166.6 232.67C167.597 231.981 167.451 231.698 166.506 230.31C166.207 229.87 165.869 229.372 165.515 228.754C164.359 226.733 163.583 222.168 164.878 220.002C165.371 219.177 166.138 218.759 167.088 218.779C167.807 218.752 171.547 218.651 172.411 219.356C172.561 219.478 172.583 219.698 172.461 219.848C172.339 219.997 172.118 220.019 171.97 219.897C171.484 219.501 168.824 219.414 167.092 219.477C166.359 219.462 165.844 219.747 165.478 220.36C164.361 222.228 165.069 226.565 166.122 228.407C166.462 229.001 166.793 229.487 167.084 229.916C167.962 231.207 168.596 232.139 166.997 233.244C166.655 233.481 166.163 233.581 165.623 233.581Z" fill="#2E2E47"/>
<path d="M153.402 221.387C153.271 221.387 153.146 221.314 153.086 221.188C153.004 221.014 153.078 220.805 153.252 220.722C153.362 220.67 155.988 219.441 159.307 219.546C159.5 219.552 159.651 219.714 159.645 219.906C159.639 220.099 159.484 220.256 159.285 220.244C156.137 220.149 153.577 221.342 153.552 221.354C153.503 221.377 153.452 221.387 153.402 221.387Z" fill="#2E2E47"/>
<path d="M168.642 236.002C168.642 236.002 168.22 238.462 164.999 238.975C161.779 239.488 159.597 236.434 159.597 236.434L168.642 236.002Z" fill="white"/>
<path d="M157.253 224.812C158.086 224.823 158.782 225.398 158.906 226.144C159.024 226.849 159.042 227.723 158.588 228.263C157.73 229.282 156.245 228.561 155.788 228.086C155.331 227.611 155.937 225.64 156.109 225.344C156.313 224.994 156.632 224.803 157.253 224.812Z" fill="#2E2E47"/>
<path d="M153.874 226.194C153.779 226.194 153.685 226.156 153.616 226.081C153.486 225.938 153.496 225.717 153.638 225.587C153.681 225.548 154.705 224.626 156.314 224.535L156.445 224.527C157.17 224.484 158.263 224.419 158.945 224.994C159.092 225.118 159.111 225.339 158.986 225.486C158.862 225.634 158.641 225.653 158.495 225.528C158.026 225.133 157.1 225.188 156.487 225.225L156.353 225.233C154.99 225.309 154.119 226.094 154.11 226.102C154.042 226.164 153.958 226.194 153.874 226.194Z" fill="#2E2E47"/>
<path d="M169.963 224.101C170.796 224.112 171.492 224.642 171.617 225.33C171.735 225.979 171.754 226.785 171.301 227.282C170.444 228.221 168.958 227.555 168.5 227.116C168.043 226.678 168.647 224.862 168.819 224.59C169.024 224.268 169.343 224.092 169.963 224.101Z" fill="#2E2E47"/>
<path d="M166.715 225.633C166.623 225.633 166.532 225.597 166.463 225.526C166.329 225.388 166.333 225.167 166.471 225.033C166.521 224.985 167.689 223.855 169.316 223.95C170.699 224.028 171.257 224.309 171.752 224.615C171.916 224.717 171.967 224.932 171.865 225.096C171.764 225.26 171.548 225.311 171.385 225.209C171.034 224.993 170.597 224.722 169.276 224.648C167.98 224.574 166.966 225.526 166.956 225.535C166.889 225.601 166.802 225.633 166.715 225.633Z" fill="#2E2E47"/>
<path d="M157.574 229.458C157.574 229.458 152.693 228.185 151.331 229.762C149.969 231.339 155.4 232.741 158.096 232.339C160.792 231.938 158.805 229.715 157.574 229.458Z" fill="#774237"/>
<path d="M173.606 229.166C173.606 229.166 169.986 228.569 169.279 230.211C168.571 231.853 172.597 232.503 174.423 231.799C176.25 231.096 174.51 229.257 173.606 229.166Z" fill="#774237"/>
<path d="M141.46 232.251C141.473 232.815 141.027 233.282 140.463 233.295C139.9 233.309 139.432 232.862 139.419 232.299C139.406 231.735 139.852 231.267 140.416 231.255C140.979 231.242 141.446 231.688 141.46 232.251Z" fill="#2E2E47"/>
<path d="M177 211.153C175.054 203.948 174.826 202.332 170.628 200.93C166.43 199.529 160.079 197.312 157.836 195.453C155.592 193.595 151.037 194.045 150.262 195.516C150.262 195.516 146.61 192.304 142.222 195.189C137.833 198.073 122.751 224.451 120.189 223.855C117.627 223.259 115.824 224.158 114.328 226.779C112.832 229.4 111.8 233.898 115.203 239.308C117.246 242.555 125.989 246.422 125.989 246.422C125.989 246.422 123.706 248.6 126.572 251.832C129.439 255.064 145.017 255.459 147.024 246.972C148.475 240.834 149.057 229.459 149.734 223.501C151.794 222.188 160.431 214.052 163.008 209.28C163.008 209.28 170.793 216.272 172.797 218.248C176.936 222.327 180.843 226.076 181.156 226.235C181.469 226.393 178.947 218.358 177 211.153Z" fill="#2E2E47"/>
<path d="M165.466 215.483C165.459 215.125 165.352 214.772 165.126 214.494C164.852 214.159 164.373 213.87 163.6 214.247C162.195 214.931 162.663 217.996 164.213 217.671C165.348 217.434 165.478 216.152 165.466 215.483Z" fill="#774237"/>
<path d="M244.286 494.254C244.236 494.254 244.184 494.243 244.136 494.22L189.305 468.149C189.131 468.066 189.056 467.857 189.139 467.682C189.223 467.508 189.431 467.433 189.606 467.516L244.437 493.587C244.611 493.67 244.686 493.879 244.603 494.054C244.542 494.18 244.417 494.254 244.286 494.254Z" fill="#2E2E47"/>
<path d="M197.375 389.102C197.309 389.102 197.241 389.083 197.182 389.043C183.018 379.649 156.695 378.992 156.431 378.987C156.237 378.983 156.084 378.823 156.088 378.629C156.092 378.436 156.257 378.292 156.445 378.286C156.712 378.292 183.236 378.952 197.569 388.459C197.73 388.566 197.774 388.784 197.667 388.945C197.6 389.047 197.488 389.102 197.375 389.102Z" fill="#2E2E47"/>
<path d="M243.926 440.734C243.892 440.734 243.858 440.729 243.823 440.718C234.381 437.816 213.357 423.394 198.287 407.343C186.103 394.365 167.53 387.078 160.11 384.547C159.825 384.45 159.652 384.39 159.601 384.368C159.424 384.291 159.344 384.086 159.42 383.909C159.496 383.731 159.702 383.65 159.88 383.725C159.927 383.745 160.083 383.798 160.336 383.884C167.805 386.432 186.506 393.771 198.797 406.862C213.793 422.835 234.67 437.171 244.029 440.048C244.214 440.105 244.318 440.301 244.261 440.486C244.215 440.637 244.076 440.734 243.926 440.734Z" fill="#2E2E47"/>
<path d="M425.009 216.157C425.009 216.157 456.232 217.688 471.725 193.563C484.159 174.201 502.254 104.916 491.995 98.5751C481.736 92.2346 427.152 148.025 423.576 175.92C420.001 203.815 425.009 216.157 425.009 216.157Z" fill="#FFA982"/>
<path d="M462.012 71.0154C462.012 71.0154 460.403 67.8562 458.317 65.2932C456.232 62.7301 451.584 61.8361 452.299 63.803C453.014 65.7698 456.232 66.6043 456.53 67.6175C456.828 68.6308 456.828 68.8691 456.828 68.8691C456.828 68.8691 455.04 67.975 453.967 68.8691C452.895 69.7631 452.225 70.7168 452.225 70.7168C452.225 70.7168 450.571 69.5248 449.319 71.2534C448.068 72.9819 449.438 74.2335 451.822 74.2934C454.206 74.353 462.012 71.0154 462.012 71.0154Z" fill="#82664B"/>
<path d="M440.463 86.6473C440.463 86.6473 430.012 85.5587 424.529 109.401C419.047 133.242 391.159 186.172 405.222 206.914C414.599 220.745 438.415 217.643 445.059 206.914C451.702 196.186 463.382 108.73 464.812 98.5751C466.243 88.42 440.463 86.6473 440.463 86.6473Z" fill="#FFA982"/>
<path d="M513.365 12.8879C513.365 12.8879 509.73 3.47933 504.151 1.57764C498.572 -0.32369 491.833 1.08978 491.998 3.20736C492.163 5.32494 494.38 7.31704 494.503 9.14372C494.626 10.9701 494.245 13.0126 495.607 14.1261C496.969 15.2392 506.375 15.814 509.097 18.0399C511.819 20.2657 515.029 18.1166 513.365 12.8879Z" fill="#515032"/>
<path d="M566.157 656.143C645.286 656.143 709.433 650.3 709.433 643.092C709.433 635.883 645.286 630.04 566.157 630.04C487.028 630.04 422.881 635.883 422.881 643.092C422.881 650.3 487.028 656.143 566.157 656.143Z" fill="#F2836D"/>
<path d="M467.373 620.364C467.373 620.364 440.837 635.184 440.987 637.804C441.352 644.136 451.563 646.297 465.892 645.709C480.222 645.122 494.292 639.951 494.292 639.951L501.321 638.107C504.035 637.395 506.03 635.081 506.324 632.29C506.663 629.068 506.797 624.641 505.808 620.479C505.397 618.747 502.547 614.678 499.462 613.639C492.282 611.22 480.519 613.754 467.373 620.364Z" fill="#2E2E47"/>
<path d="M479.363 616.025C479.363 616.025 482.521 612.74 486.086 615.368C488.379 617.059 496.033 623.536 496.989 621.596C500.07 615.346 502.542 615.968 502.523 615.622C502.503 615.275 505.198 598.792 500.163 597.594C495.128 596.395 481.216 590.846 480.305 592.816C479.393 594.786 480.356 615.51 479.363 616.025Z" fill="white"/>
<path d="M646.058 622.029C646.058 622.029 671.449 638.102 671.181 644.442C670.913 650.783 661.28 650.332 647.097 647.764C632.914 645.196 619.065 638.046 619.065 638.046L611.514 634.965C609.207 634.024 607.596 631.891 607.347 629.412C607.012 626.074 606.857 621.214 607.987 616.843C608.424 615.156 611.316 611.45 614.389 610.829C621.541 609.383 633.149 613.558 646.058 622.029Z" fill="#2E2E47"/>
<path d="M634.256 616.004C634.256 616.004 629.383 613.676 627.355 615.429C625.327 617.181 617.618 621.271 616.704 619.185C613.759 612.464 611.299 612.75 611.324 612.404C611.349 612.058 603.951 595.595 608.958 595.082C613.965 594.569 626.753 598.923 627.623 601.033C628.492 603.143 633.281 615.349 634.256 616.004Z" fill="white"/>
<path d="M611.569 436.544C596.972 368.504 573.744 296.895 573.744 296.895H511.755H489.752H477.458H445.708C445.708 296.895 431.919 570.027 469.998 610.548C472.456 613.163 471.604 611.731 484.304 611.731C500.817 611.731 526.474 613.473 529.17 607.176C557.535 540.94 520.565 436.307 521.305 402.18C533.734 434.497 545.141 496.356 550.623 522.582C554.058 539.013 560.956 580.043 572.791 595.041C580.122 604.331 611.412 613.522 616.234 613.829C628.282 614.595 634.256 609.878 634.256 609.878C634.256 609.878 647.098 572.155 639.143 536.317C633.806 512.275 612.668 441.665 611.569 436.544Z" fill="#2E2E47"/>
<path d="M569.056 217.309C564.149 178.448 573.104 95.4155 519.773 85.925C512.925 84.7064 503.719 85.646 497.717 88.12C465.336 101.471 450.945 170.243 446.56 224.403C442.099 279.504 433.911 359.98 434.921 389.049C435.133 395.123 440.218 399.879 446.291 399.686L553.931 396.597C562.584 396.322 569.391 389.109 569.166 380.453L567.423 313.349C567.423 313.349 576.908 342.127 580.894 351.396C586.532 364.507 591.752 371.321 595.078 374.7C596.19 375.83 598.087 374.784 597.735 373.238C593.463 354.488 577.038 280.511 569.056 217.309Z" fill="#FFA982"/>
<path d="M535.143 91.5284C535.143 91.5284 532.209 120.547 532.388 139.144C532.567 157.74 524.312 219.968 535.143 225.869C545.975 231.77 573.326 223.544 573.326 223.544C573.326 223.544 565.818 157.383 565.639 152.197C565.46 147.011 559.024 115.54 553.483 107.493C547.941 99.4467 535.143 91.5284 535.143 91.5284Z" fill="#774237"/>
<path d="M539.446 38.781C539.446 38.781 535.467 61.3401 527.706 61.6833C515.245 62.2342 523.474 36.7574 525.975 34.732C528.477 32.7069 538.126 35.7974 539.446 38.781Z" fill="#2E2E47"/>
<path d="M526.035 58.502C526.035 58.502 527.332 81.0047 529.56 88.405C530.863 92.7341 506.961 90.7248 506.961 90.7248C506.961 90.7248 509.526 80.0212 510.304 76.7513C511.518 71.654 512.152 63.2948 512.841 61.9756C513.53 60.656 524.358 56.2972 526.035 58.502Z" fill="#82664B"/>
<path d="M523.27 64.1664L511.756 68.0472C511.461 70.1953 511.131 72.5932 510.731 74.7203C512.456 74.2219 515.005 73.3261 517.809 71.8029C522.896 69.0394 523.27 64.1664 523.27 64.1664Z" fill="#2E2E47"/>
<path d="M499.797 26.9118C499.797 26.9118 495.427 37.8817 494.097 41.2207C492.767 44.5593 490.801 47.6446 489.474 52.8267C488.146 58.0089 488.128 67.7654 497.41 71.2804C506.692 74.7953 518.474 70.6484 521.995 65.972C525.515 61.2956 525.766 58.8164 525.766 58.8164C525.766 58.8164 528.627 59.9565 531.26 56.5845C533.892 53.2123 537.011 48.6406 533.736 47.1515C530.462 45.6623 529.246 47.3074 528.514 46.8315C527.783 46.3559 527.07 36.1234 523.095 33.6182C519.12 31.1126 503.827 22.8067 499.797 26.9118Z" fill="#82664B"/>
<path d="M515.121 42.4993C515.028 42.4993 514.936 42.4625 514.867 42.3896C514.846 42.3678 512.802 40.2173 511.097 39.4364C509.508 38.7088 508.153 39.4988 508.096 39.5328C507.93 39.6317 507.715 39.578 507.616 39.413C507.516 39.2475 507.569 39.033 507.734 38.9328C507.803 38.8904 509.454 37.9129 511.389 38.7993C513.219 39.6373 515.289 41.8158 515.376 41.9083C515.509 42.0489 515.503 42.2707 515.362 42.4036C515.294 42.4674 515.208 42.4993 515.121 42.4993Z" fill="#2E2E47"/>
<path d="M514.178 51.1956C513.817 52.7069 511.402 53.4243 508.785 52.798C506.167 52.1717 504.339 50.4389 504.7 48.9277C505.062 47.4164 507.476 46.699 510.094 47.3253C512.711 47.9516 514.54 49.6843 514.178 51.1956Z" fill="#774237"/>
<path d="M497.186 45.9332C496.906 47.1038 495.422 47.7522 493.873 47.3814C492.323 47.0106 491.293 45.7608 491.573 44.5902C491.853 43.4196 493.337 42.7712 494.887 43.142C496.436 43.5128 497.466 44.7623 497.186 45.9332Z" fill="#774237"/>
<path d="M526.31 114.688C526.31 114.688 549.336 339.237 545.867 341.025C542.399 342.813 505.229 346.311 502.361 343.847C499.494 341.383 500.318 295.606 500.442 286.666C500.566 277.725 505.848 148.978 506.961 138.965C508.075 128.951 526.31 114.688 526.31 114.688Z" fill="#FA634B"/>
<path d="M499.473 42.4589C499.361 42.4589 499.25 42.4053 499.183 42.3061C499.173 42.2918 498.201 40.8885 497.035 40.7602C496.549 40.7073 496.109 40.8786 495.676 41.2841C495.535 41.4159 495.314 41.4093 495.181 41.2673C495.049 41.1261 495.056 40.9042 495.197 40.7721C495.781 40.2257 496.423 39.986 497.115 40.0638C498.602 40.2296 499.715 41.8428 499.762 41.9115C499.871 42.0713 499.829 42.289 499.67 42.398C499.609 42.4393 499.541 42.4589 499.473 42.4589Z" fill="#2E2E47"/>
<path d="M445.059 91.1906C445.059 91.1906 449.17 93.4564 453.55 93.4564C457.93 93.4564 457.572 87.1086 461.416 80.671C463.436 77.2882 468.816 74.0929 467.297 72.2666C465.777 70.4403 458.562 76.9066 456.178 77.1841C453.795 77.4617 445.417 79.2404 445.059 81.4757C444.701 83.711 445.059 91.1906 445.059 91.1906Z" fill="#82664B"/>
<path d="M445.585 87.3904C448.266 87.3904 459.976 88.4632 459.976 89.2678C459.976 90.0725 459.082 95.0794 456.668 95.5263C454.255 95.9735 444.196 94.1854 443.594 93.291C442.992 92.3973 442.903 87.3904 445.585 87.3904Z" fill="#FFE2BD"/>
<path d="M531.66 45.3886C531.66 45.3886 527.172 51.2871 524.066 51.0572C520.961 50.8273 523.972 40.4293 524.124 38.3517C524.276 36.2744 523.095 33.6178 523.095 33.6178C523.095 33.6178 537.569 37.6154 531.66 45.3886Z" fill="#2E2E47"/>
<path d="M501.546 52.8726C500.383 52.8726 499.111 52.4559 497.897 51.2846C497.125 50.5395 496.754 49.7415 496.793 48.9126C496.849 47.7543 497.676 46.5763 499.397 45.2053C501.565 43.4792 501.448 40.5804 500.689 38.6223C499.886 36.5506 496.049 36.8352 496.01 36.839C495.82 36.8573 495.648 36.7111 495.633 36.518C495.617 36.3252 495.76 36.156 495.953 36.1402C496.134 36.1255 500.351 35.8107 501.342 38.3689C502.187 40.5485 502.298 43.7904 499.834 45.7534C498.304 46.9727 497.538 48.0168 497.493 48.9455C497.464 49.5729 497.755 50.1729 498.383 50.7799C500.795 53.1085 503.474 52.0108 504.677 50.9944C504.826 50.8693 505.046 50.8886 505.171 51.0361C505.295 51.184 505.277 51.4052 505.129 51.5299C504.352 52.1864 503.039 52.8726 501.546 52.8726Z" fill="#2E2E47"/>
<path d="M497.025 40.6887C497.718 40.9501 498.094 41.7198 497.89 42.4327C497.737 42.9657 497.447 43.5472 496.901 43.7049C495.828 44.014 495.504 43.2114 495.43 42.5686C495.356 41.9259 495.716 40.5008 496.322 40.5254C496.524 40.5331 496.776 40.5951 497.025 40.6887Z" fill="#2E2E47"/>
<path d="M512.564 44.9599C512.44 44.9599 512.32 44.894 512.256 44.7773C512.248 44.7626 511.445 43.3197 510.233 43.1182C509.603 43.0127 508.945 43.2678 508.282 43.8752C508.14 44.0059 507.918 43.9961 507.787 43.8531C507.657 43.7105 507.667 43.4886 507.809 43.3579C508.641 42.5967 509.496 42.283 510.351 42.427C511.902 42.6871 512.833 44.3704 512.871 44.4419C512.964 44.6119 512.901 44.8243 512.731 44.9168C512.678 44.9459 512.62 44.9599 512.564 44.9599Z" fill="#2E2E47"/>
<path d="M509.906 43.0712C510.825 43.3337 511.336 44.3165 511.029 45.2224C510.83 45.8119 510.489 46.4127 509.911 46.5602C508.696 46.8707 508.319 46.0355 508.23 45.3682C508.14 44.7009 508.646 42.9363 509.334 42.9675C509.503 42.9752 509.701 43.0127 509.906 43.0712Z" fill="#2E2E47"/>
<path d="M486.503 97.0029C486.503 97.0029 474.109 144.21 474.109 164.475C474.109 184.741 467.501 229.933 460.761 229.443C454.02 228.954 444.525 228.134 443.347 224.08C442.169 220.027 451.703 155.415 456.232 143.971C460.76 132.527 470.378 100.598 486.503 97.0029Z" fill="#774237"/>
<path d="M547.033 152.141C547.033 152.141 539.313 197.616 527.872 213.351C516.431 229.087 503.62 237.909 488.841 237.67C474.063 237.432 444.79 216.689 447.65 189.986C447.65 189.986 499.77 194.755 512.563 185.218C525.356 175.681 547.033 152.141 547.033 152.141Z" fill="#2E2E47"/>
<path d="M528.37 82.6614C528.715 82.0098 531.405 89.9068 531.463 90.1111C531.522 90.3154 521.823 98.8551 521.643 98.5628C521.464 98.2705 511.993 91.7457 511.993 91.7457L502.927 95.5214C502.927 95.5214 504.078 87.6252 504.555 86.6309C505.032 85.6366 508.696 83.4815 508.696 83.4815C508.696 83.4815 508.949 85.8475 509.439 86.8061C509.933 87.7727 512.809 89.3796 512.809 89.3796C512.809 89.3796 517.898 88.5115 522.107 86.7476C525.531 85.312 528.216 82.9537 528.37 82.6614Z" fill="#FFA982"/>
<path d="M521.497 98.9315C521.006 98.9315 519.779 98.561 515.988 95.5606C514.178 94.1282 512.487 92.6506 511.942 92.1691C510.673 92.8395 504.424 96.12 503.005 96.4477C502.717 96.5143 502.46 96.441 502.281 96.2423C501.497 95.3689 502.713 91.6125 503.105 90.4822C503.168 90.2993 503.367 90.2022 503.55 90.2656C503.733 90.3291 503.83 90.5288 503.767 90.7114C502.76 93.6183 502.558 95.5435 502.801 95.7727C502.803 95.7709 502.819 95.7713 502.848 95.7646C504.015 95.4954 509.232 92.8154 511.828 91.4362L512.043 91.3216L512.226 91.4846C516.102 94.9498 520.656 98.4184 521.57 98.2204C522.965 97.9204 529.904 91.2747 530.755 90.3582C530.888 90.2166 531.11 90.2085 531.25 90.3403C531.392 90.4721 531.4 90.6939 531.269 90.8359C531.199 90.9109 523.562 98.5095 521.717 98.9056C521.663 98.9168 521.595 98.9315 521.497 98.9315Z" fill="#2E2E47"/>
<path d="M490.692 54.5777C482.994 57.8781 397.542 98.88 388.963 100.86C380.385 102.84 368.287 102.62 368.287 102.62L381.044 129.022C381.044 129.022 388.743 115.601 405.46 107.461C419.139 100.8 481.594 68.0213 497.411 59.2331C500.199 57.684 499.109 53.4197 495.92 53.4257C494.391 53.4289 492.641 53.7425 490.692 54.5777Z" fill="#774237"/>
<path d="M383.079 135.678C388.487 133.065 388.722 122.357 383.604 111.761C378.486 101.165 369.953 94.694 364.546 97.3072C359.138 99.9203 358.903 110.628 364.021 121.224C369.139 131.82 377.672 138.292 383.079 135.678Z" fill="#FFC97D"/>
<path d="M533.078 57.5606C533.078 57.5606 511.293 37.3981 507.539 32.3021L496.416 35.3979C496.416 35.3979 491.36 23.1828 500.835 15.2255C510.31 7.26833 517.28 10.308 523.27 12.8115C529.259 15.3149 537.036 23.6608 540.611 25.791C544.187 27.9212 546.69 34.9963 545.617 40.8853C544.544 46.7744 533.596 56.7948 533.078 57.5606Z" fill="#FFC97D"/>
<path d="M499.166 9.20507C499.315 7.71484 498.213 6.31434 497.289 3.45305C496.836 2.04905 497.022 1.21421 497.328 0.725647C494.241 0.938386 491.9 1.94846 491.998 3.20702C492.163 5.3246 494.38 7.3167 494.503 9.14339C494.626 10.9697 494.245 13.0123 495.607 14.1258C496 14.4464 497.062 14.7226 498.437 15.0061C498.122 13.477 499.031 10.5569 499.166 9.20507Z" fill="#FFC97D"/>
<path d="M502.361 86.6494C502.361 86.6494 485.424 106.421 495.587 119.653C505.751 132.885 529.704 97.0982 530.242 86.6494C530.242 86.6494 539.711 86.2324 542.843 97.3993C542.843 97.3993 540.704 144.687 511.518 146.117C482.332 147.548 475.181 137.892 476.969 120.189C478.757 102.487 483.777 89.4091 502.361 86.6494Z" fill="#FA634B"/>
<path d="M444.267 94.7787C444.267 94.7787 434.547 86.1426 430.944 85.3145C427.342 84.4863 420.899 83.5351 420.223 84.7057C419.546 85.8763 427.622 87.6728 427.622 87.6728C427.622 87.6728 417.28 86.9347 416.731 87.8358C416.183 88.7369 417.171 89.1434 417.171 89.1434C417.171 89.1434 415.433 89.4158 415.326 90.2565C415.219 91.0973 422.385 93.5324 422.385 93.5324C422.385 93.5324 415.945 92.8578 416.094 94.1177C416.242 95.3777 427.817 99.1197 427.817 99.1197C427.817 99.1197 435.666 105.865 439.573 103.813C443.48 101.762 446.575 96.76 444.267 94.7787Z" fill="#82664B"/>
<path d="M431.33 104.202C431.33 104.202 428.274 100.727 428.618 99.7191C428.962 98.7107 442.202 89.611 444.247 91.846C446.293 94.0809 447.369 97.8808 447.369 98.511C447.369 99.1415 431.33 104.202 431.33 104.202Z" fill="#FFE2BD"/>
<path d="M542.398 102.234L491.995 168.124C491.995 168.124 455.941 88.8308 442.5 94.5856C429.058 100.341 425.721 107.016 427.867 112.023C430.012 117.03 427.268 223.412 488.842 229.36C523.472 232.706 554.843 133.667 554.913 124.421C554.983 115.175 550.112 101.041 542.398 102.234Z" fill="#FFA982"/>
<path d="M449.319 71.9424C449.319 71.9424 446.399 71.4921 444.611 73.161C442.823 74.83 443.286 78.2871 443.859 78.6446C444.432 79.0021 445.624 78.6446 445.863 78.108C446.101 77.5714 447.06 75.2074 447.889 74.7105C448.717 74.2135 450.357 73.4453 450.357 73.4453L449.319 71.9424Z" fill="#82664B"/>
<path d="M485.109 202.327C484.99 202.327 484.869 202.312 484.748 202.281C484.367 202.183 484.054 201.923 483.817 201.51C481.016 196.624 489.272 167.174 489.99 164.643L477.894 140.288L464.56 114.85C464.47 114.679 464.536 114.467 464.707 114.377C464.879 114.287 465.091 114.354 465.18 114.525L478.518 139.969L490.737 164.574L490.7 164.704C490.61 165.021 481.705 196.418 484.424 201.161C484.566 201.408 484.729 201.552 484.923 201.602C485.16 201.663 485.38 201.609 485.617 201.434C488.664 199.185 490.301 181.099 490.741 171.85L491.439 171.828C492.603 182.159 494.77 198.478 495.949 201.274C496.336 197.965 494.288 178.752 492.809 166.648L492.792 166.506L492.878 166.393L522.991 127.026C523.109 126.873 523.33 126.844 523.482 126.961C523.636 127.079 523.665 127.298 523.548 127.452L493.522 166.705C493.662 167.864 494.632 175.902 495.454 183.931C497.263 201.609 496.649 202.004 496.281 202.24C496.133 202.335 495.953 202.335 495.798 202.24C495.455 202.029 494.649 201.537 492.584 186.582C492.035 182.604 491.541 178.635 491.203 175.829C490.675 183.474 489.195 199.664 486.033 201.998C485.737 202.217 485.427 202.327 485.109 202.327Z" fill="#2E2E47"/>
<path d="M448.705 202.327C448.578 202.327 448.455 202.258 448.393 202.137C448.285 201.927 437.514 180.894 433.016 158.401C428.617 136.398 426.716 113.559 426.918 110.333C427.095 107.499 428.524 104.201 428.585 104.062C428.662 103.884 428.868 103.804 429.046 103.881C429.223 103.958 429.304 104.165 429.227 104.343C429.212 104.375 427.787 107.667 427.618 110.377C427.459 112.914 429.092 135.198 433.703 158.263C438.181 180.657 448.908 201.607 449.016 201.816C449.104 201.988 449.037 202.199 448.865 202.288C448.814 202.314 448.759 202.327 448.705 202.327Z" fill="#2E2E47"/>
<path d="M500.571 330.147C500.872 337.508 501.416 343.034 502.361 343.847C505.229 346.311 542.399 342.813 545.867 341.025C546.381 340.76 546.313 335.602 545.825 327.007C541.814 327.537 535.367 328.341 527.024 329.223C516.063 330.382 505.303 330.275 500.571 330.147Z" fill="#FFC97D"/>
<path d="M569.166 380.453L567.423 313.349C567.423 313.349 576.908 342.127 580.894 351.396C586.532 364.507 591.752 371.321 595.078 374.7C596.19 375.83 598.087 374.784 597.735 373.238C595.736 364.467 591.079 343.609 585.87 317.424C578.551 302.805 570.256 289.345 563.711 291.468C550.482 295.759 554.155 376.583 554.155 376.583C554.155 376.583 534.392 380.16 499.964 383.021C473.171 385.247 445.705 384.008 434.837 383.349C434.835 385.417 434.862 387.326 434.921 389.048C435.132 395.122 440.218 399.878 446.291 399.686L553.931 396.596C562.584 396.322 569.391 389.109 569.166 380.453Z" fill="#FFE2BD"/>
<path d="M607.218 561.675C607.154 561.675 607.089 561.657 607.031 561.62C595.172 554.085 583.348 536.283 571.888 508.709C563.315 488.081 557.837 468.834 556.363 463.426C556.311 463.24 556.422 463.047 556.609 462.996C556.795 462.945 556.988 463.055 557.039 463.242C559.26 471.386 579.541 543.322 607.406 561.029C607.57 561.133 607.618 561.349 607.514 561.512C607.447 561.618 607.334 561.675 607.218 561.675Z" fill="white"/>
<path d="M602.466 568.828C602.445 568.828 602.424 568.826 602.402 568.822C595.961 567.623 587.855 562.601 578.31 553.894C571.22 547.427 565.942 541.228 565.89 541.167C565.765 541.019 565.783 540.798 565.93 540.672C566.078 540.548 566.299 540.565 566.424 540.713C566.633 540.959 587.455 565.327 602.53 568.132C602.72 568.168 602.845 568.351 602.81 568.541C602.779 568.71 602.632 568.828 602.466 568.828Z" fill="white"/>
<path d="M516.307 589.57C516.141 589.57 515.994 589.452 515.963 589.283C515.933 589.121 515.24 585.15 515.957 571.32C516.027 569.982 516.096 568.697 516.163 567.45C516.789 555.821 517.241 547.42 515.958 530.954C514.553 512.913 513.81 477.644 513.803 477.289C513.799 477.096 513.953 476.936 514.146 476.931C514.333 476.939 514.5 477.081 514.504 477.274C514.511 477.628 515.253 512.878 516.657 530.899C517.944 547.411 517.491 555.832 516.863 567.487C516.796 568.733 516.727 570.019 516.658 571.356C515.944 585.103 516.645 589.117 516.652 589.156C516.687 589.346 516.561 589.529 516.371 589.564C516.349 589.568 516.328 589.57 516.307 589.57Z" fill="white"/>
<path d="M497.372 128.926C495.595 128.926 493.973 128.688 492.587 128.21C490.991 127.659 489.619 126.223 488.62 124.057C486.426 119.297 486.382 111.901 488.516 106.471C488.587 106.291 488.79 106.202 488.97 106.273C489.15 106.344 489.239 106.548 489.168 106.728C487.097 111.996 487.135 119.161 489.256 123.763C490.173 125.752 491.404 127.06 492.815 127.547C497.918 129.307 507.656 127.837 516.978 120.451C526.295 113.067 532.716 102.763 532.78 102.66C532.882 102.495 533.098 102.444 533.262 102.546C533.427 102.648 533.478 102.864 533.376 103.028C533.311 103.132 526.829 113.538 517.413 121C513.034 124.47 508.196 126.935 503.423 128.129C501.298 128.66 499.249 128.926 497.372 128.926Z" fill="#2E2E47"/>
<path d="M500.737 139.384C499.811 139.384 498.861 139.304 497.884 139.131C485.78 136.984 482.359 132.037 482.219 131.828C482.112 131.667 482.155 131.449 482.316 131.342C482.476 131.234 482.694 131.277 482.802 131.438C482.835 131.487 486.236 136.353 498.007 138.441C509.74 140.525 517.914 128.498 517.995 128.376C518.103 128.216 518.32 128.171 518.481 128.279C518.642 128.387 518.685 128.605 518.578 128.765C518.501 128.881 511.361 139.384 500.737 139.384Z" fill="#2E2E47"/>
<path d="M507.539 32.6523C507.403 32.6523 507.273 32.5727 507.216 32.4395C507.171 32.3316 502.633 21.5345 504.56 12.2949C504.599 12.1053 504.785 11.984 504.974 12.0232C505.164 12.0629 505.285 12.2486 505.246 12.4379C503.364 21.4588 507.816 32.0582 507.861 32.1644C507.937 32.3425 507.854 32.5482 507.677 32.6242C507.632 32.6432 507.585 32.6523 507.539 32.6523Z" fill="#2E2E47"/>
<path d="M536.232 52.867C536.136 52.867 536.041 52.8281 535.972 52.7514C535.905 52.6774 529.205 45.2645 523.03 39.4413C516.84 33.6049 505.847 22.6928 505.737 22.5827C505.599 22.4464 505.598 22.2246 505.735 22.0872C505.871 21.9498 506.093 21.9491 506.23 22.0854C506.34 22.1948 517.327 33.1009 523.51 38.9314C529.706 44.7745 536.424 52.2074 536.491 52.2817C536.621 52.4254 536.61 52.6469 536.466 52.7766C536.399 52.8372 536.315 52.867 536.232 52.867Z" fill="#2E2E47"/>
<path d="M541.862 46.2423C541.788 46.2423 541.713 46.2188 541.649 46.1694C541.568 46.1067 533.427 39.8384 526.177 33.8887C518.9 27.9159 507.375 12.7305 507.26 12.578C507.143 12.4238 507.173 12.2041 507.328 12.087C507.482 11.9696 507.701 12.0008 507.818 12.155C507.933 12.3071 519.408 27.427 526.621 33.3469C533.863 39.2899 541.995 45.5515 542.076 45.6139C542.23 45.732 542.258 45.9518 542.141 46.1053C542.072 46.1954 541.968 46.2423 541.862 46.2423Z" fill="#2E2E47"/>
<path d="M543.203 37.7759C543.147 37.7759 543.091 37.7626 543.038 37.7345C537.253 34.6458 521.533 19.7968 520.867 19.1663C520.726 19.0331 520.72 18.8113 520.853 18.6711C520.987 18.5302 521.208 18.5246 521.348 18.6571C521.511 18.8109 537.666 34.0717 543.368 37.1163C543.539 37.2074 543.604 37.4198 543.512 37.5905C543.45 37.7086 543.328 37.7759 543.203 37.7759Z" fill="#2E2E47"/>
<path d="M506.41 29.4794C506.389 29.4794 506.368 29.4777 506.347 29.4738C499.639 28.2615 495.506 23.952 495.333 23.7691C495.2 23.6286 495.206 23.4067 495.347 23.2739C495.486 23.141 495.709 23.147 495.842 23.2879C495.883 23.331 499.999 27.6145 506.471 28.7844C506.662 28.8188 506.788 29.001 506.754 29.1917C506.723 29.3609 506.576 29.4794 506.41 29.4794Z" fill="#2E2E47"/>
</svg>
