<svg width="1000" height="522" viewBox="0 0 1000 522" fill="none" xmlns="http://www.w3.org/2000/svg">
<g clip-path="url(#clip0_1_2)">
<rect width="1000" height="522" fill="white"/>
<path d="M327.893 148.877H350.582V278H327.893V148.877ZM440.449 278V148.877H463.138V257.34H531.02V278H440.449ZM676.58 213.254C676.58 222.354 674.919 230.962 671.599 239.078C668.279 247.195 663.606 254.327 657.58 260.476C651.554 266.502 644.422 271.298 636.182 274.864C627.943 278.43 618.843 280.214 608.882 280.214C598.921 280.214 589.821 278.492 581.582 275.049C573.342 271.482 566.271 266.686 560.368 260.661C554.466 254.635 549.854 247.564 546.534 239.447C543.213 231.331 541.553 222.723 541.553 213.623C541.553 204.523 543.213 195.914 546.534 187.798C549.854 179.682 554.527 172.611 560.553 166.585C566.579 160.436 573.711 155.579 581.95 152.012C590.19 148.446 599.29 146.663 609.251 146.663C619.212 146.663 628.312 148.446 636.551 152.012C644.791 155.456 651.862 160.19 657.764 166.216C663.667 172.242 668.279 179.313 671.599 187.429C674.919 195.545 676.58 204.154 676.58 213.254ZM652.784 213.623C652.784 207.351 651.677 201.448 649.464 195.914C647.373 190.258 644.36 185.339 640.425 181.157C636.613 176.976 632.001 173.656 626.59 171.196C621.179 168.737 615.277 167.507 608.882 167.507C602.487 167.507 596.584 168.737 591.174 171.196C585.886 173.533 581.336 176.792 577.523 180.973C573.711 185.031 570.698 189.889 568.485 195.545C566.394 201.079 565.349 206.982 565.349 213.254C565.349 219.526 566.394 225.49 568.485 231.147C570.698 236.68 573.711 241.538 577.523 245.719C581.459 249.9 586.132 253.221 591.542 255.68C596.953 258.14 602.856 259.369 609.251 259.369C615.646 259.369 621.487 258.201 626.775 255.865C632.186 253.405 636.797 250.146 640.609 246.088C644.422 241.907 647.373 237.049 649.464 231.516C651.677 225.859 652.784 219.894 652.784 213.623ZM749.007 248.117L787.744 148.877H812.277L758.599 278.922H738.677L684.998 148.877H710.085L749.007 248.117ZM930.149 148.877V169.167H857.102V202.739H921.848V223.03H857.102V257.709H931.071V278H834.413V148.877H930.149Z" fill="#68B35B"/>
<path d="M387.791 405.098C385.96 405.098 384.56 404.182 383.591 402.351C382.729 400.52 382.298 397.935 382.298 394.596C382.298 394.058 382.298 393.465 382.298 392.819C382.298 392.065 382.406 390.665 382.621 388.619C382.945 380.864 386.768 376.34 394.092 375.047L397.808 374.724C400.286 374.401 402.224 373.647 403.625 372.462C405.025 371.17 406.048 369.393 406.694 367.131C408.525 360.991 410.356 354.798 412.187 348.551C414.018 342.304 415.957 336.111 418.004 329.972C419.081 326.525 420.158 322.863 421.235 318.985C422.42 315 423.658 311.069 424.951 307.191C426.351 303.314 427.913 299.49 429.636 295.72C431.467 291.951 433.513 288.504 435.775 285.38C436.745 284.088 438.091 282.742 439.814 281.341C441.538 279.941 443.476 278.703 445.631 277.625C447.892 276.441 450.262 275.525 452.739 274.879C455.324 274.125 457.855 273.748 460.333 273.748C463.564 273.748 466.741 274.771 469.865 276.818C474.066 279.726 478.212 283.226 482.305 287.319C486.398 291.412 490.976 296.636 496.038 302.991C501.1 309.345 506.97 317.047 513.648 326.094C520.326 335.034 528.35 345.858 537.721 358.568C539.121 360.184 540.575 361.422 542.083 362.284C543.699 363.038 545.584 363.415 547.738 363.415H556.947C560.717 363.415 563.625 364.33 565.671 366.161C567.825 367.885 568.902 370.308 568.902 373.432C568.902 374.078 568.849 374.832 568.741 375.694C568.741 376.555 568.579 377.417 568.256 378.279L565.186 387.326C564.971 388.188 564.81 388.942 564.702 389.588C564.594 390.234 564.54 390.88 564.54 391.527C564.54 393.789 565.294 396.104 566.802 398.474L584.089 422.062C586.028 424.97 586.997 427.717 586.997 430.302C586.997 434.179 584.789 437.572 580.373 440.48L574.234 444.842C572.726 445.812 571.272 446.565 569.872 447.104C568.579 447.643 567.233 447.912 565.833 447.912C563.894 447.912 562.063 447.319 560.34 446.135C558.724 445.058 557.162 443.55 555.654 441.611C550.484 434.287 545.261 427.07 539.983 419.962C534.813 412.853 529.535 405.798 524.15 398.797C521.672 395.35 518.387 393.627 514.294 393.627C501.154 394.166 488.121 394.919 475.196 395.889C462.379 396.751 449.508 397.828 436.583 399.12C431.952 399.551 429.044 402.028 427.859 406.552L420.589 433.21C418.65 440.318 414.341 443.873 407.664 443.873H405.079L400.07 443.227C396.408 442.903 393.608 441.772 391.669 439.834C389.838 437.895 388.922 435.364 388.922 432.24C388.922 431.594 388.976 430.894 389.084 430.14C389.192 429.386 389.353 428.578 389.569 427.717C390.107 425.562 390.646 423.354 391.184 421.093C391.83 418.831 392.477 416.623 393.123 414.468C393.338 413.607 393.5 412.853 393.608 412.207C393.715 411.453 393.769 410.753 393.769 410.106C393.769 406.767 392.477 405.098 389.892 405.098H387.791ZM464.695 319.793C463.618 318.824 462.648 318.016 461.787 317.37C460.925 316.723 460.01 316.4 459.04 316.4C456.348 316.4 454.463 318.285 453.386 322.055C451.231 328.41 449.131 334.711 447.085 340.958C445.146 347.097 443.153 353.398 441.107 359.861C440.891 360.399 440.784 360.884 440.784 361.315C440.784 361.745 440.784 362.23 440.784 362.769C440.784 366.754 442.884 368.746 447.085 368.746H448.7C455.163 367.885 461.625 367.239 468.088 366.808C474.55 366.269 481.013 365.838 487.475 365.515C489.629 365.3 491.299 364.761 492.484 363.9C493.776 362.93 494.422 361.692 494.422 360.184C494.422 358.783 493.776 357.114 492.484 355.175C487.96 349.144 483.382 343.22 478.751 337.403C474.227 331.479 469.542 325.609 464.695 319.793ZM632.073 314.785C629.919 315.646 627.819 316.077 625.772 316.077C620.602 316.077 617.048 313.008 615.109 306.868C614.571 305.253 614.194 303.906 613.978 302.829C613.87 301.752 613.817 300.783 613.817 299.921C613.817 294.859 616.671 291.089 622.379 288.612C633.689 284.088 645.214 280.426 656.954 277.625C668.694 274.825 680.542 273.425 692.497 273.425C698.098 273.425 703.591 274.017 708.977 275.202C714.47 276.387 719.37 278.433 723.679 281.341C727.987 284.25 731.488 288.127 734.18 292.974C736.873 297.821 738.219 303.906 738.219 311.23C738.219 316.4 737.142 321.355 734.988 326.094C732.942 330.833 730.195 335.357 726.748 339.665C723.302 343.974 719.37 348.067 714.954 351.944C710.538 355.821 706.015 359.376 701.383 362.607C696.752 365.838 692.174 368.8 687.65 371.493C683.127 374.078 679.034 376.34 675.372 378.279C672.248 380.11 670.686 381.995 670.686 383.933C670.686 386.195 672.356 387.972 675.695 389.265C687.22 393.358 699.014 397.181 711.077 400.736C723.14 404.29 735.365 408.275 747.752 412.691C753.568 414.845 756.476 418.184 756.476 422.708C756.476 424.862 755.83 427.07 754.537 429.332C753.352 431.486 752.006 433.479 750.498 435.31C747.375 439.941 743.497 442.257 738.866 442.257C737.25 442.257 735.257 441.934 732.888 441.288C725.887 438.595 718.347 435.795 710.269 432.887C702.299 429.978 694.113 427.124 685.712 424.324C677.418 421.416 669.232 418.669 661.154 416.084C653.076 413.391 645.59 410.968 638.697 408.814C636.22 408.168 634.55 407.844 633.689 407.844C632.827 407.844 632.127 408.06 631.588 408.491C631.158 408.814 630.942 409.568 630.942 410.753C630.942 411.076 630.996 411.507 631.104 412.045C631.211 412.476 631.265 412.961 631.265 413.499C631.588 415.115 631.965 417.269 632.396 419.962C632.935 422.547 633.419 425.239 633.85 428.04C634.389 430.84 634.82 433.533 635.143 436.118C635.466 438.595 635.627 440.642 635.627 442.257C635.627 448.289 632.342 452.489 625.772 454.859L618.502 457.121C617.425 457.444 616.455 457.659 615.594 457.767C614.732 457.983 613.817 458.09 612.847 458.09C606.923 458.09 603.477 454.428 602.507 447.104C599.922 427.501 596.583 408.168 592.49 389.103C588.505 370.039 583.928 351.028 578.758 332.072C578.435 330.995 578.219 330.079 578.111 329.325C578.111 328.464 578.111 327.71 578.111 327.063C578.111 321.355 581.181 317.477 587.32 315.431C589.582 314.677 591.413 314.085 592.814 313.654C594.321 313.223 595.506 312.9 596.368 312.684C597.337 312.361 598.037 312.146 598.468 312.038C599.007 311.93 599.491 311.877 599.922 311.877C605.739 311.877 609.508 315.162 611.232 321.732C613.494 330.133 615.594 338.265 617.533 346.128C619.579 353.99 621.41 361.745 623.026 369.393C623.887 373.162 625.449 375.047 627.711 375.047C628.357 375.047 629.111 374.94 629.973 374.724C630.834 374.401 631.858 373.97 633.043 373.432C636.489 371.601 640.636 369.339 645.483 366.646C650.437 363.953 655.553 360.991 660.831 357.76C666.217 354.421 671.494 350.921 676.664 347.259C681.942 343.597 686.627 339.935 690.72 336.272C694.921 332.61 698.314 329.002 700.899 325.448C703.484 321.893 704.776 318.555 704.776 315.431C704.776 313.492 704.453 311.715 703.807 310.099C703.268 308.484 702.191 307.084 700.575 305.899C698.96 304.714 696.752 303.799 693.951 303.152C691.259 302.506 687.812 302.183 683.611 302.183C679.518 302.183 675.21 302.56 670.686 303.314C666.27 303.96 661.854 304.876 657.438 306.06C653.022 307.245 648.66 308.592 644.352 310.099C640.044 311.607 635.951 313.169 632.073 314.785ZM787.98 302.991C787.119 302.991 785.449 303.206 782.972 303.637C780.602 303.96 777.802 304.391 774.571 304.929C771.34 305.468 767.947 306.114 764.392 306.868C760.838 307.514 757.499 308.107 754.376 308.645C751.252 309.184 748.559 309.669 746.297 310.099C743.928 310.423 742.366 310.584 741.612 310.584C734.396 310.584 730.787 306.814 730.787 299.275C730.787 297.228 731.003 295.236 731.434 293.297C731.757 291.251 732.403 289.42 733.372 287.804C734.342 286.081 735.634 284.627 737.25 283.442C738.866 282.257 740.912 281.449 743.389 281.018C755.991 279.08 768.539 277.033 781.033 274.879C793.527 272.725 806.129 270.463 818.839 268.093C821.639 267.555 824.17 267.07 826.432 266.639C828.694 266.101 831.225 265.401 834.026 264.539C837.041 263.677 840.326 262.87 843.881 262.116C847.435 261.254 850.99 260.5 854.544 259.854C858.206 259.207 861.707 258.669 865.045 258.238C868.492 257.807 871.616 257.592 874.416 257.592C877.863 257.592 880.448 258.723 882.171 260.985C884.002 263.139 884.918 266.208 884.918 270.194C884.918 272.24 884.756 274.233 884.433 276.171C884.11 278.002 883.517 279.672 882.656 281.18C881.794 282.688 880.609 283.926 879.101 284.896C877.593 285.865 875.655 286.458 873.285 286.673C867.146 287.535 860.576 288.612 853.575 289.904C846.574 291.089 840.488 292.435 835.318 293.943C833.164 294.59 831.548 295.667 830.471 297.174C829.394 298.575 828.694 300.352 828.371 302.506C828.048 304.552 827.832 306.653 827.725 308.807C827.725 310.853 827.725 312.846 827.725 314.785C827.725 319.308 827.886 323.832 828.209 328.356C828.64 332.88 829.017 337.403 829.34 341.927C830.31 357.437 831.764 372.785 833.702 387.972C835.749 403.159 837.957 418.508 840.326 434.017C840.542 434.556 840.65 435.095 840.65 435.633C840.65 436.172 840.65 436.71 840.65 437.249C840.65 443.173 837.311 447.373 830.633 449.851L823.362 452.112C821.424 452.759 819.539 453.082 817.708 453.082C814.907 453.082 812.646 452.166 810.922 450.335C809.199 448.612 808.068 446.027 807.529 442.58C804.514 424.054 801.875 405.636 799.613 387.326C797.351 368.908 795.897 350.382 795.251 331.749C795.035 328.733 794.874 325.448 794.766 321.893C794.658 318.339 794.604 314.677 794.604 310.907C794.604 305.63 792.396 302.991 787.98 302.991Z" fill="#FD9E2B"/>
<path d="M233.422 512.816C233.422 512.816 219.511 446.168 261.598 396.921C295.377 357.392 312.608 326.411 307.882 283.024L286.738 318.925C286.738 318.925 341.184 241.316 219.87 133.538C219.87 133.538 292.863 225.817 272.106 312.187C249.607 405.794 210.523 436.625 233.422 512.816Z" fill="url(#paint0_linear_1_2)"/>
<path d="M232.546 513.023C232.546 513.023 215.146 447.2 155.464 422.006C107.562 401.784 78.2847 381.794 63.0866 340.883L98.0672 363.519C98.0672 363.519 14.6363 318.498 74.8614 167.811C74.8614 167.811 50.9072 283.005 108.134 350.943C170.158 424.574 218.91 434.643 232.546 513.023Z" fill="url(#paint1_linear_1_2)"/>
<path d="M164.001 220.883C202.567 211.768 242.758 237.509 262.531 280.429C262.248 271.763 261.197 262.914 259.086 253.987C245.476 196.404 197.441 158.468 151.8 169.257C106.158 180.045 80.191 235.47 93.8025 293.054C95.9119 301.981 98.9325 310.364 102.561 318.239C101.024 271.012 125.434 229.999 164.001 220.883Z" fill="url(#paint2_linear_1_2)"/>
<path d="M239.257 304.139C246.975 336.793 223.01 397.645 190.725 334.584C184.956 402.331 141.417 361.744 133.699 329.091C125.981 296.437 143.354 264.38 172.503 257.49C201.653 250.599 231.539 271.486 239.257 304.139Z" fill="url(#paint3_linear_1_2)"/>
<path d="M168.327 105.406C148.968 94.7769 136.651 76.4694 129.759 63.1845C126.232 53.462 122.77 47.0731 122.77 47.0731L122.773 47.1026L122.763 47.0748C122.763 47.0748 122.528 54.3384 123.727 64.6125C123.512 79.5779 120.693 101.461 108.142 119.631C74.8576 167.811 85.3281 199.459 85.3281 199.459C92.4684 182.489 114.688 158.788 130.358 130.102C134.382 122.737 136.263 114.742 136.862 106.718C140.99 113.624 146.251 119.931 153.147 124.715C180.003 143.35 210.48 154.596 224.462 166.573C224.465 166.572 219.659 133.586 168.327 105.406Z" fill="url(#paint4_linear_1_2)"/>
</g>
<defs>
<linearGradient id="paint0_linear_1_2" x1="190.238" y1="331.787" x2="312.534" y2="302.88" gradientUnits="userSpaceOnUse">
<stop stop-color="#0D6F18"/>
<stop offset="0.2063" stop-color="#1F7D25"/>
<stop offset="0.6199" stop-color="#4FA048"/>
<stop offset="1" stop-color="#80C56C"/>
</linearGradient>
<linearGradient id="paint1_linear_1_2" x1="67.7406" y1="360.742" x2="190.036" y2="331.835" gradientUnits="userSpaceOnUse">
<stop stop-color="#0D6F18"/>
<stop offset="0.2063" stop-color="#1F7D25"/>
<stop offset="0.6199" stop-color="#4FA048"/>
<stop offset="1" stop-color="#80C56C"/>
</linearGradient>
<linearGradient id="paint2_linear_1_2" x1="84.4924" y1="253.844" x2="249.776" y2="214.775" gradientUnits="userSpaceOnUse">
<stop stop-color="#FF6224"/>
<stop offset="0.3125" stop-color="#FE8628"/>
<stop offset="0.7712" stop-color="#FDB62E"/>
<stop offset="1" stop-color="#FDC830"/>
</linearGradient>
<linearGradient id="paint3_linear_1_2" x1="132.633" y1="324.747" x2="238.191" y2="299.796" gradientUnits="userSpaceOnUse">
<stop stop-color="#002AAD"/>
<stop offset="0.1391" stop-color="#043CB5"/>
<stop offset="0.4198" stop-color="#0D6DCA"/>
<stop offset="0.8127" stop-color="#1CB9EA"/>
<stop offset="1" stop-color="#24E0FB"/>
</linearGradient>
<linearGradient id="paint4_linear_1_2" x1="69.1872" y1="131.513" x2="208.399" y2="98.6072" gradientUnits="userSpaceOnUse">
<stop stop-color="#0D6F18"/>
<stop offset="0.2063" stop-color="#1F7D25"/>
<stop offset="0.6199" stop-color="#4FA048"/>
<stop offset="1" stop-color="#80C56C"/>
</linearGradient>
<clipPath id="clip0_1_2">
<rect width="1000" height="522" fill="white"/>
</clipPath>
</defs>
</svg>
