<svg width="57" height="71" viewBox="0 0 57 71" fill="none" xmlns="http://www.w3.org/2000/svg">
<path d="M6.88721 36.2916V0.0140686H14.6439V36.2916H6.88721Z" fill="#A56464"/>
<path fill-rule="evenodd" clip-rule="evenodd" d="M32.5046 7.83676C27.4676 -4.30893 11.8179 -2.05243 11.8919 12.6383C11.9242 20.1748 18.8946 24.7441 23.2979 28.6214C27.4213 32.2572 30.5365 34.5958 32.3843 36.3057H32.4005C34.2622 34.6145 37.3912 32.2994 41.5447 28.7012C45.9804 24.8614 52.9854 20.346 53.0849 12.8142C53.2814 -1.87886 37.6363 -4.26437 32.5022 7.83676H32.5046Z" fill="#991B1B"/>
<path fill-rule="evenodd" clip-rule="evenodd" d="M14.6439 20.3906V3.63104C12.9533 5.73977 11.8733 8.75391 11.8918 12.6383C11.9057 15.6454 13.025 18.181 14.6439 20.3883V20.3906Z" fill="#EF4023"/>
<path d="M10.0208 59.7316C8.88989 59.7316 7.81451 59.5838 6.79 59.2906C5.76549 58.9974 4.85893 58.5541 4.06338 57.9653C3.26783 57.3766 2.63416 56.6494 2.16238 55.7815C1.68828 54.9136 1.45239 53.9074 1.45239 52.7604V52.6665C1.45239 51.4585 1.71835 50.3889 2.25257 49.46C2.78679 48.5312 3.51065 47.7571 4.42415 47.1355C5.33765 46.5163 6.41304 46.0518 7.64568 45.7422C8.88064 45.4326 10.2127 45.2778 11.6443 45.2778C13.2585 45.2778 14.8057 45.4091 16.2834 45.6718C17.7612 45.9346 19.0794 46.2841 20.2381 46.718V44.7664C20.2381 41.947 19.4657 39.8641 17.9254 38.5153C16.3829 37.1666 14.2668 36.4934 11.5795 36.4934C10.1433 36.4934 8.81357 36.6716 7.59249 37.0282C6.37141 37.3847 5.1642 37.8585 3.97319 38.4449L3.60779 37.6076C4.89131 36.9883 6.17252 36.4934 7.45604 36.1204C8.73957 35.7498 10.1295 35.5622 11.6258 35.5622C14.8334 35.5622 17.2756 36.4136 18.9569 38.1189C19.6599 38.832 20.2173 39.7444 20.6289 40.861C21.0406 41.9751 21.2464 43.2629 21.2464 44.7172V59.1686H20.2381L20.2843 53.6845C20.0392 54.3671 19.6437 55.0638 19.0933 55.7768C18.5429 56.4899 17.8399 57.1397 16.9865 57.7284C16.1308 58.3172 15.1225 58.798 13.9615 59.1686C12.8006 59.5392 11.487 59.7269 10.0208 59.7269V59.7316ZM10.0462 58.8027C11.5679 58.8027 12.9555 58.5705 14.2044 58.1061C15.4532 57.6416 16.5263 57.0294 17.4259 56.2694C18.3232 55.5094 19.017 54.6439 19.505 53.6681C19.9929 52.6923 20.2358 51.6931 20.2358 50.6704V47.6961C19.017 47.2317 17.7219 46.8681 16.3505 46.6031C14.9791 46.3404 13.425 46.209 11.6905 46.209C10.4093 46.209 9.20672 46.3404 8.08046 46.6031C6.95188 46.8658 5.97132 47.2692 5.13183 47.8111C4.29465 48.3529 3.64016 49.0261 3.16607 49.833C2.69429 50.6399 2.4584 51.5688 2.4584 52.622V52.7158C2.4584 53.7385 2.66422 54.6298 3.07588 55.3875C3.48753 56.1474 4.04257 56.7808 4.7433 57.2921C5.44403 57.8035 6.25115 58.1835 7.16465 58.4298C8.07815 58.6784 9.0379 58.8004 10.0439 58.8004L10.0462 58.8027Z" fill="#A56464" stroke="#A56464" stroke-width="1.45489" stroke-miterlimit="10"/>
<path d="M29.3083 35.9398H30.3167V43.3755C30.5919 42.4161 30.9966 41.4544 31.5308 40.495C32.065 39.5357 32.7288 38.6748 33.5243 37.9148C34.3176 37.1572 35.2357 36.545 36.2741 36.0782C37.3124 35.6138 38.4734 35.3816 39.7569 35.3816V36.3104H39.528C38.0918 36.3104 36.8083 36.667 35.6797 37.38C34.5488 38.0931 33.5868 38.9821 32.7935 40.0517C31.998 41.1213 31.3874 42.2895 30.9619 43.5608C30.5341 44.8321 30.3213 46.0237 30.3213 47.1379V59.1733H29.313V35.9375L29.3083 35.9398Z" fill="#A56464" stroke="#A56464" stroke-width="1.45489" stroke-miterlimit="10"/>
<path d="M51.8036 59.5932C49.8795 59.5932 48.4133 59.0443 47.405 57.9442C46.3967 56.8441 45.8925 55.2725 45.8925 53.2271V36.8241H42.2732V35.9421H45.8925V27.9037H46.9008V35.9421H55.3767V36.8241H46.9008V53.1356C46.9008 54.9019 47.3055 56.2647 48.115 57.2241C48.9244 58.1835 50.1547 58.6643 51.8036 58.6643C53.0247 58.6643 54.1857 58.3852 55.2865 57.8269V58.8496C54.2181 59.3445 53.0571 59.5932 51.8036 59.5932Z" fill="#A56464" stroke="#A56464" stroke-width="1.45489" stroke-miterlimit="10"/>
</svg>
