<svg width="941" height="516" viewBox="0 0 941 516" fill="none" xmlns="http://www.w3.org/2000/svg">
<path d="M219.601 75.043L333.796 179.449L226.126 355.635L1 218.601L186.974 58.729L219.601 75.043Z" fill="#FFA982" stroke="#FFA982" stroke-miterlimit="10"/>
<path d="M637.227 159.873L751.421 358.897L940.658 277.33L810.15 0L637.227 159.873Z" fill="#591210"/>
<path d="M333.796 179.449L376.211 192.5L425.151 169.661C425.151 169.661 425.151 130.509 444.727 140.297C464.303 150.085 483.879 159.873 483.879 159.873C483.879 159.873 536.082 163.136 545.87 166.398C555.658 169.66 568.709 172.923 558.921 189.237C549.133 205.55 565.446 208.813 588.285 199.025C611.124 189.237 627.437 179.449 627.437 179.449L728.582 332.796L663.328 358.898C663.328 358.898 669.853 411.101 663.328 433.94C656.803 456.779 620.913 446.991 620.913 446.991C620.913 446.991 633.964 473.093 617.65 473.093C601.337 473.093 578.498 466.568 578.498 466.568L558.922 476.356L516.507 456.78L503.456 440.466L506.719 473.093L483.88 492.669L451.253 489.406L418.626 505.719L382.736 495.931C382.736 495.931 343.584 499.194 340.321 486.143C337.058 473.092 330.533 460.041 330.533 460.041L301.169 420.889L275.067 394.787L284.855 358.897L226.126 326.27L333.796 179.449Z" fill="white"/>
<path d="M283.227 370.287C284.264 370.209 285.303 370.26 286.333 370.395C286.677 370.408 286.998 370.336 287.296 370.18C287.606 370.079 287.874 369.907 288.101 369.663C288.345 369.436 288.517 369.168 288.618 368.858C288.774 368.56 288.846 368.239 288.833 367.895C288.804 367.248 288.592 366.578 288.101 366.127C287.932 365.997 287.764 365.866 287.595 365.736C287.205 365.51 286.785 365.396 286.333 365.395C285.303 365.26 284.263 365.209 283.227 365.287C282.883 365.274 282.562 365.346 282.264 365.502C281.954 365.603 281.686 365.775 281.459 366.019C281.215 366.245 281.043 366.514 280.942 366.824C280.786 367.122 280.714 367.443 280.727 367.787C280.756 368.434 280.968 369.104 281.459 369.555C281.927 369.984 282.57 370.337 283.227 370.287Z" fill="#222221"/>
<path d="M297.111 365.215C302.066 363.181 306.452 360.129 311.287 357.864C313.811 356.682 316.622 355.969 319.251 355.035C321.956 354.074 324.651 353.085 327.338 352.073C338.124 348.009 348.76 343.563 359.37 339.065C364.424 336.922 369.457 334.403 374.697 332.764C379.133 331.376 383.986 330.098 388.664 330.858C396.412 332.116 401.211 338.716 401.668 346.069C401.895 349.724 401.301 353.401 399.736 356.743C397.752 360.98 394.441 364.488 391.13 367.725C387.478 371.295 383.577 374.607 380.127 378.382C376.739 382.089 372.569 385.019 368.495 387.915C364.401 390.825 360.244 393.721 356.621 397.219C355.841 397.972 355.157 398.876 354.233 399.446C353.075 400.16 351.903 400.851 350.717 401.517C348.472 402.779 346.178 403.953 343.841 405.035C334.626 409.302 324.603 412.063 314.484 412.966C311.862 413.2 309.242 413.163 306.62 413.317C304.295 413.453 302.064 413.625 299.759 413.144C295.453 412.244 290.643 409.916 288.165 406.15C287.004 404.386 286.393 402.553 285.601 400.585C284.585 398.058 283.627 395.506 282.786 392.915C281.145 387.861 279.923 382.647 279.634 377.328C279.576 376.254 279.404 374.924 279.659 373.984C279.925 373.005 280.448 372.068 280.741 371.049C281.629 367.95 276.806 366.627 275.92 369.72C275.618 370.774 275.082 371.747 274.799 372.802C274.446 374.118 274.55 375.53 274.612 376.875C274.746 379.793 275.125 382.71 275.684 385.576C276.779 391.19 278.65 396.618 280.781 401.915C281.657 404.092 282.4 406.375 283.654 408.372C285.116 410.702 287.043 412.553 289.334 414.056C293.738 416.947 298.875 418.64 304.171 418.505C315.228 418.222 326.106 416.888 336.615 413.285C341.821 411.5 346.893 409.278 351.737 406.665C354.072 405.406 356.9 404.152 358.727 402.206C360.499 400.318 362.456 398.612 364.487 397.009C368.647 393.727 373.12 390.863 377.3 387.605C381.617 384.239 385.174 380.173 389.156 376.444C396.259 369.792 404.252 362.918 406.179 352.884C407.721 344.855 405.795 335.657 399.186 330.325C395.181 327.094 390.222 325.518 385.087 325.68C379.739 325.849 374.28 327.352 369.377 329.429C358.341 334.105 347.334 338.853 336.201 343.296C330.596 345.533 324.96 347.693 319.28 349.732C316.411 350.762 313.471 351.642 310.625 352.731C307.961 353.75 305.465 355.228 303 356.645C300.652 357.995 298.295 359.365 295.784 360.396C294.536 360.908 293.649 362.057 294.038 363.471C294.36 364.651 295.854 365.731 297.111 365.215Z" fill="#222221"/>
<path d="M303.502 416.358C303.805 421.16 303.833 426.006 304.732 430.749C305.649 435.59 307.776 440.004 311.001 443.729C314.149 447.366 318.252 450.086 322.875 451.442C327.135 452.691 331.665 452.793 336.068 452.559C340.884 452.303 345.675 451.737 350.496 451.552C356.177 451.334 361.88 451.348 367.527 450.614C373.189 449.878 378.489 448.322 383.589 445.736C388.267 443.365 392.569 440.343 396.72 437.154C400.899 433.943 404.952 430.567 409.22 427.472C413.075 424.676 416.582 421.664 419.535 417.908C422.673 413.916 425.322 409.573 428.279 405.45C431.49 400.973 434.803 396.528 437.29 391.592C439.191 387.819 441.096 383.97 442.508 379.984C443.858 376.174 444.745 371.849 443.609 367.867C441.607 360.847 434.256 358.081 427.707 357.168C420.699 356.191 413.388 356.724 406.581 358.659C400.527 360.38 394.068 363.453 390.67 369.017C389.917 370.251 389.345 371.628 389.001 373.031C388.236 376.156 393.056 377.489 393.822 374.36C393.898 374.05 393.982 373.742 394.081 373.438C394.117 373.329 394.384 372.621 394.29 372.845C394.204 373.05 394.54 372.333 394.617 372.187C394.784 371.873 394.964 371.567 395.157 371.268C395.313 371.027 395.477 370.791 395.647 370.56C395.357 370.952 395.832 370.338 395.939 370.214C396.379 369.705 396.853 369.227 397.352 368.775C398.003 368.186 398.06 368.146 398.571 367.779C399.196 367.33 399.844 366.914 400.509 366.526C401.09 366.188 401.683 365.872 402.286 365.576C403.025 365.213 403.541 364.986 404.07 364.776C410.136 362.366 416.267 361.498 422.707 361.718C423.508 361.745 424.309 361.793 425.108 361.863C425.993 361.94 426.451 361.993 427.008 362.078C428.364 362.284 429.712 362.564 431.031 362.944C431.677 363.13 432.313 363.345 432.944 363.58C433.079 363.63 433.212 363.684 433.345 363.738C433.258 363.703 432.902 363.54 433.333 363.735C433.645 363.876 433.955 364.022 434.26 364.18C435.457 364.801 436.561 365.565 437.434 366.607C439.535 369.116 439.379 372.5 438.605 375.632C437.702 379.289 436.063 382.692 434.428 386.066C432.323 390.408 429.957 394.482 427.178 398.432C424.272 402.563 421.376 406.689 418.526 410.859C416.19 414.277 413.626 417.476 410.495 420.205C406.851 423.381 402.755 426.085 398.962 429.087C391.4 435.071 383.532 441.47 374.116 444.219C364.278 447.091 353.753 446.135 343.644 446.972C335.777 447.624 326.976 448.954 319.829 444.72C316.022 442.464 312.902 438.855 311.134 434.802C309.515 431.09 309.099 426.996 308.86 422.997C308.728 420.784 308.642 418.568 308.502 416.355C308.301 413.162 303.3 413.139 303.502 416.358Z" fill="#222221"/>
<path d="M323.375 459.142C323.988 467.439 325.662 475.631 330.696 482.453C336.302 490.052 344.286 495.722 353.129 498.958C362.796 502.496 373.191 501.206 382.874 498.388C387.553 497.026 392.071 495.199 396.673 493.607C401.408 491.969 405.705 489.941 409.221 486.279C412.406 482.962 414.846 479.002 418.135 475.778C420.485 473.474 423.012 471.34 425.4 469.073C431.068 463.694 436.527 458.085 441.631 452.167C447.094 445.834 452.238 439.136 456.438 431.889C460.243 425.323 463.33 418.195 464.282 410.615C465.134 403.827 464.12 395.731 458.124 391.51C453.179 388.029 446.388 388.514 440.674 388.923C439.203 389.028 437.732 389.144 436.259 389.228C433.06 389.411 433.039 394.412 436.259 394.228C439.137 394.063 442.009 393.775 444.892 393.69C447.818 393.604 450.067 393.644 452.61 394.393C452.906 394.48 453.197 394.58 453.488 394.682C453.631 394.732 453.775 394.788 453.915 394.846C453.505 394.676 453.867 394.83 453.943 394.867C454.52 395.153 455.068 395.466 455.601 395.827C456.047 396.129 455.594 395.764 455.986 396.14C456.209 396.354 456.437 396.558 456.649 396.783C456.765 396.906 457.191 397.409 457.142 397.346C457.146 397.351 457.507 397.891 457.641 398.113C459.153 400.634 459.584 404.035 459.533 407.189C459.429 413.584 457.035 420.092 454.012 425.925C450.47 432.758 445.981 439.088 441.117 445.038C436.269 450.969 431.03 456.577 425.575 461.952C420.619 466.836 415.056 471.219 410.721 476.679C408.11 479.967 405.576 483.612 401.953 485.869C398.166 488.229 393.651 489.316 389.508 490.885C380.708 494.217 371.024 497.05 361.52 495.937C353.078 494.948 344.731 490.072 338.769 484.172C336.053 481.484 333.726 478.48 332.029 475.046C330.442 471.836 329.55 468.313 328.988 464.79C328.69 462.919 328.518 461.03 328.378 459.141C328.279 457.794 327.3 456.641 325.878 456.641C324.6 456.642 323.275 457.788 323.375 459.142Z" fill="#222221"/>
<path d="M375.162 497.267C374.706 501.297 375.917 505.392 379.049 508.091C382.008 510.641 385.864 511.867 389.666 512.466C398.462 513.853 408.115 513.478 416.347 509.943C421.603 507.686 426.25 504.223 430.453 500.382C435.198 496.046 439.687 491.291 443.928 486.465C448.291 481.501 451.701 475.887 455.822 470.743C457.839 468.226 459.89 465.716 461.643 463.004C463.251 460.515 464.537 457.836 465.635 455.088C468.037 449.076 469.202 442.435 466.445 436.359C464.084 431.154 459.02 426.025 452.898 426.341C449.696 426.506 449.677 431.507 452.898 431.341C456.978 431.13 460.22 434.88 461.923 438.445C464.013 442.821 462.96 447.814 461.389 452.233C459.54 457.434 456.527 461.908 453.102 466.192C451.178 468.598 449.213 470.986 447.482 473.538C445.865 475.922 444.289 478.288 442.453 480.515C438.552 485.246 434.229 489.661 429.895 493.994C426.229 497.659 422.296 501.082 417.776 503.66C413.446 506.129 408.632 507.677 403.644 507.973C400.414 508.164 397.156 508.2 393.928 507.963C390.535 507.714 386.577 507.04 383.717 505.332C383.332 505.102 382.951 504.856 382.597 504.581C382.97 504.871 382.589 504.565 382.503 504.485C382.317 504.31 382.124 504.144 381.945 503.961C381.843 503.857 381.747 503.749 381.647 503.644C381.55 503.536 381.456 503.426 381.364 503.314C381.531 503.536 381.529 503.531 381.361 503.301C381.132 502.967 380.939 502.62 380.738 502.269C380.679 502.166 380.477 501.715 380.664 502.155C380.575 501.945 380.5 501.726 380.432 501.509C380.288 501.055 380.175 500.587 380.103 500.116C380.17 500.556 380.096 500.011 380.09 499.903C380.074 499.594 380.055 499.287 380.055 498.977C380.055 498.405 380.1 497.837 380.164 497.269C380.316 495.925 378.906 494.769 377.664 494.769C376.184 494.767 375.315 495.919 375.162 497.267Z" fill="#222221"/>
<path d="M447.294 199.113C444.334 191.43 438.453 185.382 434.791 178.064C431.23 170.949 429.52 162.961 429.63 155.016C429.639 154.385 429.676 153.756 429.74 153.128C429.787 152.666 429.71 153.23 429.787 152.783C429.843 152.461 429.902 152.141 429.975 151.822C430.096 151.293 430.244 150.769 430.423 150.257C430.472 150.118 430.704 149.534 430.62 149.727C430.543 149.905 430.83 149.298 430.909 149.146C431.137 148.711 431.401 148.306 431.665 147.894C431.971 147.416 431.56 147.983 431.827 147.666C432 147.46 432.175 147.256 432.36 147.059C432.659 146.742 432.983 146.455 433.306 146.163C433.759 145.754 433.155 146.249 433.509 145.996C433.728 145.84 433.948 145.687 434.175 145.543C434.576 145.288 434.99 145.056 435.415 144.844C435.6 144.752 435.787 144.666 435.974 144.58C436.402 144.383 436.037 144.555 435.951 144.589C436.081 144.538 436.211 144.485 436.342 144.438C437.327 144.085 438.33 143.805 439.358 143.607C439.614 143.558 439.871 143.515 440.128 143.473C440.565 143.401 439.853 143.49 440.474 143.426C441.05 143.367 441.625 143.315 442.204 143.287C443.32 143.232 444.439 143.243 445.554 143.304C447.974 143.437 449.654 143.701 452.191 144.291C454.528 144.835 456.827 145.548 459.064 146.417C459.333 146.521 459.6 146.629 459.867 146.737C460.346 146.93 459.933 146.759 460.284 146.913C460.798 147.139 461.309 147.37 461.815 147.612C462.821 148.094 463.809 148.612 464.773 149.173C465.637 149.676 466.482 150.214 467.296 150.794C467.489 150.931 467.678 151.072 467.868 151.213C468.221 151.475 467.629 150.998 468.059 151.367C468.76 151.967 469.461 152.561 470.14 153.186C476.473 159.012 481.55 166.039 488.009 171.745C494.339 177.337 501.573 181.811 507.864 187.437C513.728 192.681 518.874 198.926 525.669 203.041C528.089 204.507 530.726 205.561 533.226 206.875C535.564 208.104 537.633 209.428 538.898 211.569C539.61 212.773 539.955 214.082 540.168 215.524C540.365 216.861 542.056 217.597 543.243 217.27C544.676 216.876 545.187 215.536 544.989 214.195C544.507 210.928 542.94 207.904 540.451 205.712C538.191 203.722 535.513 202.401 532.816 201.115C529.884 199.717 527.091 198.207 524.548 196.161C521.273 193.526 518.321 190.524 515.316 187.594C512.272 184.625 509.099 181.892 505.726 179.304C502.281 176.66 498.748 174.13 495.36 171.413C491.842 168.592 488.536 165.554 485.467 162.25C482.421 158.971 479.552 155.53 476.424 152.327C472.495 148.303 468.286 145.029 463.141 142.743C458.314 140.598 453.26 139.148 448.012 138.521C443.224 137.949 438.203 138.198 433.735 140.139C429.481 141.988 426.375 145.643 425.236 150.146C424.418 153.382 424.549 156.806 424.812 160.103C425.158 164.426 425.944 168.724 427.286 172.851C428.615 176.936 430.429 180.893 432.67 184.559C434.895 188.198 437.501 191.588 439.742 195.217C440.772 196.885 441.765 198.61 442.471 200.443C442.956 201.702 444.152 202.572 445.546 202.189C446.751 201.857 447.782 200.379 447.294 199.113Z" fill="#222221"/>
<path d="M529.178 205.341C539.363 205.893 549.552 205.179 559.595 203.424C568.305 201.903 576.806 199.714 584.986 196.323C600.449 189.914 614.14 180.219 626.638 169.184C639.221 158.074 650.625 145.726 662.309 133.697C669.711 126.077 676.854 118.192 684.204 110.518C691.573 102.824 698.971 95.157 706.304 87.429C709.979 83.555 713.638 79.666 717.27 75.752C720.931 71.805 724.165 67.448 727.527 63.245C728.211 62.39 728.771 61.804 729.669 61.196C730.834 60.407 731.676 59.62 732.512 58.489C733.885 56.632 735.321 54.823 736.81 53.058C739.787 49.531 742.978 46.1929 746.291 42.9809C747.914 41.4069 749.567 39.864 751.23 38.332C753.602 36.148 750.06 32.6189 747.694 34.7959C740.83 41.1149 734.354 47.7539 728.744 55.2269C728.127 56.0489 727.675 56.5169 726.828 57.0889C725.853 57.7489 725.038 58.4 724.303 59.319C722.592 61.458 720.88 63.598 719.169 65.737C717.455 67.879 715.77 70.021 713.904 72.034C712.111 73.968 710.311 75.8959 708.505 77.8179C694.047 93.2149 679.238 108.278 664.811 123.704C653.047 136.282 641.194 148.899 628.598 160.655C616.759 171.704 603.915 181.827 589.292 188.946C572.992 196.881 554.481 200.505 536.408 200.537C533.997 200.541 531.587 200.471 529.179 200.34C525.963 200.166 525.973 205.167 529.178 205.341Z" fill="#222221"/>
<path d="M365.267 191.542C369.199 191.315 373.134 190.946 377.005 190.205C378.923 189.838 380.822 189.371 382.686 188.786C383.587 188.503 384.51 188.223 385.374 187.839C386.408 187.379 387.373 186.727 388.381 186.204C395.412 182.561 403.108 180.419 410.526 177.722C414.89 176.136 419.231 174.488 423.554 172.791C424.81 172.298 425.685 171.116 425.3 169.716C424.971 168.519 423.489 167.474 422.225 167.97C414.808 170.881 407.333 173.637 399.795 176.218C395.984 177.523 392.234 178.892 388.567 180.57C386.809 181.375 385.164 182.369 383.439 183.226C381.814 184.034 379.849 184.444 378.089 184.865C373.878 185.872 369.581 186.293 365.267 186.541C362.068 186.727 362.047 191.728 365.267 191.542Z" fill="#222221"/>
<path d="M472.897 154.865C476.114 154.865 476.12 149.865 472.897 149.865C469.68 149.865 469.674 154.865 472.897 154.865Z" fill="#222221"/>
<path d="M478.395 162.214C483.236 161.926 488.044 161.124 492.902 161.109C497.911 161.094 502.706 162.625 507.585 163.592C512.831 164.631 518.006 165.171 523.354 164.919C528.148 164.693 533.086 164.075 537.845 164.972C541.268 165.617 544.574 167.087 547.788 168.407C550.408 169.483 553.557 170.988 556.102 172.767C557.131 173.486 558.249 174.442 559.221 175.538C559.667 176.042 559.831 176.245 560.265 176.939C560.451 177.237 560.625 177.542 560.786 177.854C561.031 178.331 561.019 178.307 561.119 178.587C562.23 181.67 561.867 184.846 559.761 187.715C558.331 189.663 556.527 191.397 554.832 193.112C553.436 194.524 551.655 195.174 549.756 195.619C545.365 196.649 540.84 196.997 537.581 200.52C535.398 202.879 538.926 206.424 541.117 204.056C543.786 201.171 548.008 201.235 551.578 200.32C553.71 199.774 555.713 198.885 557.429 197.497C559.169 196.089 560.727 194.27 562.201 192.59C565.216 189.154 567.167 185.241 566.659 180.567C566.272 177.003 564.628 173.852 562.113 171.316C557.331 166.494 550.618 164.144 544.425 161.746C539.61 159.882 534.699 159.388 529.564 159.59C524.25 159.799 518.971 160.351 513.671 159.598C510.577 159.159 507.516 158.502 504.467 157.826C501.559 157.181 498.666 156.428 495.686 156.203C489.908 155.767 484.152 156.872 478.399 157.215C475.198 157.405 475.176 162.406 478.395 162.214Z" fill="#222221"/>
<path d="M361.467 196.553C371.361 197.955 381.393 198.154 391.256 199.793C396.489 200.663 401.689 201.583 406.963 202.193C412.208 202.8 417.473 203.212 422.745 203.489C432.878 204.021 443.028 204.052 453.172 204.111C458.288 204.14 463.404 204.178 468.518 204.291C473.302 204.397 478.042 204.698 482.815 205.006C485.211 205.16 487.595 205.194 489.986 205.434C492.302 205.667 494.614 205.943 496.918 206.274C501.934 206.995 506.919 207.921 511.871 208.997C520.033 210.77 527.992 212.835 535.594 216.371C549.642 222.907 561.68 232.809 572.392 243.884C583.256 255.116 592.844 267.482 602.705 279.58C603.907 281.054 605.113 282.524 606.326 283.989C607.188 285.03 608.97 284.881 609.862 283.989C610.892 282.959 610.726 281.497 609.862 280.454C599.844 268.358 590.307 255.845 579.649 244.291C569.027 232.776 557.147 222.135 543.293 214.653C536.169 210.806 528.56 207.803 520.699 205.854C511.126 203.48 501.35 201.67 491.545 200.597C486.731 200.07 481.872 199.909 477.038 199.581C472.085 199.245 467.094 199.243 462.131 199.183C451.922 199.059 441.711 199.127 431.505 198.837C421.093 198.541 410.666 197.881 400.362 196.311C395.169 195.52 390.035 194.493 384.811 193.904C379.785 193.337 374.737 192.994 369.703 192.517C367.397 192.299 365.092 192.055 362.798 191.73C361.463 191.541 360.113 192.057 359.723 193.476C359.398 194.649 360.121 196.363 361.467 196.553Z" fill="#222221"/>
<path d="M608.992 285.637C608.034 285.052 607.583 284.462 607.585 283.38C606.331 284.1 605.077 284.819 603.823 285.539C607.979 288.402 611.034 292.768 613.827 296.89C616.803 301.283 619.673 305.716 622.791 310.012C626.599 315.26 629.823 320.899 632.999 326.543C636.1 332.054 639.29 337.48 642.64 342.842C645.998 348.216 649.28 353.761 651.375 359.769C653.572 366.066 654.447 372.746 656.087 379.193C656.92 382.468 658.066 385.636 659.041 388.868C660.006 392.067 660.843 395.303 661.608 398.556C663.171 405.206 664.422 411.924 665.849 418.604C667.015 424.065 668.589 429.456 669.589 434.951C670.303 438.875 670.591 443.124 668.571 446.42C666.298 450.128 661.277 451.953 657.095 452.926C652.526 453.989 647.479 453.871 643.272 451.611C641.208 450.502 639.257 448.939 637.909 447.007C636.518 445.013 635.667 442.744 634.99 440.426C633.498 435.316 632.771 430.05 630.858 425.059C626.346 413.283 618.888 403.013 612.967 391.954C606.561 379.989 600.928 367.624 594.343 355.752C587.882 344.105 580.061 333.391 572.125 322.723C570.184 320.114 568.245 317.505 566.328 314.879C565.533 313.79 564.157 313.251 562.908 313.982C561.73 314.671 561.339 316.226 562.011 317.402C567.843 327.607 575.184 336.812 581.978 346.371C585.361 351.131 588.62 355.992 591.459 361.1C594.538 366.639 597 372.51 599.51 378.321C604.734 390.414 609.653 402.639 615.129 414.621C617.556 419.931 620.226 425.132 622.56 430.484C624.756 435.519 626.727 440.93 627.188 446.442C627.589 451.239 626.552 455.601 624.687 459.991C624.311 460.876 623.9 461.753 623.439 462.597C623.228 462.984 623.006 463.367 622.759 463.732C622.341 464.349 623.262 463.28 622.53 464.016C622.292 464.255 622.061 464.516 621.789 464.718C620.087 465.983 617.692 466.228 615.66 466.526C609.97 467.359 604.575 469.457 598.775 469.61C596.148 469.679 593.403 469.548 590.931 468.568C589.2 467.881 587.833 466.743 586.509 465.344C582.933 461.565 579.689 457.281 576.771 452.984C573.363 447.965 570.361 442.688 567.394 437.401C561.552 426.993 555.367 416.783 549.378 406.459C543.416 396.182 537.235 385.968 529.609 376.819C525.841 372.298 521.859 368.003 518.237 363.354C514.619 358.709 511.093 353.982 507.17 349.585C505.255 347.439 503.245 345.382 501.113 343.451C499.119 341.645 495.488 344.03 497.187 346.48C500.585 351.382 504.771 355.585 509.073 359.687C513.488 363.896 517.738 368.206 521.782 372.776C530.164 382.249 538.021 392.218 545.636 402.315C553.171 412.307 560.351 422.595 566.628 433.431C572.381 443.363 578.712 454.409 579.296 466.151C579.524 470.746 578.887 476.213 575.745 479.649C573.169 482.466 569.531 483.756 565.667 484.325C561.781 484.897 557.153 484.643 553.294 484.066C548.177 483.302 543.118 481.968 538.526 479.539C534.111 477.203 529.935 473.985 526.567 470.287C524.926 468.485 523.986 466.366 523.073 464.135C521.909 461.289 520.617 458.501 519.205 455.77C516.368 450.283 513.285 444.869 510.124 439.563C506.937 434.214 503.253 429.186 499.518 424.212C491.668 413.756 484.298 403.035 477.161 392.081C473.805 386.929 470.455 381.773 467.075 376.636C463.841 371.721 460.492 366.855 456.672 362.372C454.892 360.283 453 358.295 450.96 356.458C449.95 357.767 448.94 359.076 447.93 360.385C451.776 363.166 454.472 367.958 456.872 372.058C458.19 374.308 459.45 376.593 460.805 378.821C462.357 381.372 464.053 383.831 465.581 386.399C469.004 392.154 472.006 398.146 474.844 404.207C477.727 410.365 480.621 416.55 483.282 422.807C485.893 428.948 487.99 435.294 490.524 441.467C491.82 444.623 493.205 447.738 494.796 450.756C496.24 453.497 497.78 456.19 499.14 458.975C500.489 461.737 501.52 464.576 502.313 467.544C502.988 470.074 504.034 472.483 504.853 474.967C505.216 476.069 505.584 477.2 505.755 478.351C505.894 479.287 505.863 479.842 505.478 480.847C504.922 482.299 503.244 484.015 501.71 485.226C497.381 488.644 492.734 490.416 487.577 491.792C480.574 493.66 473.344 494.007 466.142 494.398C462.942 494.572 462.921 499.573 466.142 499.398C478.29 498.739 490.925 497.867 501.573 491.358C505.724 488.82 510.236 485.141 510.769 479.963C511.038 477.351 510.042 474.628 509.18 472.208C508.212 469.49 507.373 466.784 506.523 464.03C504.564 457.685 500.996 452.118 498.077 446.208C494.987 439.953 492.743 433.333 490.246 426.83C487.697 420.193 484.68 413.754 481.74 407.284C478.848 400.92 475.879 394.584 472.513 388.453C469.209 382.435 465.36 376.748 461.927 370.804C458.836 365.451 455.553 359.755 450.453 356.067C448.154 354.405 445.327 358.105 447.423 359.993C456.179 367.88 462.209 378.342 468.603 388.107C476 399.404 483.266 410.787 491.349 421.613C495.162 426.72 499.076 431.757 502.619 437.058C506.175 442.379 509.244 448.031 512.361 453.617C513.876 456.332 515.34 459.076 516.665 461.889C517.939 464.596 518.839 467.521 520.312 470.125C522.857 474.626 527.407 478.224 531.575 481.144C540.054 487.086 550.818 489.695 561.097 489.625C565.64 489.594 570.274 488.9 574.37 486.848C578.533 484.763 581.541 481.12 582.998 476.721C586.875 465.015 582.052 452.219 576.815 441.766C571.072 430.301 564.165 419.455 556.729 409.021C549.217 398.481 541.235 388.243 533.001 378.259C528.804 373.171 524.499 368.162 519.961 363.374C515.828 359.013 511.266 355.084 507.123 350.733C505.094 348.602 503.181 346.375 501.503 343.956C500.194 344.966 498.885 345.976 497.576 346.986C506.625 355.183 513.113 365.623 521.124 374.748C525.098 379.275 528.964 383.771 532.422 388.717C535.905 393.698 539.104 398.87 542.2 404.097C545.293 409.321 548.281 414.606 551.349 419.844C554.442 425.126 557.672 430.321 560.678 435.654C563.732 441.071 566.712 446.535 570.029 451.798C573.238 456.89 576.892 461.581 580.693 466.237C583.618 469.82 586.867 472.874 591.506 473.966C597.76 475.438 604.509 474.369 610.602 472.675C613.135 471.971 615.638 471.589 618.226 471.157C620.791 470.728 623.305 469.962 625.323 468.254C627.039 466.802 628.046 464.707 628.929 462.685C629.847 460.581 630.701 458.427 631.329 456.216C634.591 444.722 629.249 432.737 624.382 422.536C618.765 410.765 613.583 398.833 608.515 386.817C603.514 374.962 598.793 362.877 591.832 352.003C585.341 341.862 577.671 332.543 571.034 322.502C569.387 320.01 567.81 317.472 566.328 314.879C564.889 315.72 563.45 316.562 562.011 317.404C570.082 328.456 578.593 339.227 585.752 350.912C593.075 362.865 598.934 375.639 605.316 388.099C608.313 393.949 611.489 399.674 614.871 405.31C618.207 410.869 621.585 416.425 624.312 422.317C625.555 425.004 626.671 427.773 627.465 430.629C628.187 433.223 628.697 435.871 629.319 438.49C630.599 443.883 632.422 449.232 636.669 453.028C645.025 460.498 657.887 459.801 667.172 454.377C671.595 451.793 674.333 447.682 674.958 442.613C675.548 437.828 674.37 432.926 673.244 428.303C670.021 415.076 667.973 401.53 664.138 388.459C663.165 385.144 661.968 381.902 661.09 378.559C660.206 375.193 659.526 371.779 658.793 368.378C658.088 365.108 657.361 361.82 656.272 358.652C655.173 355.453 653.768 352.353 652.206 349.355C649.141 343.47 645.363 338.011 642.017 332.29C638.665 326.558 635.558 320.685 632.092 315.02C628.958 309.898 625.266 305.182 621.972 300.169C618.874 295.455 615.858 290.633 612.111 286.394C610.391 284.449 608.488 282.697 606.347 281.223C604.747 280.121 602.589 281.595 602.585 283.382C602.579 286.251 604.06 288.486 606.468 289.957C609.222 291.636 611.737 287.314 608.992 285.637Z" fill="#222221"/>
<path d="M658.316 375.407C668.262 376.405 674.283 367.117 681.384 362.042C691.37 354.905 702.556 349.623 713.363 343.884C719.96 340.381 726.562 336.889 733.199 333.461C736.059 331.984 733.533 327.668 730.675 329.144C719.467 334.932 708.292 340.801 697.165 346.744C691.946 349.531 686.78 352.433 681.839 355.693C677.744 358.395 674.268 361.588 670.614 364.831C667.114 367.937 663.16 370.893 658.315 370.407C656.97 370.272 655.815 371.653 655.815 372.907C655.816 374.371 656.966 375.271 658.316 375.407Z" fill="#222221"/>
<path d="M447.65 483.138C448.042 486.002 449.917 488.377 451.827 490.427C452.713 491.379 453.639 492.296 454.487 493.283C454.591 493.404 454.694 493.526 454.796 493.65C454.83 493.691 454.863 493.732 454.897 493.773C455.063 493.982 455.03 493.937 454.8 493.64C454.808 493.797 455.214 494.208 455.302 494.341C455.66 494.876 455.968 495.437 456.22 496.03C456.733 497.238 458.605 497.594 459.641 496.927C460.897 496.117 461.087 494.8 460.538 493.506C459.499 491.059 457.496 489.147 455.699 487.247C455.272 486.796 454.849 486.34 454.446 485.867C454.368 485.775 454.006 485.204 453.889 485.187C454.118 485.484 454.152 485.527 453.993 485.315C453.962 485.272 453.931 485.23 453.901 485.187C453.81 485.059 453.721 484.93 453.634 484.8C453.462 484.541 453.301 484.275 453.152 484.003C453.078 483.867 453.007 483.73 452.94 483.591C452.906 483.522 452.874 483.452 452.842 483.381C452.764 483.207 452.798 483.288 452.943 483.623C452.978 483.441 452.704 482.938 452.652 482.74C452.571 482.433 452.515 482.122 452.472 481.808C452.294 480.508 450.563 479.684 449.397 480.062C447.967 480.525 447.459 481.744 447.65 483.138Z" fill="#222221"/>
<path d="M392.63 363.092C392.704 363.647 392.778 364.203 392.852 364.758C394.405 364.337 395.958 363.917 397.511 363.496C393.571 356.479 388.858 349.505 382.152 344.855C376.99 341.276 369.583 340.156 363.583 342.044C349.24 346.558 352.625 367.393 360.294 376.419C362.587 379.118 365.718 381.172 369.183 381.986C373.086 382.903 377.138 382.392 380.915 381.172C381.676 380.926 382.532 380.284 382.661 379.426C382.768 378.716 382.874 378.005 382.98 377.295C383.18 375.961 382.646 374.608 381.234 374.22C380.054 373.896 378.36 374.623 378.159 375.966C378.052 376.677 377.946 377.387 377.839 378.097C378.421 377.515 379.003 376.933 379.585 376.351C377.018 377.18 374.053 377.73 371.546 377.37C369.06 377.013 366.928 375.958 365.138 374.269C361.205 370.556 359.381 365.227 358.91 359.919C358.463 354.878 359.191 349.171 364.046 347.17C368.499 345.336 374.477 346.027 378.429 348.391C385.045 352.349 389.51 359.462 393.192 366.02C394.322 368.033 398.191 367.307 397.851 364.758C397.777 364.203 397.703 363.647 397.629 363.092C397.45 361.754 396.608 360.592 395.129 360.592C393.918 360.592 392.45 361.744 392.63 363.092Z" fill="#222221"/>
<path d="M434.28 392.433C430.418 388.952 426.758 385.257 422.578 382.146C418.8 379.333 414.128 376.788 409.262 377.713C403.418 378.823 400.395 384.806 398.457 389.826C396.016 396.151 395.385 404.235 400.157 409.693C404.012 414.102 410.352 413.127 415.548 412.921C418.755 412.794 418.771 407.793 415.548 407.921C413.329 408.009 411.104 408.223 408.882 408.152C407.208 408.099 405.853 407.909 404.536 406.978C404.899 407.234 404.25 406.734 404.248 406.731C404.119 406.611 403.994 406.486 403.873 406.358C403.524 405.986 403.447 405.86 403.157 405.377C402.501 404.284 402.097 403.088 401.821 401.846C401.153 398.839 401.736 395.716 402.677 392.835C403.527 390.234 404.652 387.472 406.357 385.304C406.887 384.63 407.73 383.82 408.215 383.498C409.12 382.897 409.285 382.833 410.355 382.581C410.831 382.469 410.516 382.538 410.398 382.555C410.634 382.523 410.876 382.511 411.114 382.504C411.516 382.493 411.922 382.509 412.322 382.556C411.914 382.509 412.948 382.691 413.129 382.737C413.635 382.865 414.132 383.028 414.619 383.213C415.12 383.404 416.17 383.936 416.909 384.366C417.865 384.922 418.783 385.538 419.677 386.188C423.636 389.069 427.095 392.683 430.743 395.97C433.13 398.118 436.677 394.593 434.28 392.433Z" fill="#222221"/>
<path d="M454.894 416.103C453.351 415.84 452.111 414.969 450.851 414.083C449.465 413.109 448.125 412.19 446.605 411.44C445.455 410.872 444.502 409.569 443.148 409.003C441.578 408.347 439.99 408.684 438.497 409.365C435.886 410.555 433.713 412.83 431.845 414.953C430.438 416.551 429.002 418.225 427.956 420.089C425.843 423.853 424.754 428.165 424.252 432.424C423.763 436.576 423.963 441.121 425.937 444.894C428.456 449.708 433.62 450.925 438.622 449.853C441.767 449.179 440.436 444.358 437.293 445.032C436.284 445.248 435.911 445.323 434.718 445.283C434.497 445.276 434.278 445.26 434.058 445.24C434.665 445.297 433.996 445.23 433.892 445.205C433.442 445.1 433.002 444.986 432.572 444.815C433.18 445.057 432.246 444.608 432.089 444.521C431.956 444.448 431.834 444.353 431.709 444.268C432.231 444.627 431.747 444.3 431.649 444.205C431.385 443.951 431.132 443.697 430.892 443.421C430.487 442.955 431.175 443.862 430.837 443.34C430.701 443.129 430.562 442.923 430.437 442.705C430.245 442.371 430.073 442.025 429.921 441.671C430.162 442.232 429.749 441.134 429.693 440.951C429.446 440.14 429.27 439.304 429.156 438.464C429.238 439.065 429.148 438.327 429.142 438.248C429.125 438.023 429.103 437.799 429.088 437.575C429.058 437.117 429.042 436.659 429.038 436.2C429.029 435.258 429.071 434.315 429.155 433.376C429.257 432.229 429.264 432.173 429.486 430.958C429.671 429.951 429.899 428.951 430.171 427.964C430.392 427.161 430.642 426.367 430.925 425.584C431.072 425.177 431.227 424.772 431.394 424.372C431.168 424.914 431.439 424.277 431.475 424.202C431.59 423.958 431.702 423.713 431.822 423.471C432.129 422.856 432.463 422.253 432.84 421.678C433.484 420.695 433.482 420.759 434.232 419.845C435.74 418.005 437.43 416.045 439.325 414.677C439.563 414.505 439.809 414.343 440.06 414.191C440.146 414.139 440.979 413.706 440.66 413.838C440.881 413.746 441.134 413.716 441.35 413.622C441.049 413.753 441.341 413.714 441.189 413.575C442.096 414.401 443.23 415.34 444.403 415.897C447.553 417.392 450.006 420.318 453.567 420.926C454.896 421.153 456.26 420.573 456.642 419.18C456.971 417.976 456.233 416.331 454.894 416.103Z" fill="#222221"/>
<path d="M443.083 447.026C443.335 450.622 443.765 454.276 445.326 457.567C446.731 460.529 449.337 462.669 452.481 463.562C454.621 464.17 456.915 464.246 459.122 464.086C460.423 463.992 461.685 463.004 461.622 461.586C461.565 460.312 460.519 458.985 459.122 459.086C458.184 459.154 457.243 459.183 456.303 459.137C455.914 459.118 455.528 459.072 455.14 459.041C454.975 459.028 455.643 459.127 455.132 459.035C454.918 458.996 454.705 458.958 454.492 458.912C454.164 458.84 453.839 458.755 453.519 458.654C453.354 458.602 453.192 458.543 453.028 458.486C452.507 458.305 453.383 458.668 453.027 458.493C452.737 458.35 452.447 458.212 452.168 458.046C452.052 457.977 451.938 457.905 451.826 457.831C451.77 457.794 451.717 457.754 451.66 457.718C451.308 457.49 451.716 457.71 451.794 457.833C451.661 457.624 451.336 457.448 451.154 457.27C450.935 457.056 450.749 456.812 450.535 456.594C450.322 456.377 450.851 457.043 450.682 456.789C450.646 456.734 450.602 456.683 450.565 456.629C450.49 456.519 450.413 456.41 450.34 456.299C450.155 456.014 449.985 455.72 449.828 455.418C449.764 455.295 449.702 455.17 449.643 455.044C449.364 454.456 449.673 455.034 449.637 455.059C449.656 455.046 449.312 454.196 449.28 454.101C449.05 453.413 448.867 452.71 448.714 452.001C448.627 451.596 448.55 451.189 448.482 450.78C448.444 450.555 448.41 450.329 448.376 450.103C448.287 449.514 448.411 450.426 448.36 449.985C448.245 449.001 448.152 448.016 448.082 447.028C447.991 445.726 446.998 444.465 445.582 444.528C444.307 444.584 442.985 445.629 443.083 447.026Z" fill="#222221"/>
<path d="M361.898 197.327C377.993 198.575 394.129 197.865 410.248 197.736C418.397 197.671 426.554 197.767 434.685 198.36C442.672 198.943 450.507 200.26 458.393 201.597C473.75 204.201 489.124 206.778 504.309 210.279C512.067 212.067 519.77 214.096 527.376 216.45C533.635 218.387 539.542 220.623 545.15 224.06C555.891 230.642 564.654 239.892 573.209 249.014C575.392 251.341 577.567 253.675 579.771 255.983C580.783 257.042 581.8 258.095 582.827 259.14C584.157 260.492 585.165 262.024 586.265 263.566C590.554 269.578 595.129 275.39 599.918 281.012C604.899 286.859 610.119 292.5 615.487 297.993C618.021 300.587 620.435 302.949 622.125 306.202C623.616 309.072 624.61 312.155 625.745 315.174C626.948 318.373 628.262 321.588 630.272 324.375C632.358 327.266 634.917 329.695 637.44 332.193C638.478 333.22 639.754 334.293 640.575 335.507C641.559 336.962 642.371 338.48 643.484 339.861C645.729 342.644 647.578 345.694 649.323 348.819C656.722 362.072 659.343 377.639 661.394 392.511C662.443 400.121 663.206 407.768 664.016 415.406C664.436 419.363 664.864 423.32 665.339 427.271C665.564 429.141 665.708 431.054 666.145 432.887C666.613 434.851 667.016 436.836 667.287 438.837C667.799 442.622 667.814 446.462 667.353 450.251C667.19 451.593 668.619 452.751 669.853 452.751C671.34 452.751 672.189 451.597 672.353 450.251C672.847 446.186 672.737 442.129 672.185 438.076C671.664 434.247 670.725 430.526 670.269 426.687C669.326 418.754 668.563 410.801 667.668 402.862C666.792 395.093 665.791 387.33 664.377 379.639C662.953 371.897 661.285 363.992 658.481 356.617C657.193 353.23 655.649 349.943 653.904 346.769C652.085 343.461 650.179 339.932 647.671 337.102C646.669 335.971 645.874 334.7 645.115 333.4C644.229 331.882 642.918 330.611 641.684 329.364C639.269 326.923 636.62 324.64 634.589 321.851C630.541 316.29 629.454 309.227 626.21 303.24C624.445 299.983 621.99 297.486 619.423 294.866C616.645 292.031 613.906 289.157 611.219 286.236C606.085 280.654 601.137 274.898 596.463 268.924C594.16 265.979 591.936 262.971 589.783 259.915C588.796 258.513 587.891 257.153 586.685 255.931C585.494 254.725 584.316 253.505 583.145 252.279C574.328 243.039 565.893 233.32 555.787 225.433C550.722 221.48 545.311 217.988 539.408 215.417C532.554 212.431 525.197 210.474 517.991 208.535C502.686 204.416 487.1 201.479 471.491 198.783C463.551 197.412 455.61 195.913 447.635 194.764C439.386 193.575 431.075 193 422.746 192.807C406.463 192.432 390.18 193.396 373.897 192.947C369.892 192.837 365.89 192.637 361.895 192.327C358.689 192.079 358.705 197.08 361.898 197.327Z" fill="#222221"/>
<path d="M282.355 368.686C282.372 369.672 282.375 370.658 282.311 371.642C282.253 372.534 282.251 372.713 282.023 373.565C281.958 373.806 281.879 374.041 281.798 374.277C281.677 374.626 281.985 373.904 281.822 374.217C281.779 374.299 281.744 374.386 281.697 374.466C281.574 374.672 281.451 374.876 281.324 375.079C280.989 375.619 281.463 374.965 281.117 375.354C279.202 377.5 277.284 379.767 276.214 382.469C274.988 385.564 274.927 389.188 275.079 392.47C275.226 395.663 275.587 399 276.582 402.052C278.562 408.127 283.043 412.439 288.878 414.838C294.42 417.116 300.646 417.582 306.579 417.607C312.32 417.632 318.049 417.15 323.782 416.924C331.998 416.599 339.547 414.044 346.452 409.621C350.302 407.155 353.945 404.376 357.769 401.867C361.766 399.245 365.81 396.687 369.671 393.863C371.437 392.572 373.187 391.241 374.857 389.828C375.285 389.466 374.47 390.105 374.826 389.851C374.988 389.735 375.145 389.612 375.306 389.494C375.673 389.225 376.045 388.962 376.417 388.701C378.365 387.337 380.349 386.026 382.314 384.687C387.276 381.308 392.227 377.827 396.689 373.797C400.302 370.534 404.466 366.351 405.002 361.253C405.108 360.244 405.014 359.206 404.725 358.232C403.812 355.154 398.985 356.465 399.904 359.561C399.966 359.769 399.998 359.986 400.059 360.193C399.935 359.772 400.046 359.875 400.048 360.257C400.049 360.45 400.046 360.642 400.042 360.835C400.04 360.946 400.021 361.059 400.013 361.169C400.024 361.014 400.122 360.696 400.025 361.011C399.894 361.438 399.795 361.877 399.66 362.305C399.488 362.848 399.78 362.101 399.584 362.5C399.466 362.739 399.353 362.979 399.227 363.213C398.07 365.358 396.935 366.585 395.115 368.405C391.109 372.411 386.753 375.554 382.12 378.771C378.509 381.278 374.711 383.581 371.275 386.331C364.288 391.923 356.581 396.414 349.295 401.584C343.026 406.032 336.768 410.036 329.07 411.393C325.986 411.937 322.849 411.932 319.731 412.1C316.999 412.247 314.268 412.418 311.534 412.518C305.788 412.727 300.014 412.711 294.615 411.421C291.895 410.771 289.82 410.027 287.541 408.594C285.548 407.341 283.879 405.664 282.659 403.534C281.402 401.339 280.76 398.722 280.406 396.161C279.979 393.069 279.804 389.481 280.291 386.569C280.407 385.875 280.561 385.184 280.778 384.514C280.814 384.403 281.109 383.68 280.933 384.061C281.101 383.699 281.306 383.352 281.509 383.009C282.276 381.713 282.812 380.999 283.692 379.992C285.227 378.235 286.56 376.55 287.006 374.192C287.349 372.376 287.392 370.527 287.36 368.685C287.299 365.472 282.299 365.462 282.355 368.686Z" fill="#222221"/>
<path d="M299.89 361.07C303.881 361.467 307.906 362.125 311.581 360.084C313.054 359.266 314.342 358.213 316.01 357.812C317.609 357.428 319.281 357.518 320.912 357.428C322.856 357.32 324.719 357.009 326.503 356.212C328.105 355.497 329.514 354.336 330.889 353.261C333.386 351.309 335.677 349.117 338.075 347.049C340.321 345.113 342.7 343.339 345.396 342.074C348.673 340.536 352.424 340.145 355.964 339.613C359.883 339.024 363.823 338.454 367.61 337.243C371.52 335.993 375.261 334.27 379.193 333.071C382.454 332.076 386.396 331.001 389.506 331.483C390.089 331.573 390.969 331.811 391.334 331.98C391.745 332.17 392.16 332.481 392.452 332.781C392.643 332.977 392.923 333.432 393.036 333.765C393.296 334.536 393.312 335.228 393.284 336.059C393.177 339.277 398.177 339.273 398.284 336.059C398.392 332.815 397.211 329.726 394.377 327.963C391.911 326.429 388.731 326.203 385.912 326.52C381.784 326.984 377.795 328.172 373.901 329.582C369.891 331.033 366.019 332.699 361.828 333.581C357.707 334.448 353.508 334.867 349.374 335.662C345.887 336.332 342.6 337.633 339.629 339.587C336.846 341.417 334.359 343.651 331.883 345.866C330.675 346.946 329.464 348.022 328.208 349.045C326.983 350.043 325.639 351.201 324.172 351.813C322.399 352.553 320.391 352.437 318.514 352.521C316.224 352.623 314.011 352.97 311.954 354.031C310.385 354.84 308.998 356.14 307.212 356.448C304.836 356.858 302.257 356.308 299.888 356.072C298.543 355.938 297.388 357.317 297.388 358.572C297.39 360.033 298.541 360.935 299.89 361.07Z" fill="#222221"/>
<path d="M277.478 379.138C277.723 378.452 277.986 377.773 278.267 377.102C278.183 377.301 278.099 377.5 278.015 377.699C278.886 375.64 279.928 373.662 281.142 371.784C281.853 370.684 281.402 368.975 280.245 368.363C279.002 367.706 277.584 368.085 276.825 369.26C275.099 371.93 273.727 374.816 272.657 377.808C272.216 379.041 273.154 380.599 274.403 380.883C275.806 381.204 277.005 380.459 277.478 379.138Z" fill="#222221"/>
<path d="M308.546 424.816C309.75 433.058 313.952 439.94 319.548 445.959C322.216 448.829 325.011 451.674 327.986 454.228C330.306 456.219 332.899 458.085 335.932 458.779C343.83 460.587 351.54 455.292 358.031 451.597C360.117 450.409 362.233 449.364 364.526 448.638C366.726 447.941 368.986 447.468 371.235 446.961C375.494 446.002 379.63 444.781 383.263 442.283C389.494 438 393.922 431.569 400.69 428.024C408.585 423.89 415.937 418.72 422.178 412.333C424.512 409.944 426.675 407.383 428.905 404.897C431.252 402.28 433.578 399.64 435.779 396.898C437.979 394.158 440.141 391.333 441.859 388.259C443.374 385.549 444.591 382.563 444.347 379.398C443.749 371.629 437.147 365.489 430.996 361.496C427.693 359.352 424.074 357.728 420.199 356.959C415.528 356.032 410.761 356.067 406.024 356.222C403.7 356.298 401.376 356.391 399.05 356.397C395.833 356.405 395.827 361.405 399.05 361.397C407.384 361.375 416.618 359.823 424.433 363.535C427.365 364.927 430.126 366.756 432.562 368.898C434.979 371.024 437.32 373.535 438.587 376.542C439.189 377.971 439.454 379.318 439.362 380.799C439.336 381.222 439.229 381.744 439.083 382.254C439.007 382.521 438.92 382.784 438.827 383.045C438.772 383.201 438.713 383.356 438.652 383.51C438.507 383.881 438.652 383.522 438.551 383.747C437.283 386.555 435.489 389.122 433.64 391.573C429.993 396.409 425.794 400.787 421.816 405.344C416.326 411.633 409.94 416.916 402.753 421.162C399.276 423.216 395.698 424.894 392.538 427.447C389.778 429.677 387.347 432.272 384.743 434.674C382.281 436.945 379.578 439.116 376.417 440.327C372.286 441.909 367.835 442.403 363.616 443.685C355.534 446.14 349.044 452.724 340.58 454.043C338.449 454.375 336.372 453.948 334.427 452.809C331.816 451.281 329.598 448.992 327.351 446.769C322.179 441.651 316.987 436.281 314.675 429.206C314.066 427.341 313.649 425.427 313.365 423.487C313.17 422.15 311.476 421.415 310.29 421.741C308.858 422.135 308.35 423.475 308.546 424.816Z" fill="#222221"/>
<path d="M336.206 463.968C337.114 458.875 335.134 454.253 332.523 449.977C331.301 447.977 327.683 448.661 327.864 451.239C328.15 455.312 328.343 459.411 329.052 463.439C329.72 467.23 331.068 470.841 332.894 474.225C333.955 476.193 335.209 478.044 336.33 479.977C337.377 481.782 338.358 483.626 339.437 485.413C341.633 489.05 344.345 492.401 348.09 494.527C364.467 503.827 384.104 497.871 398.611 487.889C402.223 485.404 405.663 482.651 408.882 479.674C410.474 478.202 411.997 476.68 413.745 475.387C415.559 474.045 417.45 472.812 419.317 471.545C423.154 468.941 427.022 466.133 429.546 462.159C431.859 458.519 432.708 454.188 435.054 450.554C439.559 443.577 446.879 438.977 451.538 432.085C453.442 429.267 454.835 426.047 456.419 423.04C458.243 419.575 460.014 416.084 461.514 412.465C462.776 409.418 464.004 406.068 463.965 402.721C463.923 399.061 462.628 395.36 460.314 392.532C456.148 387.441 449.044 386.285 442.858 385.919C441.308 385.827 439.755 385.789 438.203 385.763C434.984 385.707 434.984 390.707 438.203 390.763C443.837 390.861 449.856 390.889 454.47 393.926C456.477 395.247 457.917 397.378 458.572 400.005C458.916 401.387 459.065 402.781 458.877 404.198C458.929 403.809 458.793 404.625 458.773 404.727C458.699 405.101 458.614 405.472 458.52 405.841C458.319 406.635 458.078 407.418 457.814 408.193C455.656 414.517 452.094 420.253 449.145 426.218C445.678 433.23 439.21 437.771 434.167 443.543C431.314 446.809 429.257 450.314 427.689 454.35C427.006 456.108 426.338 457.857 425.338 459.467C424.209 461.286 422.661 462.784 421.022 464.145C417.838 466.79 414.196 468.827 410.895 471.317C407.546 473.842 404.665 476.898 401.427 479.559C389.291 489.536 372.562 497.624 356.646 492.759C352.83 491.592 349.199 489.862 346.529 486.829C344.005 483.962 342.369 480.391 340.452 477.118C338.516 473.813 336.372 470.67 335.121 467.017C334.035 463.844 333.578 460.614 333.302 457.312C333.133 455.29 333.007 453.264 332.865 451.24C331.312 451.661 329.759 452.081 328.206 452.502C330.019 455.471 332.031 459.022 331.385 462.64C331.148 463.968 331.745 465.334 333.131 465.715C334.34 466.047 335.968 465.305 336.206 463.968Z" fill="#222221"/>
<path d="M383.499 495.931C383.432 499.898 384.114 504.045 386.267 507.448C388.188 510.482 391.026 512.614 394.337 513.929C401.165 516.639 409.281 515.568 416.121 513.481C423.223 511.315 430.173 507.727 435.356 502.33C442.852 494.526 452.374 488.379 457.362 478.47C458.909 475.397 459.74 472.134 461 468.958C462.323 465.625 464.163 462.523 465.492 459.189C468.345 452.036 466.847 444.653 466.802 437.203C466.783 433.987 461.782 433.98 461.802 437.203C461.838 443.244 463.259 449.618 461.492 455.525C460.642 458.366 459.224 460.976 457.944 463.636C456.608 466.412 455.686 469.243 454.664 472.136C453.009 476.819 450.302 480.971 446.904 484.571C443.406 488.277 439.428 491.491 435.71 494.967C433.986 496.579 432.39 498.317 430.684 499.946C429.367 501.203 428.558 501.819 427.32 502.675C425.903 503.655 424.42 504.54 422.896 505.342C421.249 506.208 419.749 506.885 418.337 507.433C415.019 508.721 411.562 509.673 408.038 510.191C407.247 510.307 408.533 510.136 407.743 510.23C407.504 510.258 407.266 510.285 407.026 510.31C406.631 510.35 406.235 510.384 405.839 510.412C404.985 510.471 404.128 510.5 403.272 510.493C402.442 510.486 401.612 510.446 400.786 510.366C400.639 510.352 400.492 510.335 400.345 510.32C399.615 510.243 400.859 510.406 400.138 510.295C399.711 510.229 399.285 510.155 398.861 510.066C398.039 509.893 397.226 509.673 396.432 509.397C396.238 509.329 396.046 509.256 395.854 509.184C395.217 508.947 396.315 509.403 395.7 509.123C395.333 508.957 394.971 508.782 394.617 508.59C394.267 508.4 393.925 508.197 393.592 507.979C393.426 507.87 393.265 507.756 393.102 507.643C392.698 507.364 393.385 507.911 392.903 507.492C392.272 506.943 391.688 506.378 391.146 505.74C390.848 505.388 391.109 505.698 391.163 505.77C391 505.552 390.843 505.328 390.694 505.1C390.465 504.751 390.253 504.39 390.057 504.021C389.974 503.864 389.894 503.704 389.817 503.544C389.77 503.447 389.471 502.738 389.673 503.243C389.504 502.823 389.356 502.395 389.224 501.962C388.559 499.777 388.456 498.304 388.496 495.934C388.553 492.712 383.553 492.712 383.499 495.931Z" fill="#222221"/>
<path d="M452.105 486.807C454.24 495.281 463.599 496.08 470.886 495.715C474.291 495.544 477.675 495.235 481.084 495.154C485.357 495.053 489.57 493.646 493.428 491.898C497.435 490.083 501.386 487.561 504.095 484.039C506.936 480.347 506.994 475.953 506.656 471.483C506.481 469.171 506.19 466.869 506.033 464.556C505.853 461.913 505.984 459.253 505.928 456.605C505.799 450.382 504.795 444.44 502.97 438.493C501.925 435.088 500.726 431.734 499.511 428.388C498.35 425.191 497.327 421.899 495.71 418.894C492.977 413.814 488.723 409.773 485.729 404.856C484.43 402.722 481.129 403.633 481.07 406.118C480.71 421.332 491.369 433.308 494.518 447.654C495.208 450.796 500.029 449.466 499.339 446.325C496.309 432.521 485.724 420.685 486.069 406.118C484.516 406.539 482.963 406.959 481.41 407.38C483.919 411.501 487.276 414.975 489.931 418.985C492.944 423.537 494.465 428.977 496.253 434.09C498.13 439.458 499.995 444.979 500.586 450.662C501.11 455.711 500.691 460.784 501.133 465.83C501.482 469.82 502.449 474.656 501.505 478.359C501.156 479.729 500.338 480.914 499.238 482.06C497.95 483.401 496.492 484.487 494.912 485.46C491.537 487.537 487.785 489.057 483.895 489.829C481.279 490.349 477.798 490.227 474.78 490.455C472.821 490.603 470.86 490.747 468.895 490.787C467.124 490.823 464.835 490.744 463.513 490.516C461.584 490.183 460.423 489.828 458.991 488.843C458.635 488.598 459.4 489.22 458.859 488.74C458.687 488.587 458.516 488.433 458.355 488.268C458.247 488.158 458.143 488.043 458.042 487.927C457.574 487.389 458.258 488.294 457.865 487.686C457.272 486.77 457.196 486.552 456.925 485.478C456.141 482.36 451.317 483.681 452.105 486.807Z" fill="#222221"/>
<path d="M496.079 431.341C496.325 430.625 496.571 429.909 496.816 429.193C495.423 429.561 494.03 429.928 492.638 430.296C496.342 435.021 500.156 439.659 503.892 444.359C507.266 448.603 510.433 452.984 513.674 457.327C516.708 461.393 519.919 465.352 523.513 468.94C526.839 472.26 530.583 475.47 534.868 477.481C540.77 480.252 547.549 481.445 553.975 482.191C560.927 482.998 568.218 483.021 575.021 481.194C582.265 479.248 588.592 474.709 590.698 467.23C591.572 464.128 586.749 462.803 585.877 465.901C585.436 467.468 585.159 468.152 584.273 469.553C583.601 470.616 582.974 471.354 581.796 472.392C581.14 472.97 581.174 472.938 580.444 473.426C579.848 473.825 579.228 474.19 578.593 474.523C577.228 475.24 576.423 475.553 574.81 476.051C568.644 477.952 562.116 477.991 555.508 477.354C550.053 476.828 544 475.663 538.53 473.635C534.605 472.18 531.2 469.378 528.202 466.527C524.804 463.295 521.728 459.709 518.884 455.984C515.327 451.325 511.95 446.542 508.315 441.94C504.298 436.856 500.173 431.859 496.175 426.759C494.922 425.161 492.539 426.283 491.997 427.862C491.751 428.578 491.505 429.294 491.26 430.01C490.822 431.287 491.762 432.743 493.006 433.085C494.375 433.465 495.639 432.623 496.079 431.341Z" fill="#222221"/>
<path d="M588.286 472.329C590.893 472.294 592.39 472.615 594.945 473.147C597.546 473.688 600.124 474.334 602.727 474.866C607.918 475.927 613.61 476.782 618.633 474.595C624.939 471.849 626.715 465.051 627.914 458.885C628.823 454.21 629.387 449.459 629.681 444.706C629.953 440.309 630.1 435.886 629.469 431.513C628.382 423.985 624.386 417.246 620.94 410.593C616.975 402.936 612.078 395.814 607.028 388.842C597.156 375.211 586.516 361.823 580.77 345.802C579.507 342.28 578.288 338.686 577.355 335.061C576.761 332.755 576.299 330.417 575.648 328.125C574.316 323.438 571.964 317.47 566.368 316.931C565.059 316.805 563.714 317.068 562.496 317.542C560.962 318.138 560.188 319.676 561.002 321.214C562.772 324.56 564.768 327.777 566.587 331.096C568.378 334.364 569.839 337.717 571.002 341.256C573.254 348.108 575.123 355.122 579.994 360.665C580.886 361.68 582.618 361.576 583.53 360.665C584.537 359.658 584.424 358.147 583.53 357.129C579.016 351.992 577.594 345.08 575.441 338.783C572.981 331.588 568.85 325.364 565.32 318.691C564.822 319.915 564.324 321.139 563.826 322.363C564.373 322.151 564.94 321.957 565.524 321.877C565.055 321.942 565.693 321.906 565.851 321.896C565.954 321.889 566.062 321.904 566.165 321.91C565.826 321.891 565.93 321.842 566.201 321.929C566.421 322 566.644 322.047 566.861 322.131C566.451 321.973 566.781 322.1 566.968 322.219C567.041 322.266 567.59 322.653 567.368 322.474C567.176 322.32 567.685 322.781 567.795 322.896C567.967 323.074 568.13 323.26 568.284 323.454C567.998 323.096 568.395 323.634 568.474 323.754C568.794 324.243 569.077 324.756 569.334 325.281C569.621 325.866 569.68 326.011 569.82 326.389C570.044 326.992 570.26 327.595 570.454 328.208C571.168 330.462 571.669 332.773 572.212 335.072C572.932 338.12 573.917 341.109 574.9 344.08C577.412 351.67 580.731 358.893 584.853 365.744C589.102 372.804 593.987 379.453 598.858 386.09C603.744 392.749 608.644 399.418 612.91 406.499C615.037 410.029 616.9 413.687 618.791 417.346C620.353 420.367 621.98 423.387 623.113 426.603C625.752 434.098 625.073 442.347 624.223 450.112C623.753 454.404 623.018 458.701 621.879 462.869C621.189 465.393 620.192 467.419 618.336 469.011C618.033 469.271 618.471 468.957 618.011 469.252C617.818 469.376 617.629 469.503 617.432 469.62C617.203 469.755 616.969 469.878 616.732 469.998C616.598 470.066 616.458 470.13 616.32 470.189C616.554 470.089 616.477 470.124 616.285 470.192C615.779 470.372 615.268 470.527 614.745 470.647C614.479 470.708 614.211 470.756 613.944 470.806C613.389 470.91 614.006 470.829 613.432 470.871C612.275 470.957 611.126 470.979 609.967 470.909C609.363 470.873 608.763 470.812 608.162 470.748C608.031 470.734 607.901 470.717 607.771 470.701C608.138 470.748 607.698 470.691 607.648 470.684C607.295 470.633 606.943 470.578 606.591 470.519C601.505 469.672 596.554 468.133 591.427 467.515C590.385 467.389 589.339 467.315 588.289 467.33C585.071 467.373 585.062 472.373 588.286 472.329Z" fill="#222221"/>
<path d="M633.964 449.49C637.181 449.49 637.187 444.49 633.964 444.49C630.747 444.49 630.741 449.49 633.964 449.49Z" fill="#222221"/>
<path d="M632.702 449.149C639.924 452.74 646.586 457.484 654.214 460.241C657.381 461.386 661.015 462.209 664.345 461.283C667.987 460.271 670.26 457.221 671.336 453.733C672.083 451.315 672.315 448.705 672.365 446.186C672.44 442.472 672.355 438.751 672.337 435.036C672.318 431.18 672.507 427.28 672.254 423.432C672.045 420.251 671.448 417.121 670.74 414.019C669.992 410.741 669.153 407.464 668.886 404.104C668.587 400.34 668.657 396.566 668.09 392.822C667.532 389.135 666.289 385.544 665.252 381.97C664.198 378.335 663.055 374.697 662.21 371.006C661.429 367.594 661.055 364.103 660.36 360.674C659.698 357.407 658.802 354.105 656.601 351.521C654.846 349.459 652.449 348.02 650.239 346.502C649.202 345.79 648.481 345.291 647.595 344.404C646.765 343.572 646.396 342.965 646.159 341.918C645.448 338.781 640.626 340.109 641.338 343.247C642.446 348.134 647.333 350.283 650.948 353.063C652.548 354.293 653.72 355.649 654.409 357.663C655.382 360.505 655.841 363.502 656.32 366.457C657.435 373.326 659.463 379.913 661.381 386.592C662.347 389.956 663.275 393.226 663.514 396.733C663.761 400.358 663.735 403.985 664.29 407.586C665.239 413.744 667.297 419.611 667.339 425.899C667.364 429.605 667.324 433.312 667.345 437.018C667.365 440.537 667.51 444.086 667.309 447.601C667.194 449.609 666.938 451.556 666.116 453.518C666.311 453.053 665.883 453.963 665.812 454.092C665.635 454.411 665.437 454.714 665.227 455.013C665.008 455.325 665.623 454.59 665.21 455.021C665.085 455.152 664.968 455.29 664.839 455.417C664.713 455.541 664.581 455.656 664.449 455.774C664.021 456.158 664.89 455.501 664.407 455.8C664.117 455.98 663.828 456.144 663.526 456.303C663.031 456.563 663.921 456.173 663.578 456.279C663.443 456.32 663.311 456.373 663.176 456.414C662.844 456.515 662.508 456.58 662.168 456.645C662.902 456.505 661.803 456.664 661.584 456.67C661.24 456.679 660.896 456.671 660.553 456.65C660.374 456.639 659.294 456.496 659.949 456.601C659.115 456.468 658.293 456.282 657.48 456.051C653.519 454.922 650.138 453.084 646.311 450.965C642.617 448.919 639.005 446.713 635.222 444.832C632.353 443.403 629.818 447.715 632.702 449.149Z" fill="#222221"/>
<path d="M438.867 193.352C437.811 193.129 436.99 192.736 436.251 192.065C435.343 191.241 434.725 190.39 434.092 189.334C432.799 187.175 431.969 184.972 431.02 182.703C428.745 177.266 424.9 172.072 424.054 166.133C423.71 163.717 424.335 161.739 425.493 159.593C426.87 157.04 428.636 154.718 430.548 152.545C434.172 148.427 438.397 144.208 443.86 142.781C450.201 141.124 456.168 143.775 461.134 147.585C466.524 151.72 471.089 156.871 475.395 162.09C480.092 167.784 484.532 173.699 489.587 179.088C494.226 184.034 499.34 188.6 505.626 191.313C508.377 192.5 511.214 193.407 514.098 194.207C517.155 195.055 520.167 195.616 522.829 197.428C525.411 199.185 527.691 201.149 530.611 202.348C533.1 203.369 535.761 204.008 538.158 205.243C539.284 205.823 540.071 206.353 540.84 207.319C541.681 208.377 543.497 208.197 544.376 207.319C545.421 206.274 545.219 204.844 544.376 203.783C542.488 201.409 539.421 200.235 536.658 199.237C533.849 198.223 531.346 197.449 528.907 195.713C526.058 193.685 523.486 191.578 520.043 190.634C516.926 189.779 513.783 189.004 510.722 187.957C504.235 185.737 499.108 181.733 494.368 176.859C488.949 171.286 484.274 165.068 479.351 159.067C474.711 153.412 469.801 147.981 463.978 143.514C458.214 139.092 451.53 136.396 444.171 137.611C437.773 138.667 432.64 142.969 428.334 147.556C424.255 151.901 419.585 157.435 419.01 163.618C418.401 170.169 422.533 176.471 425.293 182.099C426.443 184.443 427.284 186.878 428.511 189.466C429.773 192.128 431.392 194.682 433.781 196.465C434.893 197.294 436.178 197.887 437.537 198.174C440.676 198.836 442.018 194.017 438.867 193.352Z" fill="#222221"/>
<path d="M477.354 162.373C482.279 162.373 487.204 162.37 492.129 162.369C496.996 162.368 501.898 162.205 506.76 162.464C511.059 162.692 515.302 163.377 519.547 164.056C523.943 164.759 528.324 165.248 532.755 165.652C539.003 166.221 545.159 168.338 549.509 173.004C551.731 175.388 553.289 178.292 554.545 181.279C555.119 182.644 555.613 184.055 555.971 185.493C556.316 186.879 556.39 187.227 556.383 188.564C556.381 188.89 556.362 189.213 556.334 189.538C556.38 189.009 556.305 189.698 556.26 189.899C556.202 190.163 556.125 190.419 556.047 190.677C555.85 191.327 556.146 190.628 555.882 191.091C555.75 191.322 555.632 191.56 555.488 191.784C555.416 191.898 555.338 192.007 555.262 192.118C555.054 192.417 555.648 191.7 555.21 192.176C554.818 192.601 554.419 193.011 553.964 193.37C554.318 193.091 553.637 193.586 553.524 193.66C553.21 193.864 552.887 194.053 552.559 194.232C551.855 194.615 551.373 194.832 550.761 195.064C548.962 195.747 547.091 196.22 545.209 196.615C543.887 196.892 543.121 198.446 543.463 199.69C543.84 201.06 545.213 201.714 546.538 201.436C552.203 200.247 559.069 197.988 560.93 191.815C561.729 189.165 561.377 186.26 560.656 183.637C559.711 180.197 558.188 176.719 556.29 173.701C552.32 167.383 546.052 163.263 538.827 161.588C534.635 160.616 530.328 160.572 526.077 160.017C521.433 159.411 516.832 158.52 512.182 157.952C506.498 157.257 500.8 157.37 495.085 157.37C489.175 157.37 483.265 157.374 477.356 157.374C474.137 157.373 474.132 162.373 477.354 162.373Z" fill="#222221"/>
<path d="M539.346 208.051C548.476 208.782 557.772 208.533 566.71 206.382C576.107 204.121 584.334 199.109 592.67 194.403C601.116 189.635 609.778 185.305 618.057 180.241C622.118 177.757 626.132 175.195 630.159 172.655C634.31 170.037 638.666 167.658 642.732 164.918C646.258 162.542 649.142 159.477 651.694 156.102C654.413 152.506 656.379 148.457 658.764 144.64C663.602 136.894 669.17 129.643 674.56 122.281C677.295 118.545 679.841 114.729 683.066 111.388C686.141 108.204 689.457 105.211 692.041 101.59C693.322 99.794 694.386 97.842 695.676 96.044C696.916 94.315 698.237 92.65 699.594 91.012C702.386 87.642 705.31 84.383 708.036 80.958C710.785 77.502 713.353 73.962 716.381 70.733C719.336 67.583 722.519 64.655 725.81 61.861C729.149 59.026 732.597 56.323 736.044 53.622C739.635 50.808 743.238 48.078 746.467 44.851C748.073 43.246 749.68 41.641 751.288 40.037C753.57 37.762 750.035 34.226 747.752 36.501C744.527 39.717 741.419 43.036 737.855 45.875C734.407 48.621 730.914 51.309 727.47 54.06C720.792 59.396 714.32 65.038 708.913 71.693C706.088 75.17 703.456 78.775 700.546 82.188C697.715 85.508 694.859 88.806 692.248 92.305C690.936 94.063 689.694 95.873 688.554 97.748C687.433 99.589 686.036 101.186 684.556 102.751C681.583 105.894 678.361 108.793 675.707 112.226C672.776 116.016 670.073 120 667.226 123.855C664.544 127.488 661.857 131.118 659.277 134.824C656.724 138.492 654.281 142.237 652.046 146.107C650.942 148.018 649.954 149.97 648.685 151.779C647.548 153.401 646.336 154.959 644.986 156.411C643.637 157.862 642.17 159.22 640.549 160.365C638.609 161.735 636.464 162.856 634.439 164.098C630.387 166.583 626.378 169.138 622.358 171.674C618.396 174.173 614.419 176.651 610.374 179.015C606.125 181.499 601.751 183.719 597.421 186.052C593.239 188.304 589.126 190.681 584.981 193C580.826 195.324 576.647 197.806 572.18 199.486C563.78 202.645 554.787 203.613 545.861 203.402C543.686 203.351 541.515 203.227 539.347 203.053C537.999 202.945 536.847 204.279 536.847 205.553C536.846 206.993 537.994 207.942 539.346 208.051Z" fill="#222221"/>
<path d="M631.464 159.873C631.383 160.589 631.301 161.305 631.22 162.021C630.943 164.456 634.863 165.473 635.879 163.283C637.485 159.818 639.581 157.385 642.251 154.704C644.885 152.059 647.728 149.633 650.374 146.999C649.196 145.821 648.017 144.642 646.838 143.463C645.22 145.081 643.602 146.699 641.984 148.317C641.029 149.272 641.029 150.898 641.984 151.853C642.942 152.811 644.562 152.811 645.52 151.853C647.138 150.235 648.756 148.617 650.374 146.999C651.329 146.044 651.329 144.418 650.374 143.463C649.414 142.503 647.798 142.507 646.838 143.463C641.419 148.858 634.86 153.643 631.561 160.759C633.114 161.18 634.667 161.6 636.22 162.021C636.301 161.305 636.383 160.589 636.464 159.873C636.617 158.529 635.206 157.373 633.964 157.373C632.486 157.373 631.617 158.525 631.464 159.873Z" fill="#222221"/>
<path d="M641.154 155.758C644.442 155.199 647.613 153.836 650.425 152.063C651.33 151.493 651.92 150.31 651.574 149.24C651.254 148.252 650.28 147.311 649.163 147.405C648.447 147.465 647.731 147.525 647.015 147.585C646.342 147.641 645.739 147.826 645.247 148.317C644.813 148.751 644.487 149.462 644.515 150.085C644.571 151.346 645.619 152.702 647.015 152.585C647.731 152.525 648.447 152.465 649.163 152.405C648.742 150.852 648.322 149.299 647.901 147.746C647.251 148.156 646.586 148.542 645.904 148.896C645.538 149.086 645.168 149.268 644.793 149.44C644.652 149.505 644.51 149.566 644.369 149.63C644.123 149.736 644.18 149.713 644.539 149.56C644.444 149.6 644.348 149.638 644.253 149.677C642.824 150.249 641.342 150.678 639.824 150.936C639.242 151.035 638.616 151.595 638.33 152.085C638.016 152.621 637.884 153.411 638.078 154.011C638.53 155.407 639.769 155.993 641.154 155.758Z" fill="#222221"/>
<path d="M661.833 373.716C676.816 359.333 695.08 349.055 713.707 340.167C719.541 337.383 725.434 334.727 731.339 332.098C732.573 331.549 732.864 329.751 732.236 328.677C731.493 327.406 730.054 327.229 728.816 327.78C709.141 336.539 689.373 345.69 672.026 358.621C667.224 362.2 662.619 366.032 658.297 370.18C655.972 372.413 659.511 375.946 661.833 373.716Z" fill="#222221"/>
<path d="M263.511 125.751C276.9 141.74 292.87 155.403 310.366 166.715C319.063 172.337 328.129 177.379 337.435 181.918C347.128 186.646 357.123 190.612 367.075 194.748C379.113 199.75 391.265 204.98 404.145 207.382C407.023 207.919 408.335 204.518 406.071 202.813C401.682 199.507 396.193 200.544 391.257 198.848C388.662 197.957 386.269 196.565 383.76 195.468C381.097 194.304 378.302 193.542 375.548 192.628C365.213 189.196 355.239 184.822 345.644 179.68C335.624 174.31 325.972 168.212 316.352 162.163C306.71 156.1 297.191 149.829 287.974 143.133C277.666 135.644 267.769 127.589 258.552 118.785C257.963 120.208 257.374 121.63 256.784 123.053C257.44 123.109 258.096 123.165 258.752 123.222C260.099 123.337 261.252 121.99 261.252 120.722C261.252 119.274 260.103 118.338 258.752 118.222C258.096 118.166 257.44 118.11 256.784 118.053C254.594 117.865 253.526 120.898 255.016 122.321C271.646 138.204 290.453 151.591 309.805 163.933C328.835 176.07 348.075 188.048 369.392 195.774C372.407 196.867 375.45 197.872 378.513 198.82C381.442 199.727 384.091 201.198 386.882 202.439C389.816 203.744 392.678 204.491 395.868 204.828C398.663 205.124 401.233 205.387 403.547 207.13C404.189 205.607 404.831 204.084 405.473 202.561C394.094 200.439 383.27 196.085 372.618 191.677C362.795 187.612 352.891 183.735 343.274 179.193C324.849 170.491 307.236 159.859 291.598 146.751C282.716 139.306 274.487 131.103 267.046 122.217C266.179 121.181 264.406 121.322 263.511 122.217C262.486 123.241 262.642 124.712 263.511 125.751Z" fill="#222221"/>
<path d="M219.765 329.624C226.632 335.663 235.492 337.778 243.292 342.209C247.332 344.504 250.451 347.819 254.078 350.659C257.921 353.668 262.32 355.349 266.707 357.381C271.677 359.684 276.602 362.326 282.257 361.307C283.587 361.067 284.338 359.449 284.003 358.232C283.618 356.832 282.261 356.246 280.928 356.486C276.791 357.231 272.636 354.628 269.038 352.975C265.02 351.129 260.792 349.622 257.279 346.86C253.766 344.097 250.707 340.845 246.861 338.506C243.25 336.31 239.316 334.738 235.447 333.069C231.154 331.217 226.841 329.202 223.301 326.089C222.288 325.198 220.763 325.091 219.765 326.089C218.856 326.998 218.747 328.729 219.765 329.624Z" fill="#222221"/>
<path d="M291.381 356.397C284.01 357.342 276.777 359.553 269.28 358.862C269.701 358.976 270.121 359.09 270.542 359.203C253.296 350.543 238.154 338.408 223.263 326.277C222.217 325.425 220.75 325.254 219.727 326.277C218.847 327.157 218.675 328.955 219.727 329.813C228.134 336.662 236.584 343.479 245.438 349.747C249.802 352.836 254.266 355.787 258.866 358.513C261.08 359.825 263.324 361.086 265.602 362.283C266.857 362.942 268.088 363.742 269.517 363.885C270.913 364.024 272.323 364.045 273.724 363.997C279.702 363.793 285.474 362.155 291.38 361.398C292.719 361.226 293.88 360.372 293.88 358.898C293.881 357.68 292.729 356.224 291.381 356.397Z" fill="#222221"/>
<path d="M394.935 361.496C394.061 357.916 391.412 355.293 388.608 353.087C385.861 350.926 383.27 348.689 380.69 346.33C378.263 344.111 375.671 341.821 372.492 340.777C369.159 339.683 365.759 340.67 363.041 342.738C357.916 346.639 354.772 353.096 352.511 358.976C351.578 361.402 350.606 364.231 350.862 366.871C351.171 370.056 352.827 372.861 355.001 375.145C357.429 377.695 360.46 379.655 363.43 381.508C366.11 383.179 369.09 384.84 371.18 386.767C373.542 388.946 377.087 385.419 374.715 383.231C370.695 379.523 365.547 377.32 361.225 374.012C359.281 372.524 357.518 370.837 356.458 368.678C356.312 368.381 356.134 367.897 355.992 367.344C355.957 367.208 355.804 366.375 355.862 366.87C355.835 366.641 355.829 366.41 355.829 366.18C355.83 365.925 355.849 365.673 355.868 365.419C355.904 364.954 355.818 365.619 355.908 365.136C356.021 364.522 356.159 363.914 356.326 363.312C357.058 360.661 358.179 358.132 359.434 355.692C360.073 354.451 360.753 353.23 361.486 352.041C361.797 351.536 362.117 351.037 362.451 350.547C362.591 350.342 362.735 350.139 362.879 349.936C362.969 349.809 363.062 349.684 363.156 349.56C363.016 349.746 363.028 349.718 363.165 349.552C364.163 348.343 365.288 347.151 366.618 346.305C367.694 345.62 368.664 345.28 369.716 345.307C370.597 345.329 371.565 345.693 372.502 346.224C373.666 346.885 374.708 347.706 375.718 348.579C378.475 350.966 381.04 353.522 383.938 355.746C386.388 357.627 389.344 359.662 390.116 362.823C390.876 365.949 395.699 364.626 394.935 361.496Z" fill="#222221"/>
<path d="M428.414 392.287C428.269 392.28 427.452 392.155 428.048 392.27C427.774 392.217 427.503 392.16 427.234 392.085C426.996 392.019 426.764 391.935 426.53 391.856C426.461 391.833 426.045 391.659 426.33 391.781C426.627 391.909 426.026 391.63 426.034 391.634C425.53 391.375 425.04 391.098 424.565 390.79C424.336 390.642 424.11 390.488 423.887 390.33C423.757 390.238 423.63 390.144 423.502 390.05C422.884 389.599 423.686 390.201 423.337 389.926C421.238 388.271 419.363 386.352 417.396 384.547C413.673 381.129 408.788 377.307 403.41 379.18C397.784 381.14 394.125 387.123 393.126 392.757C392.133 398.359 392.995 404.445 396.031 409.321C397.623 411.877 399.848 414.158 402.571 415.5C405.797 417.091 409.251 417.375 412.766 416.773C414.098 416.545 414.844 414.907 414.512 413.698C414.125 412.289 412.772 411.723 411.437 411.952C410.901 412.044 410.579 412.08 409.87 412.103C409.216 412.124 408.557 412.105 407.908 412.027C407.481 411.976 408.24 412.085 407.823 412.01C407.701 411.988 407.577 411.969 407.456 411.941C407.176 411.878 406.897 411.816 406.621 411.74C406.349 411.664 406.081 411.577 405.814 411.486C405.664 411.434 405.513 411.377 405.366 411.317C405.61 411.417 405.462 411.358 405.309 411.285C404.812 411.048 404.33 410.784 403.866 410.486C403.636 410.338 403.41 410.182 403.19 410.019C402.961 409.849 403.194 410.021 403.231 410.051C403.078 409.928 402.929 409.8 402.783 409.671C401.879 408.871 401.214 408.089 400.747 407.407C399.311 405.309 398.666 403.656 398.126 401.165C397.843 399.858 397.777 399.333 397.728 397.893C397.707 397.294 397.712 396.694 397.74 396.094C397.754 395.795 397.774 395.496 397.801 395.198C397.813 395.068 397.924 394.196 397.865 394.591C398.048 393.377 398.342 392.178 398.75 391.02C399.001 390.308 398.979 390.366 399.273 389.762C399.547 389.2 399.852 388.653 400.189 388.126C400.79 387.185 401.444 386.407 402.491 385.462C402.965 385.034 403.075 384.939 403.631 384.589C403.91 384.413 404.197 384.258 404.49 384.107C404.511 384.096 404.865 383.939 404.616 384.043C404.354 384.153 404.957 383.928 404.95 383.931C405.158 383.869 405.365 383.813 405.576 383.762C405.711 383.729 405.852 383.705 405.99 383.684C405.887 383.7 405.48 383.712 405.941 383.706C406.145 383.703 406.347 383.69 406.551 383.696C406.751 383.702 407.438 383.819 406.892 383.71C407.366 383.805 407.819 383.936 408.279 384.084C408.671 384.21 408.051 383.946 408.562 384.199C408.856 384.344 409.148 384.489 409.434 384.651C409.862 384.894 410.277 385.16 410.681 385.439C411.324 385.883 411.368 385.923 411.789 386.272C412.727 387.046 413.628 387.862 414.517 388.691C418.444 392.359 422.671 397.021 428.415 397.287C431.631 397.436 431.623 392.436 428.414 392.287Z" fill="#222221"/>
<path d="M450.401 421.553C451.071 419.073 450.983 416.383 449.639 414.134C448.384 412.033 446.326 410.665 444.076 409.819C439.734 408.186 434.147 408.681 430.245 411.229C425.937 414.042 424.985 418.651 424.606 423.458C424.171 428.987 424.554 434.698 425.729 440.117C426.738 444.773 428.878 451.528 434.274 452.665C435.594 452.943 436.976 452.277 437.349 450.919C437.69 449.677 436.93 448.123 435.603 447.844C435.443 447.81 435.288 447.769 435.131 447.726C435.027 447.698 434.926 447.654 434.825 447.619C434.828 447.62 435.283 447.843 435.05 447.706C434.828 447.576 434.028 447.003 434.502 447.411C434.205 447.155 433.93 446.887 433.667 446.596C433.605 446.528 433.261 446.087 433.443 446.331C433.604 446.548 433.209 445.978 433.127 445.848C431.974 444.038 431.578 442.787 430.99 440.599C429.731 435.919 429.362 431.362 429.465 426.399C429.488 425.296 429.542 424.193 429.637 423.094C429.681 422.59 429.733 422.086 429.797 421.584C429.741 422.024 429.802 421.553 429.83 421.378C429.868 421.137 429.908 420.897 429.951 420.657C430.099 419.849 430.302 419.065 430.541 418.281C430.595 418.105 430.749 417.769 430.582 418.133C430.67 417.941 430.766 417.751 430.869 417.567C430.972 417.384 431.089 417.211 431.199 417.032C431.438 416.646 431.242 416.952 431.178 417.035C431.263 416.926 431.353 416.819 431.446 416.717C431.729 416.407 432.027 416.122 432.343 415.845C432.648 415.577 432.122 415.96 432.592 415.664C432.802 415.532 433.006 415.392 433.221 415.267C433.407 415.159 433.596 415.057 433.787 414.96C433.87 414.918 434.502 414.635 434.278 414.726C434.051 414.819 434.601 414.612 434.695 414.579C434.939 414.495 435.184 414.418 435.432 414.349C435.898 414.219 436.369 414.124 436.844 414.033C436.954 414.012 437.065 413.996 437.175 413.98C437.137 413.986 436.77 414.028 437.066 413.999C437.363 413.969 437.66 413.943 437.959 413.929C438.405 413.907 438.851 413.905 439.297 413.924C439.555 413.935 439.813 413.954 440.07 413.976C440.18 413.985 440.289 413.999 440.398 414.011C440.787 414.056 440 413.943 440.383 414.014C440.912 414.111 441.436 414.22 441.951 414.374C442.186 414.444 442.415 414.528 442.647 414.606C443.193 414.789 442.486 414.486 442.994 414.754C443.408 414.972 443.801 415.202 444.197 415.451C444.667 415.746 444.065 415.263 444.449 415.655C444.603 415.813 444.768 415.961 444.923 416.119C444.989 416.186 445.046 416.261 445.11 416.33C445.343 416.586 444.874 415.98 445.064 416.268C445.201 416.476 445.319 416.699 445.458 416.904C445.761 417.352 445.436 416.715 445.554 417.083C445.633 417.331 445.707 417.575 445.77 417.828C445.794 417.924 445.808 418.023 445.827 418.121C445.895 418.478 445.798 417.689 445.812 418.062C445.821 418.31 445.836 418.556 445.828 418.804C445.823 418.96 445.713 419.744 445.799 419.267C445.741 419.59 445.664 419.908 445.578 420.225C444.739 423.334 449.561 424.661 450.401 421.553Z" fill="#222221"/>
<path d="M732.207 328.045C726.165 316.396 719.657 304.761 710.701 295.063C706.451 290.461 701.074 286.616 697.851 281.154C694.685 275.788 693.529 269.467 691.169 263.743C686.139 251.543 678.257 241.063 671.296 229.956C667.633 224.111 664.882 217.825 661.826 211.661C658.932 205.825 655.159 200.565 651.232 195.393C646.731 189.466 642.749 183.213 639.752 176.388C636.9 169.893 634.111 163.362 629.205 158.105C627.005 155.747 623.475 159.289 625.669 161.641C629.855 166.127 632.334 171.812 634.759 177.369C637.403 183.427 640.553 189.101 644.39 194.491C648.164 199.793 652.277 204.8 655.521 210.466C658.931 216.422 661.444 222.848 664.815 228.834C668.036 234.554 671.887 239.911 675.46 245.413C678.942 250.774 682.281 256.247 684.998 262.042C687.707 267.82 689.157 274.025 691.65 279.877C694.246 285.968 698.77 290.368 703.468 294.876C714.009 304.99 721.219 317.712 727.888 330.57C729.372 333.426 733.688 330.9 732.207 328.045Z" fill="#222221"/>
<path d="M735.435 334.409C734.726 332.986 734.012 331.565 733.289 330.149C733.014 329.609 732.366 329.157 731.795 329C731.197 328.835 730.4 328.91 729.869 329.252C729.335 329.596 728.865 330.109 728.72 330.746C728.566 331.424 728.655 332.05 728.972 332.672C729.694 334.088 730.409 335.509 731.117 336.932C731.386 337.471 732.046 337.925 732.611 338.081C733.209 338.246 734.006 338.171 734.537 337.829C735.071 337.485 735.541 336.972 735.686 336.335C735.716 336.114 735.746 335.892 735.775 335.67C735.774 335.22 735.661 334.799 735.435 334.409Z" fill="#222221"/>
<path d="M738.897 349.003C742.441 355.612 749.15 365.182 757.981 362.17C760.551 361.293 762.634 359.509 764.848 357.998C767.263 356.35 769.719 354.762 772.209 353.229C777.111 350.212 782.144 347.413 787.256 344.77C797.406 339.524 807.86 334.902 818.296 330.262C823.574 327.916 828.849 325.563 834.085 323.125C836.59 321.958 839.056 320.611 841.633 319.617C844.208 318.623 846.849 317.813 849.523 317.132C855.525 315.604 861.712 314.872 867.701 313.314C869.033 312.967 870.234 312.187 871.502 311.653C872.192 311.362 872.907 311.144 873.605 310.875C874.425 310.559 875.121 310.01 875.85 309.525C877.36 308.518 878.87 307.512 880.38 306.505C880.652 306.324 880.938 306.148 881.204 305.956C881.629 305.488 881.793 305.371 881.695 305.605C881.689 305.615 881.684 305.625 881.678 305.635C881.962 305.535 882.356 305.552 882.818 305.612C882.818 303.945 882.818 302.279 882.818 300.612C880.677 300.63 878.478 300.599 876.358 300.958C874.16 301.331 872.878 303.968 874.881 305.556C875.832 306.31 877.231 306.249 878.386 306.206C880.095 306.143 881.815 305.903 883.481 305.522C886.267 304.885 885.599 300.633 882.816 300.611C871.369 300.522 860.616 304.299 850.016 308.216C839.354 312.156 828.896 316.644 818.659 321.581C813.626 324.009 808.856 326.75 804.136 329.738C799.563 332.633 795.053 335.626 790.443 338.461C788.085 339.911 785.701 341.32 783.274 342.654C781.008 343.9 778.622 345.421 776.116 346.104C770.811 347.551 765.085 347.382 759.957 349.499C757.626 350.462 755.51 351.805 753.259 352.926C751.479 353.813 749.05 354.758 747.07 354.121C742.842 352.761 741.108 347.544 739.945 343.749C739.005 340.681 734.177 341.99 735.124 345.078C736.436 349.359 738.19 353.91 741.806 356.781C743.793 358.359 746.071 359.355 748.642 359.272C751.061 359.195 753.308 358.439 755.469 357.396C757.478 356.426 759.35 355.181 761.394 354.28C763.87 353.188 766.687 352.792 769.342 352.382C772.123 351.952 774.939 351.63 777.655 350.865C780.363 350.102 782.939 348.529 785.4 347.188C795.273 341.804 804.378 335.157 814.098 329.519C819.126 326.602 824.544 324.245 829.838 321.855C835.012 319.519 840.243 317.313 845.531 315.247C851.581 312.883 857.7 310.614 863.904 308.684C870.06 306.769 876.352 305.561 882.816 305.611C882.595 303.974 882.373 302.337 882.151 300.7C881.821 300.775 881.491 300.847 881.158 300.908C880.955 300.946 880.752 300.978 880.549 301.013C880.503 301.021 880.018 301.09 880.287 301.054C880.438 301.034 879.772 301.109 879.598 301.125C879.288 301.153 878.978 301.176 878.668 301.192C878.222 301.215 877.774 301.228 877.328 301.212C877.169 301.206 876.953 301.147 876.801 301.179C876.602 301.22 877.365 301.27 877.222 301.233C876.525 301.052 878.244 301.702 878.524 302.296C878.608 302.938 878.692 303.58 878.776 304.222C878.778 304.216 878.779 304.21 878.78 304.204C878.566 304.572 878.351 304.939 878.137 305.307C877.989 305.465 876.683 306.131 877.554 305.797C876.914 306.043 877.233 305.83 877.506 305.81C877.759 305.791 878.011 305.765 878.264 305.748C879.778 305.643 881.299 305.623 882.816 305.611C884.167 305.6 885.315 304.47 885.315 303.111C885.315 301.614 884.161 300.787 882.816 300.611C880.185 300.267 878.25 301.922 876.206 303.285C874.97 304.109 873.736 304.934 872.499 305.756C871.342 306.525 869.934 306.907 868.662 307.472C867.747 307.878 866.892 308.405 865.912 308.595C864.421 308.883 862.941 309.236 861.451 309.534C858.826 310.058 856.195 310.546 853.573 311.087C848.217 312.193 842.783 313.519 837.808 315.843C832.68 318.239 827.57 320.666 822.406 322.985C802.018 332.138 781.278 340.815 762.706 353.419C760.553 354.88 758.348 357.05 755.736 357.605C754.13 357.946 752.518 357.396 750.969 356.376C747.535 354.115 745.141 350.078 743.211 346.479C741.694 343.643 737.376 346.165 738.897 349.003Z" fill="#222221"/>
<path d="M632.196 174.691C636.336 178.889 640.979 182.597 644.82 187.088C648.609 191.518 651.415 196.739 654.128 201.868C657.029 207.35 659.733 212.933 662.554 218.456C665.398 224.025 668.479 229.433 671.658 234.816C684.557 256.657 696.715 278.92 709.199 300.998C716.125 313.246 723.395 325.298 731.073 337.089C732.822 339.775 737.153 337.272 735.39 334.565C721.515 313.258 709.325 290.977 696.892 268.817C690.666 257.719 684.397 246.645 677.961 235.667C674.785 230.25 671.542 224.884 668.623 219.321C665.743 213.83 663.042 208.248 660.209 202.733C657.115 196.71 653.948 190.657 649.773 185.298C645.668 180.03 640.398 175.889 635.73 171.156C633.469 168.861 629.934 172.397 632.196 174.691Z" fill="#222221"/>
<path d="M729.434 335.394C728.541 338.928 729.804 342.154 731.789 345.052C732.672 346.342 733.632 347.582 734.447 348.918C734.641 349.236 734.827 349.559 735.001 349.889C735.079 350.038 735.156 350.188 735.23 350.34C735.326 350.539 735.465 350.884 735.306 350.48C735.454 350.856 735.589 351.236 735.695 351.626C735.749 351.822 735.796 352.02 735.836 352.22C735.863 352.357 735.941 352.973 735.871 352.37C736.021 353.664 736.913 354.935 738.371 354.87C739.596 354.815 741.032 353.761 740.871 352.37C740.465 348.875 738.676 346.157 736.687 343.354C735.853 342.179 735.041 340.985 734.452 339.665C734.713 340.25 734.467 339.667 734.432 339.564C734.372 339.388 734.316 339.21 734.268 339.031C734.228 338.881 734.196 338.73 734.161 338.579C734.084 338.255 734.121 338.293 734.147 338.6C734.115 338.218 734.094 337.841 734.117 337.458C734.126 337.301 734.253 336.741 734.122 337.331C734.167 337.127 734.207 336.923 734.258 336.72C734.578 335.454 733.847 333.949 732.512 333.645C731.212 333.352 729.777 334.038 729.434 335.394Z" fill="#222221"/>
<path d="M223.214 326.022C241.42 308.117 260.655 291.091 276.618 271.065C280.656 265.999 284.519 260.777 288.054 255.345C291.728 249.699 294.824 243.765 297.815 237.738C300.68 231.965 303.564 226.247 307.352 221.012C310.94 216.054 315.076 211.52 319.098 206.917C327.774 196.988 337.831 184.197 332.451 170.226C331.818 168.581 330.366 168.058 328.778 168.732C327.023 169.477 325.19 170.045 323.343 170.512C320.225 171.3 321.546 176.124 324.672 175.333C326.954 174.756 329.136 173.968 331.301 173.049C330.077 172.551 328.853 172.053 327.628 171.555C332.074 183.101 323.921 193.739 316.724 202.045C312.718 206.669 308.6 211.195 304.864 216.045C300.962 221.111 297.84 226.535 294.977 232.241C292.055 238.065 289.237 243.933 285.834 249.498C282.512 254.931 278.817 260.147 274.924 265.185C267.333 275.01 258.859 284.126 250.108 292.919C240.131 302.944 229.762 312.568 219.678 322.485C217.381 324.747 220.917 328.282 223.214 326.022Z" fill="#222221"/>
<path d="M324.007 178.686C323.373 178.612 323.935 178.72 324.071 178.754C323.335 178.572 324.128 178.878 323.79 178.634C323.398 178.351 324.088 179.092 323.581 178.401C323.653 178.499 323.955 179.027 323.626 178.412C323.661 178.477 323.723 178.675 323.728 178.762C323.768 179.412 323.715 178.187 323.757 178.88C323.785 179.334 323.772 179.78 323.74 180.233C323.686 181.007 323.791 179.964 323.724 180.439C323.693 180.657 323.653 180.874 323.612 181.09C323.525 181.547 323.419 182.001 323.304 182.452C323.02 183.564 322.665 184.657 322.278 185.738C321.054 189.159 319.458 192.412 317.818 195.811C310.849 210.254 302.843 224.053 292.818 236.596C283.017 248.859 272.31 260.401 263.599 273.505C259.289 279.989 255.635 286.887 251.209 293.297C246.769 299.728 241.127 304.977 235.707 310.551C233.083 313.249 230.536 316.048 228.349 319.117C226.185 322.153 224.436 325.454 222.671 328.73C220.95 331.925 219.21 335.131 217.044 338.053C215.072 340.714 212.59 342.94 210.116 345.119C207.574 347.358 204.973 349.568 202.808 352.189C201.038 354.332 199.796 356.673 198.401 359.052C197.816 360.049 197.205 361.034 196.371 361.843C195.801 362.396 195.215 362.716 194.669 362.638C193.287 362.44 191.922 361.267 190.786 360.515C189.187 359.456 187.648 358.31 186.058 357.238C182.802 355.043 179.325 353.2 176.074 350.987C172.824 348.775 169.685 346.407 166.628 343.937C160.675 339.126 154.844 334.369 148.358 330.272C141.978 326.242 135.357 322.619 128.811 318.871C121.997 314.97 115.388 310.783 108.875 306.399C95.064 297.103 81.643 287.217 67.565 278.321C60.9 274.109 54.035 270.048 47.982 264.964C42.448 260.316 37.856 254.869 33.656 249.015C31.442 245.93 29.117 242.913 26.288 240.363C25.278 241.672 24.268 242.981 23.259 244.289C28.629 248.209 33.305 252.971 38.096 257.555C42.885 262.137 48.05 266.289 53.256 270.385C58.404 274.435 63.608 278.416 68.633 282.619C71.226 284.788 73.771 287.015 76.233 289.331C78.599 291.557 80.726 294.134 83.274 296.149C85.886 298.215 88.953 299.706 91.312 302.065C92.473 303.226 93.588 304.474 94.813 305.566C96.136 306.745 97.619 307.786 99.011 308.883C104.353 313.092 109.72 317.272 115.156 321.361C125.808 329.374 136.757 337.003 148.223 343.813C161.725 351.832 175.402 359.601 189.447 366.635C190.467 367.146 191.637 367.051 192.477 366.244C193.69 365.079 195.098 364.173 196.367 363.075C197.746 361.881 198.435 360.169 199.265 358.576C200.833 355.568 202.369 352.543 204.005 349.571C207.28 343.625 210.987 337.955 215.97 333.292C218.324 331.089 214.783 327.558 212.435 329.756C207.407 334.461 203.521 340.197 200.171 346.178C198.553 349.067 197.044 352.015 195.519 354.954C194.793 356.353 194.148 358.257 193.026 359.366C191.778 360.6 190.213 361.487 188.942 362.709C189.952 362.579 190.962 362.448 191.972 362.318C179.529 356.086 167.399 349.257 155.396 342.22C143.722 335.376 132.463 327.985 121.575 319.947C116.189 315.971 110.884 311.887 105.615 307.758C102.929 305.654 99.984 303.666 97.572 301.254C96.407 300.089 95.273 298.88 94.071 297.753C92.765 296.529 91.21 295.575 89.717 294.594C88.531 293.815 87.318 293.053 86.225 292.143C84.874 291.019 83.722 289.657 82.478 288.418C80.136 286.084 77.701 283.845 75.208 281.674C70.265 277.372 65.094 273.345 59.933 269.311C54.104 264.755 48.189 260.228 42.809 255.14C37.277 249.908 31.952 244.476 25.784 239.973C23.492 238.3 20.66 242.011 22.754 243.899C25.811 246.655 28.166 249.938 30.565 253.255C32.749 256.276 35.073 259.206 37.599 261.95C42.975 267.789 49.308 272.519 55.929 276.849C62.834 281.364 69.863 285.669 76.695 290.298C83.907 295.185 91.028 300.204 98.199 305.151C105.194 309.977 112.209 314.81 119.487 319.204C126.096 323.194 132.894 326.858 139.548 330.769C146.302 334.738 152.921 338.971 158.927 344.019C165.09 349.199 171.437 354.189 178.323 358.382C181.714 360.447 184.957 362.641 188.264 364.833C190.875 366.563 193.832 368.439 197.052 367.239C199.651 366.27 201.367 363.883 202.72 361.577C204.217 359.025 205.521 356.539 207.556 354.347C212.311 349.226 218.068 345.362 222.1 339.548C226.42 333.319 229.068 326.03 233.837 320.097C238.911 313.784 245.216 308.604 250.469 302.451C255.573 296.472 259.513 289.665 263.56 282.959C267.829 275.885 272.555 269.14 277.709 262.682C282.726 256.395 288.011 250.328 293.121 244.117C298.226 237.913 303.193 231.566 307.565 224.818C312.201 217.663 316.267 210.085 320.097 202.474C322.2 198.296 324.289 194.073 326.068 189.742C327.569 186.089 329.638 181.267 328.502 177.255C327.886 175.078 326.168 173.94 324.006 173.688C322.663 173.532 321.506 174.949 321.506 176.188C321.507 177.668 322.66 178.529 324.007 178.686Z" fill="#222221"/>
<path d="M148.674 294.308C148.697 294.423 148.779 295.082 148.712 294.433C148.733 294.633 148.751 294.833 148.762 295.034C148.784 295.44 148.78 295.847 148.758 296.253C148.748 296.451 148.6 297.629 148.696 297.034C148.617 297.524 148.528 298.011 148.422 298.496C148.038 300.25 147.483 301.959 147.018 303.692C146.053 307.288 145.515 311.235 148.039 314.332C149.422 316.029 151.474 317.03 153.521 317.689C156.053 318.505 158.737 318.907 161.378 318.517C165.764 317.87 169.428 314.832 171.65 311.099C173.972 307.198 174.843 302.512 174.07 298.045C173.722 296.033 172.925 294.024 171.743 292.357C170.494 290.596 168.807 289.48 166.829 288.671C162.792 287.019 158.141 286.806 153.865 287.441C151.951 287.725 149.995 288.259 148.321 289.256C146.418 290.389 145.322 292.007 144.651 294.096C142.881 299.604 145.632 305.133 149.668 308.84C153.642 312.491 158.767 315.046 164.134 315.72C165.476 315.889 166.634 314.45 166.634 313.22C166.634 311.729 165.48 310.889 164.134 310.72C164.719 310.793 163.954 310.685 163.889 310.673C163.653 310.631 163.419 310.583 163.185 310.531C162.78 310.441 162.377 310.336 161.979 310.22C161.081 309.959 160.043 309.58 159.455 309.313C157.701 308.516 155.735 307.375 154.393 306.32C152.78 305.053 151.372 303.581 150.431 302.027C149.518 300.519 149.047 299.053 149.098 297.404C149.103 297.23 149.113 297.055 149.129 296.882C149.203 296.064 149.02 297.31 149.193 296.492C149.289 296.039 149.409 295.592 149.563 295.156C149.664 294.871 149.821 294.645 149.987 294.267C150.049 294.126 150.3 293.956 149.88 294.39C150.029 294.236 150.205 294.079 150.341 293.915C150.59 293.615 150.325 293.913 150.238 293.977C150.385 293.87 150.533 293.767 150.686 293.671C150.957 293.5 151.241 293.356 151.527 293.212C152.121 292.911 151.037 293.384 151.678 293.143C151.877 293.068 152.077 292.995 152.279 292.929C152.703 292.789 153.134 292.671 153.569 292.569C156.594 291.86 160.413 291.954 163.559 292.825C163.932 292.928 164.302 293.043 164.668 293.172C164.879 293.247 165.09 293.324 165.297 293.41C164.777 293.195 165.426 293.476 165.49 293.51C165.794 293.669 166.099 293.824 166.391 294.006C166.53 294.093 166.664 294.187 166.8 294.277C166.949 294.384 166.907 294.349 166.675 294.172C166.771 294.249 166.865 294.33 166.957 294.412C167.169 294.621 167.38 294.824 167.568 295.056C167.186 294.584 167.659 295.223 167.699 295.284C167.831 295.487 167.956 295.693 168.075 295.904C168.598 296.831 168.635 296.944 168.927 297.965C169.049 298.392 169.137 298.823 169.227 299.257C169.25 299.369 169.324 299.892 169.265 299.431C169.296 299.672 169.317 299.915 169.334 300.158C169.398 301.057 169.374 301.957 169.29 302.854C169.214 303.654 169.381 302.375 169.251 303.169C169.218 303.373 169.181 303.576 169.141 303.778C169.052 304.224 168.947 304.666 168.823 305.103C168.564 306.02 168.286 306.743 168.028 307.279C167.64 308.087 167.188 308.864 166.671 309.597C166.703 309.552 166.229 310.185 166.433 309.925C166.636 309.666 166.138 310.272 166.173 310.231C165.862 310.592 165.533 310.938 165.186 311.266C164.161 312.233 162.76 313.066 161.34 313.44C161.142 313.492 160.064 313.682 160.473 313.635C160.064 313.681 159.651 313.7 159.24 313.698C157.99 313.69 157.51 313.563 156.202 313.245C155.377 313.044 154.08 312.621 153.691 312.425C153.342 312.25 153.01 312.056 152.676 311.855C152.598 311.808 152.055 311.373 152.503 311.749C152.302 311.581 152.123 311.396 151.934 311.217C151.845 311.133 151.769 311.029 151.689 310.938C152.122 311.429 151.652 310.85 151.574 310.713C151.518 310.615 151.472 310.503 151.412 310.407C151.211 310.084 151.504 310.857 151.353 310.209C151.3 309.982 151.176 308.983 151.21 309.692C151.193 309.334 151.164 308.981 151.174 308.622C151.179 308.438 151.19 308.253 151.204 308.07C151.21 307.999 151.301 307.258 151.244 307.649C151.183 308.068 151.284 307.432 151.29 307.406C151.34 307.145 151.389 306.884 151.445 306.624C151.621 305.81 151.84 305.006 152.066 304.204C153.1 300.53 154.251 296.823 153.496 292.979C153.236 291.653 151.653 290.894 150.421 291.233C149.036 291.613 148.412 292.979 148.674 294.308Z" fill="#222221"/>
<path d="M110.828 263.017C108.819 259.744 105.769 258.258 101.973 258.855C101.167 258.982 100.403 259.834 100.227 260.601C98.916 266.323 98.122 273.518 101.042 278.889C103.594 283.583 109.955 285.965 114.945 286.682C117.861 287.101 120.87 287.065 123.571 285.754C125.87 284.638 127.309 282.436 127.758 279.96C128.707 274.723 127.28 268.53 124.685 263.924C123.088 261.09 120.371 259.089 117.155 258.534C113.539 257.91 109.864 258.526 106.226 258.527C106.226 260.194 106.226 261.86 106.226 263.527C109.35 263.433 112.34 263.831 115.366 264.582C118.346 265.322 121.286 266.185 124.32 266.689C125.65 266.91 127.011 266.34 127.395 264.943C127.724 263.746 126.988 262.09 125.649 261.868C122.506 261.346 119.466 260.434 116.375 259.682C113.047 258.873 109.654 258.424 106.226 258.527C103.018 258.623 102.996 263.528 106.226 263.527C109.041 263.526 111.856 263.154 114.67 263.268C116.709 263.35 118.554 263.965 119.771 265.501C120.078 265.888 120.629 266.926 120.954 267.603C121.004 267.707 121.05 267.814 121.097 267.92C121.076 267.874 120.967 267.604 121.079 267.875C121.191 268.144 121.295 268.417 121.396 268.69C121.594 269.226 121.774 269.769 121.94 270.316C122.658 272.69 123.041 274.608 123.039 276.951C123.039 277.457 123.015 277.961 122.964 278.465C122.934 278.766 122.969 278.446 122.976 278.398C122.958 278.514 122.939 278.63 122.915 278.744C122.861 279.004 122.806 279.262 122.732 279.517C122.706 279.606 122.462 280.273 122.569 280.028C122.678 279.778 122.425 280.29 122.376 280.372C122.323 280.461 121.986 280.907 122.179 280.683C122.365 280.467 121.91 280.923 121.824 280.998C122.216 280.653 120.991 281.468 121.14 281.399C121.335 281.309 120.797 281.524 120.691 281.558C120.428 281.642 120.161 281.713 119.892 281.772C119.773 281.798 119.191 281.902 119.589 281.846C119.296 281.888 118.997 281.906 118.702 281.921C118.128 281.95 117.553 281.943 116.98 281.907C115.864 281.837 115.036 281.687 113.775 281.363C112.756 281.101 111.314 280.619 110.626 280.322C109.62 279.887 108.642 279.37 107.725 278.771C107.489 278.617 107.256 278.458 107.029 278.29C107.343 278.521 106.915 278.196 106.819 278.113C106.476 277.818 106.155 277.502 105.858 277.161C105.688 276.966 105.891 277.213 105.912 277.241C105.784 277.069 105.668 276.887 105.557 276.703C105.397 276.439 105.249 276.167 105.12 275.886C105.214 276.089 104.955 275.452 104.914 275.332C104.807 275.016 104.714 274.695 104.631 274.372C104.273 272.971 104.175 271.809 104.145 270.323C104.086 267.356 104.403 264.744 105.049 261.927C104.467 262.509 103.885 263.091 103.303 263.673C103.89 263.581 104.55 263.709 104.933 263.896C105.565 264.205 106.073 264.824 106.511 265.538C108.191 268.279 112.518 265.77 110.828 263.017Z" fill="#222221"/>
</svg>
